<?xml version="1.0" encoding="utf-8"?>
<!-- Generator: Adobe Illustrator 15.1.0, SVG Export Plug-In . SVG Version: 6.00 Build 0)  -->
<!DOCTYPE svg PUBLIC "-//W3C//DTD SVG 1.1//EN" "http://www.w3.org/Graphics/SVG/1.1/DTD/svg11.dtd">
<svg version="1.1" id="Layer_1" xmlns="http://www.w3.org/2000/svg" xmlns:xlink="http://www.w3.org/1999/xlink" x="0px" y="0px"
	 width="150px" height="100px" viewBox="0 -35 150 100" enable-background="new 0 -35 150 100" xml:space="preserve">
<g>
	<g>
		<g>
			<path d="M30.695,19.002c0.463,1.621,0.892,3.315,1.258,5.408c0.245,1.391,0.473,2.769,0.606,4.29
				c0.046,0.531,0.197,1.128,0.14,1.537c-0.16,1.132-1.299,0.866-1.538,0.094c-0.123-0.397-0.094-0.962-0.141-1.446
				c-0.322-3.425-1.016-6.746-1.864-9.555c-1.44-4.848-3.839-9-6.387-12.821c-0.856-1.287-1.878-2.465-2.61-3.823
				c0.741,0.274,1.299,0.881,1.866,1.4c0.584,0.535,1.071,1.178,1.584,1.771C26.734,9.474,29.102,13.917,30.695,19.002z"/>
			<path d="M35.496,18.723c-0.977-0.254-0.756-1.468-0.234-2.051c1.321-1.475,4.203-1.552,5.642-2.843
				c-0.896-0.253-2.129-0.229-2.332-1.072c-0.345-1.452,1.364-2.037,1.958-2.844c0.016,0,0.032,0,0.046,0
				c0.369-0.275,0.955-0.747,1.353-1.118c0.088-0.083,0.422-0.16,0.233-0.327c-0.821,0.053-1.977,0.164-2.843,0.327
				c-0.498,0.053-1.124,0.242-1.771,0.418c-0.612,0.168-1.192,0.487-1.632,0.56c-1.058,0.18-1.502-0.435-1.631-1.304
				c-0.705,1.196-1.293,2.505-2.332,3.543c-0.295,0.296-0.774,0.789-1.258,0.699c-0.28-0.052-0.594-0.729-0.7-1.119
				c-0.291-1.079-0.154-2.541-0.56-3.449c-0.092-0.668-0.257-1.268-0.419-1.865c-0.095-0.542-0.249-1.026-0.42-1.492
				c-0.2-0.578-0.356-1.198-0.7-1.631c-0.048,0.123-0.185,0.157-0.233,0.28c-0.194,0.024-0.272,0.163-0.466,0.186
				c-0.026,0.064-0.177,0.007-0.185,0.093C23.589,3.51,21.069,1.07,18.249,0.17c-0.34-0.236-0.89-0.51-1.353-0.467
				c0.228,0.425,0.337,0.969,0.512,1.447c0.228,1.367,0.944,3.743,0.792,5.454c-0.125,1.41-1.251,1.927-2.983,1.865
				c0.127,0.501,0.589,0.821,0.933,1.165c1.799,1.798,3.976,3.262,5.968,4.986c0.944,0.819,2.038,1.8,2.144,3.216
				c-1.114,0.437-2.096-0.256-3.077-0.605c-1.873-0.668-3.89-1.229-6.385-1.304c1.019,2.313-1.588,4.199-2.426,5.688
				c-0.815,1.173-1.73,2.245-2.097,3.869c1.117-0.283,2.082-0.715,3.215-0.979c1.278-0.295,4.336-1.205,4.522,0.514
				c0.083,0.762-0.399,1.104-0.56,1.724c2.708-0.928,4.375-3.301,6.993-4.476c0.282-0.074,0.561-0.153,0.887-0.187
				c0.319-0.009,0.622,0,0.838,0.093c0.5,0.051,0.624,0.98,0.232,1.259c-0.075-0.204-0.033-0.524-0.186-0.652
				c-0.017-0.063-0.082-0.071-0.093-0.139c-1.528,0-2.576,1.126-3.45,1.911c-0.917,0.823-1.747,1.565-2.563,2.284
				c-0.402,0.297-1.052,0.748-1.818,1.12c-0.847,0.406-2.368,1.018-2.751,0.093c-0.154-0.371-0.052-0.676,0.046-1.073
				c0.015,0,0.031,0,0.047,0c0.175-0.522,0.502-0.896,0.653-1.443c-0.643,0.04-1.227,0.14-1.725,0.325
				c-0.677,0.113-1.416,0.353-2.051,0.561c-0.619,0.203-1.251,0.531-1.865,0.604c-1.326,0.163-2.018-0.645-1.864-2.004
				c0.175-1.572,1.506-2.932,2.145-4.102c0.491-0.546,0.911-1.136,1.491-1.913c0.406-0.542,1.224-1.398,1.118-2.052
				c-0.078-0.483-1.148-1.045-0.513-1.865c0.378-0.613,1.261-0.726,2.285-0.698c0.496,0.088,1.201,0.127,1.584,0.186
				c0.669,0.062,1.239,0.22,1.864,0.325c1.393,0.396,2.777,0.798,4.057,1.306c-1.4-1.349-3.161-2.338-4.801-3.449
				c-1.009-0.799-3.193-2.07-4.057-3.356c-0.427-0.638-0.597-1.333-0.093-2.005c0.532-0.619,2.047-0.251,2.797-0.651
				c0.002-2.022-0.318-3.722-0.793-5.268c-0.176-0.882-0.862-1.766-0.465-2.703c0.507-1.198,2.361-0.638,3.263-0.141
				c0.032,0,0.063,0,0.093,0c1.612,0.804,3.798,1.953,5.735,2.844c0.63,0.29,1.575,0.825,2.144,0.653
				c0.282-0.506,0.66-0.932,1.211-0.932c1.78,0,2.51,4.285,2.937,5.735c0.32,1.45,0.556,2.985,0.746,4.567
				c0.331-0.485,0.742-1.285,1.119-2.191c0.405-0.969,0.662-2.628,1.818-2.564c0.729,0.041,1.015,0.718,1.165,1.445
				c1.001-0.29,1.986-0.594,3.029-0.84c1.591-0.231,5.833-1.24,5.548,1.072c-0.074,0.602-0.696,1.122-1.119,1.492
				c-0.508,0.444-0.989,0.693-1.445,1.165c-0.479,0.313-0.983,0.602-1.259,1.119c0.954,0.071,1.85,0.202,2.239,0.838
				c0.201,0.384,0.031,0.88-0.093,1.212c-0.017,0-0.032,0-0.048,0c-0.021,0.088-0.101,0.117-0.093,0.232
				c-0.347,0.447-0.78,0.803-1.306,1.071c-0.441,0.269-1.158,0.519-1.725,0.795c-0.372,0.126-0.739,0.256-1.072,0.421
				c-0.59,0.186-1.157,0.396-1.583,0.746c-0.039,0.009-0.046,0.046-0.094,0.046c-0.016,0-0.032,0-0.046,0
				c-0.413,0.224-0.388,0.886-0.701,1.211C35.735,18.764,35.564,18.794,35.496,18.723z"/>
		</g>
		<g>
			<path fill="#EA3207" d="M15.59,26.972c0.015,0,0.031,0,0.047,0c0.175-0.522,0.502-0.896,0.653-1.442
				c-0.643,0.04-1.227,0.14-1.725,0.325C14.854,26.282,15.215,26.633,15.59,26.972z"/>
			<path fill="#EA3207" d="M26.639,2.127c-1.047-1.501-2.287-2.81-3.543-4.103C21.901-1.991,21.109-2.412,20.485-3
				c-0.03,0-0.062,0-0.093,0c-0.434,0.653-1.146,1.029-1.632,1.631c1.612,0.804,3.798,1.953,5.735,2.844
				C25.125,1.766,26.071,2.299,26.639,2.127z"/>
			<path fill="#EA3207" d="M16.663,6.743c0.002-2.022-0.318-3.722-0.793-5.268c-1.307,0.662-3.376,1.768-3.263,3.684
				c0.061,1.03,0.732,1.573,1.259,2.237C14.397,6.775,15.913,7.143,16.663,6.743z"/>
			<path fill="#EA3207" d="M32.654,9.307c0.404-0.969,0.662-2.628,1.818-2.564c0.729,0.041,1.016,0.718,1.165,1.445
				c1-0.29,1.985-0.594,3.029-0.84c-0.363-0.713-0.804-1.304-1.352-1.958c-0.527-0.628-1.333-1.688-2.518-1.398
				c-1.01,0.246-1.411,1.357-2.331,1.958c-0.63,0.411-1.171,0.508-1.678,0.979c0.32,1.45,0.556,2.986,0.746,4.568
				C31.865,11.012,32.276,10.212,32.654,9.307z"/>
			<path fill="#EA3207" d="M41.65,11.079c-0.479,0.314-0.983,0.602-1.258,1.119c0.953,0.071,1.85,0.201,2.238,0.838
				c0.004-0.196,0.168-0.235,0.232-0.373C42.481,12.111,42.011,11.65,41.65,11.079z"/>
			<path fill="#EA3207" d="M16.896,14.574c0.669,0.063,1.239,0.22,1.864,0.325c1.393,0.396,2.777,0.798,4.057,1.305
				c-1.399-1.348-3.161-2.337-4.801-3.448c0.084,0.428,0.685,0.59,0.746,0.887c-1.174,0.223-2.412,0.383-3.449,0.744
				C15.808,14.477,16.512,14.516,16.896,14.574z"/>
			<path fill="#EA3207" d="M42.489,14.249c-0.021,0.089-0.101,0.118-0.093,0.232c0.1-0.034,0.259-0.113,0.141-0.232
				C42.52,14.249,42.505,14.249,42.489,14.249z"/>
			<path fill="#EA3207" d="M38.759,18.396c-0.313-0.119-0.632-0.236-0.885-0.418c-0.067-0.052,0.236-0.219,0.325-0.467
				c0.083-0.224,0.057-0.49,0.093-0.746c-0.591,0.188-1.157,0.397-1.583,0.746c0.172,1.115,1.115,1.465,2.331,1.538
				C39.106,18.857,38.681,18.755,38.759,18.396z"/>
			<path fill="#EA3207" d="M36.616,17.557c-0.016,0-0.032,0-0.046,0c-0.413,0.225-0.388,0.887-0.701,1.212
				c0.417,0.02,0.8,0.072,1.258,0.047C36.905,18.635,36.472,18.261,36.616,17.557z"/>
			<path fill="#EA3207" d="M22.676,24.55c-0.917,0.823-1.747,1.565-2.563,2.284c0.475-0.062,0.692-0.558,1.071-0.839
				c0.597-0.442,1.798-0.792,2.519-1.26c0.374-0.241,0.746-0.697,1.026-0.743c0.32-0.056,0.818,0.182,1.117,0.046
				c0.362-0.163,0.375-0.806,0.374-1.258c-0.017-0.063-0.082-0.072-0.093-0.14C24.6,22.639,23.55,23.765,22.676,24.55z"/>
			<path fill="#EA3207" d="M12.422,19.002c0.405-0.542,1.224-1.398,1.117-2.052c-0.078-0.483-1.148-1.045-0.512-1.865
				c-0.925,0.335-1.78,0.736-2.565,1.212c-0.218,0.977-0.656,1.736-1.304,2.285c0.603,0.765,1.155,1.58,1.771,2.333
				C11.42,20.368,11.84,19.779,12.422,19.002z"/>
			<path fill="#EA3207" d="M38.712,18.35c0.349-1.377,1.51-1.941,2.378-2.797c-0.441,0.265-1.158,0.515-1.725,0.791
				C39.099,16.748,38.487,17.453,38.712,18.35z"/>
			<path fill="#EA3207" d="M35.262,16.672c1.321-1.475,4.203-1.552,5.642-2.843c-0.896-0.253-2.129-0.229-2.332-1.072
				c-0.345-1.452,1.364-2.037,1.958-2.844c0.016,0,0.032,0,0.046,0c0.369-0.275,0.955-0.747,1.353-1.118
				c0.088-0.083,0.422-0.16,0.233-0.327c-0.821,0.053-1.977,0.164-2.843,0.327c-0.498,0.053-1.124,0.242-1.771,0.418
				c-0.612,0.168-1.192,0.487-1.632,0.56c-1.058,0.18-1.502-0.435-1.631-1.304c-0.705,1.196-1.293,2.505-2.332,3.543
				c-0.295,0.296-0.774,0.789-1.258,0.699c-0.28-0.052-0.594-0.729-0.7-1.119c-0.291-1.079-0.154-2.541-0.56-3.449
				c-0.092-0.668-0.257-1.268-0.419-1.865c-0.095-0.542-0.249-1.026-0.42-1.492c-0.2-0.578-0.356-1.198-0.7-1.631
				c-0.048,0.123-0.185,0.157-0.233,0.28c-0.194,0.024-0.272,0.163-0.466,0.186c-0.026,0.064-0.177,0.007-0.185,0.093
				C23.589,3.51,21.069,1.07,18.249,0.17c-0.34-0.236-0.89-0.51-1.353-0.467c0.228,0.425,0.337,0.969,0.512,1.447
				c0.228,1.367,0.944,3.743,0.792,5.454c-0.125,1.41-1.251,1.927-2.983,1.865c0.127,0.501,0.589,0.821,0.933,1.165
				c1.799,1.798,3.976,3.262,5.968,4.986c0.944,0.819,2.038,1.8,2.144,3.216c-1.114,0.437-2.096-0.256-3.077-0.605
				c-1.873-0.668-3.89-1.229-6.385-1.304c1.019,2.313-1.588,4.199-2.426,5.688c-0.815,1.173-1.73,2.245-2.097,3.869
				c1.117-0.283,2.082-0.715,3.215-0.979c1.278-0.295,4.336-1.205,4.522,0.514c0.083,0.762-0.399,1.104-0.56,1.724
				c2.708-0.928,4.375-3.301,6.993-4.476c0.282-0.074,0.561-0.153,0.887-0.187c0.319-0.009,0.622,0,0.838,0.093
				c-0.015-0.063-0.067-0.088-0.046-0.186c0.899,0.077,1.144-0.504,1.538-0.931c-0.451-0.585-1.368-0.996-1.445-1.771
				c0.121-0.104,0.268,0.133,0.373,0.232c0.415,0.39,0.875,0.824,1.352,1.071c0.418-0.404,0.633-1.015,1.212-1.257
				c-1.44-4.848-3.839-9-6.387-12.821c-0.856-1.287-1.878-2.465-2.61-3.823c0.741,0.274,1.299,0.881,1.866,1.4
				c0.584,0.535,1.071,1.178,1.584,1.771c3.125,3.616,5.492,8.06,7.086,13.145c0.342-0.217,0.463-0.654,0.792-0.885
				c0.96,0.547,2.621,0.641,4.009,0.605C34.519,18.469,34.741,17.255,35.262,16.672z"/>
		</g>
	</g>
	<g>
		<g>
			<path fill="#999999" d="M48.809,22.466h3.743V22.7h-3.484v2.284h3.15v0.235h-3.15v2.323h3.522v0.235h-3.78v-5.313H48.809z"/>
			<path fill="#999999" d="M53.775,23.953h0.244v0.911c0.174-0.454,0.653-1.003,1.473-1.003c1.01,0,1.579,0.684,1.579,1.678v2.24
				h-0.243v-2.2c0-0.89-0.479-1.487-1.366-1.487c-0.805,0-1.442,0.658-1.442,1.53v2.157h-0.244V23.953z"/>
			<path fill="#999999" d="M58.333,28.427l0.143-0.199c0.479,0.364,1.01,0.555,1.602,0.555c0.965,0,1.617-0.546,1.617-1.618v-0.689
				c-0.296,0.584-0.896,1.022-1.67,1.022c-0.994,0-1.867-0.773-1.867-1.805v-0.017c0-1.04,0.873-1.814,1.867-1.814
				c0.774,0,1.374,0.44,1.67,1.011v-0.919h0.251v3.242c0,0.56-0.183,1.009-0.495,1.32c-0.326,0.326-0.812,0.501-1.374,0.501
				C59.434,29.018,58.857,28.821,58.333,28.427z M61.719,25.692v-0.017c0-0.887-0.781-1.577-1.67-1.577
				c-0.895,0-1.624,0.667-1.624,1.57v0.016c0,0.888,0.736,1.579,1.624,1.579C60.938,27.264,61.719,26.578,61.719,25.692z"/>
			<path fill="#999999" d="M63.407,22.237h0.25v5.544h-0.25V22.237z"/>
			<path fill="#999999" d="M65.124,22.435h0.327v0.463h-0.327V22.435z M65.16,23.953h0.251v3.826H65.16V23.953z"/>
			<path fill="#999999" d="M66.515,27.287l0.143-0.19c0.426,0.333,0.934,0.522,1.428,0.522c0.614,0,1.093-0.325,1.093-0.797v-0.016
				c0-0.54-0.578-0.706-1.162-0.867c-0.713-0.203-1.329-0.401-1.329-1.039v-0.016c0-0.569,0.523-1.001,1.306-1.001
				c0.44,0,0.94,0.151,1.343,0.424L69.2,24.512c-0.363-0.259-0.813-0.402-1.214-0.402c-0.63,0-1.047,0.327-1.047,0.753v0.015
				c0,0.479,0.538,0.653,1.162,0.828c0.697,0.191,1.328,0.408,1.328,1.078V26.8c0,0.628-0.592,1.046-1.359,1.046
				C67.523,27.85,66.931,27.637,66.515,27.287z"/>
			<path fill="#999999" d="M70.615,22.237h0.243v2.628c0.175-0.455,0.652-1.003,1.473-1.003c1.01,0,1.579,0.685,1.579,1.679v2.24
				h-0.243v-2.202c0-0.888-0.479-1.487-1.367-1.487c-0.804,0-1.441,0.659-1.441,1.532v2.157h-0.243V22.237z"/>
			<path fill="#999999" d="M77.178,27.006l0.174-0.189c0.563,0.53,1.186,0.803,1.959,0.803c0.919,0,1.519-0.499,1.519-1.169v-0.016
				c0-0.622-0.357-0.956-1.64-1.222c-1.298-0.259-1.807-0.668-1.807-1.436v-0.016c0-0.76,0.722-1.372,1.724-1.372
				c0.728,0,1.305,0.226,1.806,0.619l-0.159,0.206c-0.485-0.388-1.04-0.592-1.662-0.592c-0.873,0-1.45,0.523-1.45,1.116v0.016
				c0,0.614,0.356,0.956,1.647,1.224c1.321,0.264,1.799,0.689,1.799,1.434v0.016c0,0.82-0.707,1.427-1.791,1.427
				C78.468,27.855,77.777,27.561,77.178,27.006z"/>
			<path fill="#999999" d="M82.038,25.873v-0.015c0-1.078,0.85-1.997,1.958-1.997c0.707,0,1.154,0.318,1.527,0.707l-0.175,0.175
				c-0.335-0.358-0.753-0.654-1.36-0.654c-0.963,0-1.692,0.799-1.692,1.762v0.014c0,0.966,0.752,1.778,1.708,1.778
				c0.607,0,1.04-0.312,1.373-0.684l0.174,0.152c-0.371,0.433-0.849,0.759-1.563,0.759C82.888,27.871,82.038,26.962,82.038,25.873z"
				/>
			<path fill="#999999" d="M86.595,22.237h0.243v2.628c0.173-0.455,0.653-1.003,1.472-1.003c1.011,0,1.579,0.685,1.579,1.679v2.24
				h-0.243v-2.202c0-0.888-0.479-1.487-1.366-1.487c-0.804,0-1.441,0.659-1.441,1.532v2.157h-0.243V22.237z"/>
			<path fill="#999999" d="M90.955,25.881v-0.014c0-1.069,0.812-2.005,1.988-2.005c1.17,0,1.974,0.919,1.974,1.989v0.016
				c0,1.071-0.804,2.004-1.981,2.004C91.767,27.871,90.955,26.951,90.955,25.881z M94.66,25.873v-0.015
				c0-0.965-0.736-1.767-1.731-1.767c-1.009,0-1.707,0.802-1.707,1.767v0.015c0,0.966,0.728,1.771,1.722,1.771
				C93.954,27.644,94.66,26.839,94.66,25.873z"/>
			<path fill="#999999" d="M95.786,25.881v-0.014c0-1.069,0.811-2.005,1.988-2.005c1.169,0,1.974,0.919,1.974,1.989v0.016
				c0,1.071-0.805,2.004-1.981,2.004C96.597,27.871,95.786,26.951,95.786,25.881z M99.49,25.873v-0.015
				c0-0.965-0.737-1.767-1.729-1.767c-1.011,0-1.709,0.802-1.709,1.767v0.015c0,0.966,0.728,1.771,1.722,1.771
				C98.784,27.644,99.49,26.839,99.49,25.873z"/>
			<path fill="#999999" d="M100.935,22.237h0.251v5.544h-0.251V22.237z"/>
			<path fill="#999999" d="M104.559,25.881v-0.014c0-1.069,0.813-2.005,1.99-2.005c1.168,0,1.972,0.919,1.972,1.989v0.016
				c0,1.071-0.804,2.004-1.98,2.004C105.371,27.871,104.559,26.951,104.559,25.881z M108.264,25.873v-0.015
				c0-0.965-0.735-1.767-1.73-1.767c-1.011,0-1.709,0.802-1.709,1.767v0.015c0,0.966,0.727,1.771,1.725,1.771
				C107.558,27.644,108.264,26.839,108.264,25.873z"/>
			<path fill="#999999" d="M109.912,24.175h-0.584v-0.222h0.584v-0.479c0-0.439,0.115-0.774,0.326-0.977
				c0.183-0.184,0.435-0.281,0.753-0.281c0.234,0,0.396,0.036,0.554,0.098v0.235c-0.174-0.068-0.356-0.1-0.554-0.1
				c-0.532,0-0.835,0.327-0.835,1.048v0.455h1.374v0.222h-1.374v3.604h-0.243L109.912,24.175L109.912,24.175z"/>
			<path fill="#999999" d="M114.279,25.139v-0.016c0-1.495,1.11-2.748,2.628-2.748c0.987,0,1.526,0.365,2.042,0.841l-0.183,0.19
				c-0.439-0.424-0.979-0.796-1.866-0.796c-1.352,0-2.355,1.13-2.355,2.506v0.015c0,1.374,1.019,2.506,2.361,2.506
				c0.83,0,1.421-0.366,1.891-0.852l0.183,0.174c-0.502,0.511-1.147,0.911-2.088,0.911C115.39,27.871,114.279,26.647,114.279,25.139
				z"/>
			<path fill="#999999" d="M119.665,26.701v-0.015c0-0.798,0.721-1.229,1.693-1.229c0.531,0,0.994,0.091,1.366,0.212V25.41
				c0-0.865-0.516-1.29-1.366-1.29c-0.471,0-0.866,0.129-1.245,0.319l-0.091-0.213c0.426-0.205,0.843-0.333,1.352-0.333
				c0.523,0,0.934,0.135,1.215,0.415c0.243,0.251,0.379,0.616,0.379,1.087v2.384h-0.242v-0.798c-0.197,0.418-0.729,0.889-1.61,0.889
				C120.379,27.871,119.665,27.477,119.665,26.701z M122.732,26.368v-0.471c-0.373-0.122-0.812-0.213-1.382-0.213
				c-0.843,0-1.428,0.356-1.428,0.987v0.015c0,0.63,0.569,0.957,1.207,0.957C122.058,27.644,122.732,27.051,122.732,26.368z"/>
			<path fill="#999999" d="M124.308,23.953h0.242v0.911c0.175-0.454,0.651-1.003,1.472-1.003c1.011,0,1.578,0.684,1.578,1.678v2.24
				h-0.242v-2.2c0-0.89-0.478-1.487-1.366-1.487c-0.804,0-1.441,0.658-1.441,1.53v2.157h-0.242V23.953z"/>
			<path fill="#999999" d="M128.62,26.701v-0.015c0-0.798,0.722-1.229,1.692-1.229c0.531,0,0.995,0.091,1.366,0.212V25.41
				c0-0.865-0.515-1.29-1.366-1.29c-0.471,0-0.865,0.129-1.242,0.319l-0.094-0.213c0.426-0.205,0.844-0.333,1.353-0.333
				c0.522,0,0.935,0.135,1.215,0.415c0.242,0.251,0.381,0.616,0.381,1.087v2.384h-0.245v-0.798
				c-0.195,0.418-0.728,0.889-1.609,0.889C129.336,27.871,128.62,27.477,128.62,26.701z M131.688,26.368v-0.471
				c-0.373-0.122-0.813-0.213-1.382-0.213c-0.842,0-1.427,0.356-1.427,0.987v0.015c0,0.63,0.568,0.957,1.206,0.957
				C131.013,27.644,131.688,27.051,131.688,26.368z"/>
			<path fill="#999999" d="M133.012,25.873v-0.015c0-1.16,0.856-1.997,1.89-1.997c0.843,0,1.435,0.501,1.692,1.132v-2.757h0.244
				v5.543h-0.244v-1.056c-0.266,0.638-0.856,1.147-1.692,1.147C133.868,27.871,133.012,27.042,133.012,25.873z M136.608,25.873
				v-0.015c0-0.986-0.75-1.76-1.685-1.76c-0.964,0-1.653,0.727-1.653,1.753v0.016c0,1.01,0.705,1.77,1.653,1.77
				C135.867,27.637,136.608,26.862,136.608,25.873z"/>
			<path fill="#999999" d="M137.933,26.701v-0.015c0-0.798,0.723-1.229,1.693-1.229c0.532,0,0.993,0.091,1.365,0.212V25.41
				c0-0.865-0.515-1.29-1.365-1.29c-0.472,0-0.867,0.129-1.245,0.319l-0.091-0.213c0.425-0.205,0.841-0.333,1.351-0.333
				c0.524,0,0.934,0.135,1.215,0.415c0.242,0.251,0.381,0.616,0.381,1.087v2.384h-0.245v-0.798
				c-0.195,0.418-0.727,0.889-1.609,0.889C138.647,27.871,137.933,27.477,137.933,26.701z M140.999,26.368v-0.471
				c-0.372-0.122-0.81-0.213-1.38-0.213c-0.844,0-1.428,0.356-1.428,0.987v0.015c0,0.63,0.568,0.957,1.206,0.957
				C140.324,27.644,140.999,27.051,140.999,26.368z"/>
		</g>
		<g>
			<path d="M53.815-0.689h14.227l-1.006,3.727H56.97l-1.034,3.889h8.841l-1.006,3.672h-8.841l-1.088,4.026h10.229l-1.008,3.727H48.7
				L53.815-0.689z"/>
			<path d="M66.19,15.113l3.157-2.665c1.495,1.631,3.154,2.502,5.331,2.502c1.686,0,2.911-0.789,2.911-1.985
				c0-0.925-0.681-1.469-3.237-2.502c-2.476-1.007-4.679-2.34-4.679-5.143c0-3.889,3.481-6.283,7.562-6.283
				c3.265,0,5.523,1.115,7.128,2.829L81.48,4.75c-1.441-1.333-2.721-2.04-4.57-2.04c-1.767,0-2.774,0.979-2.774,1.93
				c0,1.007,0.762,1.442,3.345,2.502c2.612,1.062,4.571,2.368,4.571,5.141c0,4-3.564,6.339-7.563,6.339
				C70.816,18.624,67.986,17.427,66.19,15.113z"/>
			<path d="M85.175,10.381c0-6.066,5.17-11.398,11.59-11.398c3.644,0,6.092,1.551,7.616,4.052l-3.455,2.422
				c-1.114-1.578-2.394-2.612-4.68-2.612c-3.48,0-6.72,3.319-6.72,7.372c0,2.748,1.933,4.598,4.652,4.598
				c1.85,0,3.046-0.735,4.462-1.876l2.719,2.828c-1.821,1.688-4.026,2.911-7.208,2.911C88.957,18.677,85.175,15.467,85.175,10.381z"
				/>
		</g>
	</g>
</g>
</svg>
