<?xml version="1.0" encoding="utf-8"?>
<!-- Generator: Adobe Illustrator 15.1.0, SVG Export Plug-In . SVG Version: 6.00 Build 0)  -->
<!DOCTYPE svg PUBLIC "-//W3C//DTD SVG 1.1//EN" "http://www.w3.org/Graphics/SVG/1.1/DTD/svg11.dtd">
<svg version="1.1" id="Layer_1" xmlns="http://www.w3.org/2000/svg" xmlns:xlink="http://www.w3.org/1999/xlink" x="0px" y="0px"
	 width="225px" height="100px" viewBox="-37.5 -35 225 100" enable-background="new -37.5 -35 225 100" xml:space="preserve">
<g>
	<g>
		<g>
			<path d="M6.412,22.062c0.654,2.289,1.259,4.681,1.775,7.635c0.346,1.965,0.667,3.91,0.857,6.057
				c0.065,0.75,0.278,1.593,0.197,2.17c-0.226,1.599-1.833,1.224-2.171,0.133c-0.174-0.56-0.133-1.356-0.199-2.042
				c-0.454-4.835-1.434-9.523-2.632-13.489C2.206,15.681-1.18,9.819-4.778,4.425c-1.209-1.816-2.652-3.48-3.684-5.397
				c1.046,0.387,1.833,1.243,2.633,1.977c0.825,0.755,1.512,1.663,2.237,2.5C0.82,8.61,4.162,14.884,6.412,22.062z"/>
			<path d="M13.189,21.667c-1.379-0.358-1.067-2.072-0.33-2.895c1.865-2.082,5.933-2.191,7.965-4.014
				c-1.264-0.357-3.006-0.325-3.291-1.515c-0.488-2.05,1.925-2.875,2.763-4.015c0.023,0,0.046,0,0.066,0
				c0.52-0.389,1.348-1.055,1.909-1.578c0.125-0.117,0.597-0.227,0.329-0.461c-1.158,0.075-2.791,0.231-4.014,0.461
				c-0.703,0.074-1.586,0.341-2.501,0.59c-0.864,0.237-1.684,0.688-2.303,0.792c-1.494,0.252-2.121-0.615-2.303-1.842
				c-0.996,1.69-1.826,3.536-3.292,5.003c-0.417,0.417-1.093,1.113-1.775,0.985c-0.396-0.073-0.838-1.029-0.988-1.58
				c-0.411-1.523-0.217-3.586-0.791-4.87c-0.13-0.943-0.362-1.79-0.591-2.633C3.908,3.332,3.691,2.648,3.449,1.991
				C3.167,1.175,2.946,0.3,2.461-0.312C2.393-0.139,2.2-0.09,2.132,0.083C1.857,0.118,1.748,0.314,1.473,0.345
				c-0.037,0.09-0.25,0.01-0.261,0.132C-3.621,0.191-7.178-3.254-11.16-4.524c-0.48-0.334-1.257-0.721-1.909-0.66
				c0.322,0.601,0.476,1.367,0.723,2.042c0.323,1.929,1.333,5.285,1.12,7.699c-0.176,1.99-1.767,2.72-4.212,2.632
				c0.181,0.708,0.832,1.159,1.318,1.645c2.539,2.539,5.613,4.605,8.425,7.039c1.332,1.156,2.876,2.541,3.025,4.54
				c-1.572,0.616-2.959-0.361-4.344-0.854c-2.643-0.943-5.491-1.734-9.014-1.841c1.438,3.265-2.242,5.929-3.424,8.029
				c-1.15,1.656-2.444,3.171-2.96,5.462c1.578-0.399,2.939-1.009,4.54-1.383c1.805-0.415,6.122-1.701,6.384,0.726
				c0.117,1.075-0.564,1.56-0.791,2.434c3.823-1.31,6.177-4.66,9.872-6.317c0.398-0.106,0.792-0.218,1.252-0.265
				c0.452-0.013,0.878,0,1.184,0.132c0.707,0.071,0.88,1.384,0.328,1.776c-0.105-0.287-0.046-0.741-0.262-0.92
				c-0.023-0.089-0.115-0.103-0.131-0.197c-2.157,0-3.637,1.591-4.871,2.698c-1.294,1.162-2.466,2.212-3.619,3.225
				c-0.567,0.42-1.485,1.057-2.566,1.582c-1.195,0.573-3.343,1.438-3.883,0.131c-0.218-0.522-0.074-0.954,0.064-1.516
				c0.022,0,0.043,0,0.066,0c0.248-0.737,0.708-1.266,0.922-2.037c-0.907,0.057-1.731,0.197-2.435,0.459
				c-0.956,0.16-1.999,0.497-2.896,0.792c-0.874,0.286-1.767,0.75-2.633,0.853c-1.872,0.23-2.848-0.91-2.631-2.829
				c0.247-2.219,2.126-4.139,3.027-5.79c0.693-0.771,1.286-1.604,2.104-2.701c0.573-0.766,1.729-1.975,1.578-2.896
				c-0.11-0.683-1.62-1.475-0.724-2.634c0.535-0.865,1.78-1.024,3.227-0.984c0.7,0.124,1.695,0.18,2.237,0.263
				c0.944,0.087,1.75,0.311,2.632,0.459c1.967,0.56,3.92,1.126,5.728,1.844c-1.977-1.904-4.463-3.302-6.778-4.869
				c-1.424-1.128-4.507-2.922-5.726-4.738c-0.604-0.9-0.843-1.883-0.131-2.831c0.75-0.874,2.89-0.354,3.948-0.919
				c0.004-2.855-0.449-5.255-1.12-7.438c-0.248-1.244-1.216-2.493-0.656-3.816c0.715-1.691,3.333-0.9,4.606-0.199
				c0.045,0,0.088,0,0.131,0C-8.161-5.563-5.075-3.94-2.34-2.683c0.889,0.41,2.224,1.164,3.027,0.922
				c0.398-0.715,0.931-1.316,1.71-1.316c2.513,0,3.543,6.05,4.146,8.097c0.453,2.047,0.785,4.215,1.053,6.449
				c0.467-0.685,1.047-1.813,1.58-3.094c0.571-1.367,0.934-3.71,2.567-3.62c1.029,0.057,1.433,1.014,1.644,2.041
				c1.413-0.41,2.803-0.839,4.277-1.187c2.246-0.327,8.234-1.75,7.833,1.515c-0.104,0.849-0.982,1.583-1.58,2.105
				c-0.716,0.627-1.396,0.979-2.04,1.646c-0.676,0.442-1.388,0.849-1.777,1.579c1.346,0.1,2.611,0.285,3.16,1.183
				c0.283,0.542,0.043,1.243-0.13,1.712c-0.023,0-0.045,0-0.068,0c-0.029,0.123-0.142,0.165-0.13,0.328
				c-0.49,0.63-1.101,1.133-1.844,1.511c-0.623,0.379-1.635,0.732-2.436,1.122c-0.524,0.179-1.043,0.361-1.513,0.595
				c-0.833,0.262-1.633,0.559-2.235,1.053c-0.055,0.013-0.065,0.065-0.133,0.065c-0.023,0-0.045,0-0.065,0
				c-0.583,0.315-0.548,1.25-0.989,1.709C13.527,21.726,13.286,21.769,13.189,21.667z"/>
		</g>
		<g>
			<path fill="#EA3207" d="M-14.913,33.313c0.022,0,0.043,0,0.066,0c0.248-0.736,0.708-1.266,0.922-2.036
				c-0.907,0.058-1.731,0.198-2.435,0.459C-15.952,32.341-15.442,32.835-14.913,33.313z"/>
			<path fill="#EA3207" d="M0.685-1.761C-0.793-3.88-2.543-5.728-4.317-7.554C-6.004-7.575-7.122-8.169-8.002-9
				C-8.045-9-8.09-9-8.133-9c-0.613,0.922-1.617,1.453-2.305,2.302C-8.161-5.563-5.075-3.94-2.34-2.683
				C-1.451-2.271-0.117-1.519,0.685-1.761z"/>
			<path fill="#EA3207" d="M-13.399,4.754c0.004-2.855-0.449-5.255-1.12-7.438c-1.844,0.936-4.767,2.496-4.606,5.201
				c0.086,1.454,1.034,2.22,1.778,3.157C-16.597,4.8-14.458,5.32-13.399,4.754z"/>
			<path fill="#EA3207" d="M9.177,8.375c0.571-1.367,0.934-3.71,2.566-3.62c1.029,0.057,1.434,1.014,1.645,2.041
				c1.412-0.41,2.803-0.839,4.277-1.187c-0.512-1.006-1.135-1.841-1.909-2.763c-0.743-0.888-1.881-2.384-3.554-1.975
				c-1.427,0.347-1.992,1.916-3.291,2.765c-0.89,0.581-1.653,0.717-2.369,1.382c0.452,2.048,0.785,4.216,1.052,6.45
				C8.063,10.781,8.644,9.652,9.177,8.375z"/>
			<path fill="#EA3207" d="M21.878,10.875c-0.675,0.445-1.388,0.851-1.775,1.581c1.346,0.101,2.611,0.284,3.159,1.183
				c0.006-0.277,0.238-0.332,0.328-0.526C23.05,12.334,22.387,11.683,21.878,10.875z"/>
			<path fill="#EA3207" d="M-13.069,15.811c0.944,0.088,1.75,0.312,2.632,0.459c1.967,0.559,3.921,1.127,5.727,1.843
				c-1.976-1.903-4.463-3.3-6.778-4.868c0.12,0.604,0.967,0.833,1.053,1.251c-1.657,0.315-3.405,0.541-4.869,1.052
				C-14.605,15.675-13.612,15.728-13.069,15.811z"/>
			<path fill="#EA3207" d="M23.062,15.352c-0.029,0.125-0.142,0.166-0.13,0.328c0.141-0.049,0.365-0.161,0.199-0.328
				C23.106,15.352,23.084,15.352,23.062,15.352z"/>
			<path fill="#EA3207" d="M17.796,21.206c-0.442-0.169-0.892-0.334-1.25-0.591c-0.094-0.073,0.333-0.31,0.46-0.659
				c0.116-0.315,0.079-0.691,0.131-1.053c-0.834,0.266-1.634,0.561-2.236,1.053c0.244,1.574,1.574,2.069,3.291,2.172
				C18.286,21.857,17.686,21.712,17.796,21.206z"/>
			<path fill="#EA3207" d="M14.771,20.021c-0.023,0-0.045,0-0.065,0c-0.583,0.317-0.548,1.251-0.989,1.711
				c0.589,0.026,1.13,0.102,1.775,0.065C15.179,21.543,14.567,21.015,14.771,20.021z"/>
			<path fill="#EA3207" d="M-4.909,29.894c-1.294,1.162-2.466,2.212-3.619,3.225c0.67-0.087,0.977-0.787,1.512-1.184
				c0.843-0.624,2.539-1.117,3.555-1.779c0.527-0.34,1.053-0.984,1.449-1.048c0.452-0.079,1.156,0.257,1.578,0.063
				c0.51-0.229,0.529-1.137,0.528-1.774c-0.023-0.091-0.115-0.103-0.131-0.198C-2.192,27.195-3.675,28.786-4.909,29.894z"/>
			<path fill="#EA3207" d="M-19.386,22.062c0.572-0.766,1.728-1.975,1.577-2.896c-0.11-0.683-1.621-1.475-0.722-2.634
				c-1.307,0.474-2.513,1.04-3.622,1.711c-0.309,1.379-0.926,2.452-1.842,3.227c0.851,1.079,1.631,2.231,2.502,3.294
				C-20.8,23.99-20.207,23.159-19.386,22.062z"/>
			<path fill="#EA3207" d="M17.73,21.141c0.494-1.944,2.132-2.741,3.357-3.948c-0.623,0.373-1.635,0.727-2.436,1.116
				C18.276,18.88,17.413,19.875,17.73,21.141z"/>
			<path fill="#EA3207" d="M12.859,18.772c1.865-2.082,5.933-2.191,7.965-4.014c-1.264-0.357-3.006-0.325-3.291-1.515
				c-0.488-2.05,1.925-2.875,2.763-4.015c0.023,0,0.046,0,0.066,0c0.52-0.389,1.348-1.055,1.909-1.578
				c0.125-0.117,0.597-0.227,0.329-0.461c-1.158,0.075-2.791,0.231-4.014,0.461c-0.703,0.074-1.586,0.341-2.501,0.59
				c-0.864,0.237-1.684,0.688-2.303,0.792c-1.494,0.252-2.121-0.615-2.303-1.842c-0.996,1.69-1.826,3.536-3.292,5.003
				c-0.417,0.417-1.093,1.113-1.775,0.985c-0.396-0.073-0.838-1.029-0.988-1.58c-0.411-1.523-0.217-3.586-0.791-4.87
				c-0.13-0.943-0.362-1.79-0.591-2.633C3.908,3.332,3.691,2.648,3.449,1.991C3.167,1.175,2.946,0.3,2.461-0.312
				C2.393-0.139,2.2-0.09,2.132,0.083C1.857,0.118,1.748,0.314,1.473,0.345c-0.037,0.09-0.25,0.01-0.261,0.132
				C-3.621,0.191-7.178-3.254-11.16-4.524c-0.48-0.334-1.257-0.721-1.909-0.66c0.322,0.601,0.476,1.367,0.723,2.042
				c0.323,1.929,1.333,5.285,1.12,7.699c-0.176,1.99-1.767,2.72-4.212,2.632c0.181,0.708,0.832,1.159,1.318,1.645
				c2.539,2.539,5.613,4.605,8.425,7.039c1.332,1.156,2.876,2.541,3.025,4.54c-1.572,0.616-2.959-0.361-4.344-0.854
				c-2.643-0.943-5.491-1.734-9.014-1.841c1.438,3.265-2.242,5.929-3.424,8.029c-1.15,1.656-2.444,3.171-2.96,5.462
				c1.578-0.399,2.939-1.009,4.54-1.383c1.805-0.415,6.122-1.701,6.384,0.726c0.117,1.075-0.564,1.56-0.791,2.434
				c3.823-1.31,6.177-4.66,9.872-6.317c0.398-0.106,0.792-0.218,1.252-0.265c0.452-0.013,0.878,0,1.184,0.132
				c-0.021-0.09-0.094-0.124-0.065-0.263c1.27,0.108,1.614-0.712,2.171-1.313c-0.637-0.825-1.931-1.406-2.04-2.501
				c0.17-0.146,0.378,0.188,0.527,0.328c0.586,0.551,1.235,1.164,1.908,1.514c0.591-0.573,0.894-1.435,1.711-1.776
				C2.206,15.681-1.18,9.819-4.778,4.425c-1.209-1.816-2.652-3.48-3.684-5.397c1.046,0.387,1.833,1.243,2.633,1.977
				c0.825,0.755,1.512,1.663,2.237,2.5C0.82,8.61,4.162,14.884,6.412,22.062c0.482-0.306,0.654-0.923,1.118-1.249
				c1.355,0.772,3.7,0.904,5.659,0.854C11.811,21.309,12.124,19.595,12.859,18.772z"/>
		</g>
	</g>
	<g>
		<g>
			<path fill="#666666" d="M31.745,33.537v-7.992h5.666v1.031h-4.535v2.256h3.949v0.973h-3.949v2.701h4.652v1.031H31.745z"/>
			<path fill="#666666" d="M39.04,33.537v-6.24h1.043v1.02c0.535-0.777,1.246-1.166,2.133-1.166c0.676,0,1.209,0.209,1.6,0.629
				s0.586,1,0.586,1.738v4.02h-1.043V29.75c0-1.086-0.465-1.627-1.395-1.627c-0.539,0-0.987,0.18-1.345,0.543
				c-0.357,0.361-0.536,0.83-0.536,1.406v3.465H39.04z"/>
			<path fill="#666666" d="M45.813,30.205c0-0.879,0.271-1.609,0.812-2.188s1.228-0.867,2.06-0.867c0.465,0,0.892,0.098,1.28,0.293
				s0.706,0.486,0.952,0.873v-1.02h1.043v5.232c0,0.996-0.225,1.744-0.674,2.244c-0.559,0.648-1.434,0.973-2.625,0.973
				c-1.012,0-1.881-0.248-2.607-0.744l0.527-0.855c0.598,0.434,1.295,0.65,2.092,0.65c0.68,0,1.224-0.168,1.632-0.506
				c0.408-0.336,0.612-0.854,0.612-1.549v-0.676c-0.242,0.385-0.567,0.676-0.976,0.875c-0.408,0.197-0.845,0.297-1.31,0.297
				c-0.828,0-1.505-0.287-2.03-0.857C46.076,31.809,45.813,31.084,45.813,30.205z M46.921,30.186c0,0.611,0.169,1.115,0.507,1.516
				c0.338,0.398,0.823,0.6,1.456,0.6s1.132-0.201,1.497-0.604c0.365-0.4,0.548-0.904,0.548-1.512c0-0.604-0.181-1.102-0.542-1.496
				c-0.361-0.393-0.862-0.59-1.503-0.59c-0.324,0-0.613,0.055-0.867,0.164s-0.459,0.26-0.615,0.453
				c-0.156,0.191-0.275,0.412-0.357,0.66S46.921,29.895,46.921,30.186z"/>
			<path fill="#666666" d="M53.864,33.537v-8.566h1.043v8.566H53.864z"/>
			<path fill="#666666" d="M56.812,26.072v-1.102h1.043v1.102H56.812z M56.812,33.537v-6.24h1.043v6.24H56.812z"/>
			<path fill="#666666" d="M59.173,32.348l0.768-0.574c0.488,0.672,1.172,1.008,2.051,1.008c0.438,0,0.789-0.088,1.055-0.262
				s0.398-0.424,0.398-0.748c0-0.078-0.008-0.15-0.023-0.215s-0.044-0.123-0.085-0.176s-0.083-0.1-0.125-0.141
				c-0.043-0.041-0.108-0.08-0.196-0.117c-0.087-0.037-0.169-0.068-0.244-0.092c-0.075-0.025-0.176-0.053-0.304-0.082
				s-0.238-0.053-0.331-0.07c-0.093-0.018-0.229-0.045-0.408-0.078c-0.274-0.066-0.51-0.123-0.709-0.17
				c-0.199-0.047-0.4-0.119-0.603-0.215s-0.367-0.205-0.492-0.328s-0.228-0.277-0.308-0.463s-0.12-0.396-0.12-0.635
				c0-0.309,0.064-0.584,0.193-0.824s0.304-0.432,0.524-0.576s0.468-0.254,0.741-0.328s0.566-0.111,0.879-0.111
				c0.543,0,1.029,0.1,1.459,0.301s0.787,0.451,1.072,0.748l-0.691,0.656c-0.461-0.535-1.078-0.803-1.852-0.803
				c-0.367,0-0.679,0.07-0.935,0.213s-0.384,0.354-0.384,0.633c0,0.092,0.016,0.174,0.047,0.248
				c0.031,0.076,0.069,0.141,0.112,0.193s0.108,0.104,0.195,0.15c0.087,0.049,0.165,0.086,0.234,0.115
				c0.069,0.031,0.167,0.061,0.292,0.094c0.126,0.033,0.231,0.057,0.314,0.074c0.083,0.016,0.199,0.037,0.35,0.066
				c0.206,0.061,0.379,0.107,0.521,0.141s0.308,0.074,0.499,0.119c0.19,0.047,0.347,0.098,0.468,0.156s0.248,0.135,0.379,0.227
				c0.131,0.094,0.235,0.195,0.312,0.305c0.076,0.111,0.139,0.244,0.188,0.398c0.049,0.154,0.074,0.324,0.074,0.506
				c0,0.602-0.228,1.084-0.683,1.447s-1.079,0.545-1.872,0.545c-0.609,0-1.151-0.117-1.626-0.35S59.454,32.773,59.173,32.348z"/>
			<path fill="#666666" d="M65.935,33.537v-8.578h1.043v3.357c0.535-0.777,1.246-1.166,2.133-1.166c0.676,0,1.209,0.209,1.6,0.629
				s0.586,1,0.586,1.738v4.02h-1.043V29.75c0-1.086-0.465-1.627-1.395-1.627c-0.539,0-0.987,0.18-1.345,0.543
				c-0.357,0.361-0.536,0.83-0.536,1.406v3.465H65.935z"/>
			<path fill="#666666" d="M75.814,32.047l0.92-0.586c0.266,0.422,0.609,0.736,1.031,0.941s0.883,0.309,1.383,0.309
				c0.547,0,0.984-0.123,1.314-0.369c0.33-0.244,0.496-0.58,0.496-1.008c0-0.18-0.039-0.34-0.117-0.48
				c-0.078-0.139-0.16-0.248-0.246-0.328s-0.242-0.162-0.469-0.244s-0.402-0.141-0.527-0.172s-0.354-0.084-0.686-0.158
				c-0.043-0.012-0.074-0.021-0.098-0.025c-0.305-0.08-0.572-0.152-0.803-0.213c-0.229-0.061-0.465-0.15-0.709-0.27
				s-0.443-0.254-0.598-0.406s-0.281-0.344-0.383-0.576s-0.152-0.494-0.152-0.787c0-0.703,0.26-1.26,0.779-1.666
				s1.191-0.609,2.016-0.609c0.611,0,1.176,0.121,1.695,0.365s0.951,0.596,1.293,1.053l-0.852,0.617
				c-0.25-0.338-0.564-0.594-0.943-0.771c-0.379-0.18-0.795-0.268-1.252-0.268c-0.297,0-0.561,0.035-0.791,0.107
				s-0.424,0.197-0.58,0.379c-0.156,0.18-0.234,0.404-0.234,0.672c0,0.104,0.01,0.201,0.031,0.287
				c0.021,0.088,0.061,0.166,0.119,0.236c0.057,0.07,0.109,0.133,0.16,0.186c0.051,0.055,0.131,0.107,0.236,0.158
				s0.195,0.092,0.268,0.121c0.072,0.031,0.18,0.066,0.324,0.104s0.256,0.066,0.338,0.088c0.082,0.02,0.205,0.053,0.373,0.096
				c0.256,0.059,0.473,0.113,0.648,0.162c0.178,0.049,0.377,0.113,0.598,0.189c0.223,0.076,0.408,0.156,0.557,0.24
				c0.15,0.082,0.301,0.184,0.455,0.305s0.275,0.252,0.367,0.393c0.092,0.143,0.166,0.311,0.225,0.502s0.088,0.398,0.088,0.623
				c0,0.732-0.275,1.322-0.826,1.77s-1.283,0.672-2.197,0.672c-0.738,0-1.389-0.146-1.951-0.438S76.119,32.555,75.814,32.047z"/>
			<path fill="#666666" d="M83.18,30.42c0-0.945,0.277-1.727,0.832-2.344s1.285-0.926,2.191-0.926c0.531,0,1.008,0.115,1.43,0.346
				s0.773,0.549,1.055,0.955l-0.779,0.621c-0.402-0.648-0.959-0.973-1.67-0.973c-0.594,0-1.068,0.217-1.422,0.652
				s-0.529,0.992-0.529,1.668s0.176,1.23,0.529,1.664s0.824,0.65,1.41,0.65c0.715,0,1.279-0.313,1.693-0.938l0.803,0.574
				c-0.281,0.402-0.635,0.721-1.059,0.957s-0.91,0.355-1.461,0.355c-0.602,0-1.135-0.143-1.598-0.428s-0.816-0.676-1.061-1.17
				S83.18,31.037,83.18,30.42z"/>
			<path fill="#666666" d="M90.018,33.537v-8.578h1.043v3.357c0.535-0.777,1.246-1.166,2.133-1.166c0.676,0,1.209,0.209,1.6,0.629
				s0.586,1,0.586,1.738v4.02h-1.043V29.75c0-1.086-0.465-1.627-1.395-1.627c-0.539,0-0.988,0.18-1.346,0.543
				c-0.357,0.361-0.535,0.83-0.535,1.406v3.465H90.018z"/>
			<path fill="#666666" d="M96.768,30.432c0-0.965,0.277-1.754,0.834-2.365s1.303-0.916,2.236-0.916
				c0.926,0,1.668,0.305,2.227,0.916s0.838,1.4,0.838,2.365c0,0.949-0.279,1.729-0.838,2.338s-1.301,0.914-2.227,0.914
				c-0.621,0-1.166-0.143-1.635-0.426s-0.826-0.668-1.07-1.156S96.768,31.057,96.768,30.432z M97.875,30.432
				c0,0.668,0.176,1.221,0.527,1.658s0.83,0.656,1.436,0.656s1.082-0.219,1.432-0.656s0.525-0.99,0.525-1.658
				c0-0.68-0.174-1.238-0.521-1.676s-0.826-0.656-1.436-0.656s-1.09,0.219-1.439,0.656S97.875,29.752,97.875,30.432z"/>
			<path fill="#666666" d="M103.963,30.432c0-0.965,0.277-1.754,0.834-2.365s1.303-0.916,2.236-0.916
				c0.926,0,1.668,0.305,2.227,0.916s0.838,1.4,0.838,2.365c0,0.949-0.279,1.729-0.838,2.338s-1.301,0.914-2.227,0.914
				c-0.621,0-1.166-0.143-1.635-0.426s-0.826-0.668-1.07-1.156S103.963,31.057,103.963,30.432z M105.07,30.432
				c0,0.668,0.176,1.221,0.527,1.658s0.83,0.656,1.436,0.656s1.082-0.219,1.432-0.656s0.525-0.99,0.525-1.658
				c0-0.68-0.174-1.238-0.521-1.676s-0.826-0.656-1.436-0.656s-1.09,0.219-1.439,0.656S105.07,29.752,105.07,30.432z"/>
			<path fill="#666666" d="M111.604,33.537v-8.566h1.043v8.566H111.604z"/>
			<path fill="#666666" d="M117.375,30.432c0-0.965,0.277-1.754,0.834-2.365s1.303-0.916,2.236-0.916
				c0.926,0,1.668,0.305,2.227,0.916s0.838,1.4,0.838,2.365c0,0.949-0.279,1.729-0.838,2.338s-1.301,0.914-2.227,0.914
				c-0.621,0-1.166-0.143-1.635-0.426s-0.826-0.668-1.07-1.156S117.375,31.057,117.375,30.432z M118.482,30.432
				c0,0.668,0.176,1.221,0.527,1.658s0.83,0.656,1.436,0.656s1.082-0.219,1.432-0.656s0.525-0.99,0.525-1.658
				c0-0.68-0.174-1.238-0.521-1.676s-0.826-0.656-1.436-0.656s-1.09,0.219-1.439,0.656S118.482,29.752,118.482,30.432z"/>
			<path fill="#666666" d="M124.336,28.158v-0.861h1.072v-0.736c0-0.572,0.162-1.006,0.488-1.299
				c0.326-0.291,0.783-0.438,1.369-0.438c0.391,0,0.711,0.045,0.961,0.137l-0.146,0.871c-0.289-0.07-0.541-0.105-0.756-0.105
				c-0.297,0-0.518,0.063-0.66,0.188s-0.213,0.334-0.213,0.627v0.756h1.471v0.861h-1.471v5.379h-1.043v-5.379H124.336z"/>
			<path fill="#666666" d="M132.047,29.535c0-0.793,0.16-1.502,0.48-2.127c0.32-0.627,0.775-1.117,1.367-1.475
				s1.27-0.535,2.031-0.535c1.344,0,2.391,0.535,3.141,1.605l-0.885,0.609c-0.516-0.789-1.26-1.184-2.232-1.184
				c-0.828,0-1.49,0.281-1.984,0.846s-0.74,1.314-0.74,2.248c0,0.941,0.248,1.697,0.744,2.27s1.148,0.859,1.957,0.859
				c0.484,0,0.918-0.107,1.303-0.322s0.703-0.518,0.953-0.908l0.926,0.598c-0.352,0.529-0.797,0.938-1.336,1.229
				c-0.539,0.289-1.15,0.436-1.834,0.436c-0.766,0-1.445-0.178-2.039-0.535c-0.594-0.355-1.051-0.848-1.371-1.475
				C132.207,31.045,132.047,30.332,132.047,29.535z"/>
			<path fill="#666666" d="M139.969,31.789c0-0.234,0.031-0.445,0.094-0.635c0.063-0.188,0.152-0.346,0.27-0.473
				s0.242-0.236,0.375-0.328s0.287-0.168,0.465-0.227s0.336-0.1,0.477-0.121c0.139-0.021,0.295-0.045,0.467-0.072
				c0.084-0.014,0.199-0.031,0.346-0.055c0.148-0.023,0.266-0.041,0.352-0.055c0.088-0.014,0.195-0.031,0.324-0.051
				s0.238-0.045,0.326-0.072s0.18-0.063,0.271-0.105s0.16-0.092,0.209-0.145c0.047-0.053,0.088-0.117,0.123-0.195
				c0.033-0.078,0.051-0.166,0.051-0.266c0-0.168-0.043-0.313-0.127-0.436s-0.195-0.219-0.336-0.285s-0.289-0.115-0.447-0.146
				s-0.324-0.047-0.5-0.047c-0.711,0-1.359,0.221-1.947,0.662l-0.488-0.791c0.777-0.531,1.611-0.797,2.506-0.797
				c0.744,0,1.33,0.168,1.76,0.504c0.432,0.336,0.646,0.85,0.646,1.541v2.951c0,0.23,0.039,0.402,0.117,0.512
				s0.203,0.164,0.375,0.164c0.16,0,0.283-0.031,0.369-0.094l0.135,0.785c-0.195,0.078-0.436,0.117-0.721,0.117
				c-0.316,0-0.586-0.082-0.809-0.246c-0.225-0.162-0.357-0.41-0.4-0.744c-0.256,0.365-0.572,0.629-0.949,0.795
				c-0.377,0.164-0.775,0.248-1.195,0.248c-0.654,0-1.174-0.17-1.559-0.506C140.16,32.84,139.969,32.377,139.969,31.789z
				 M141.053,31.754c0,0.359,0.119,0.627,0.355,0.805c0.238,0.176,0.551,0.264,0.936,0.264c0.238,0,0.463-0.033,0.67-0.1
				c0.209-0.066,0.398-0.164,0.57-0.293c0.172-0.131,0.307-0.307,0.406-0.529s0.15-0.477,0.15-0.762v-1.08
				c-0.131,0.121-0.27,0.223-0.418,0.303c-0.146,0.082-0.328,0.148-0.541,0.199s-0.287,0.072-0.223,0.061
				c0.064-0.01-0.012,0.002-0.229,0.037c-0.219,0.037-0.352,0.059-0.398,0.066c-0.277,0.053-0.467,0.088-0.566,0.105
				s-0.213,0.064-0.338,0.141c-0.127,0.074-0.221,0.178-0.283,0.309C141.084,31.41,141.053,31.568,141.053,31.754z"/>
			<path fill="#666666" d="M147.252,33.537v-6.24h1.043v1.02c0.535-0.777,1.246-1.166,2.133-1.166c0.676,0,1.209,0.209,1.6,0.629
				s0.586,1,0.586,1.738v4.02h-1.043V29.75c0-1.086-0.465-1.627-1.395-1.627c-0.539,0-0.988,0.18-1.346,0.543
				c-0.357,0.361-0.535,0.83-0.535,1.406v3.465H147.252z"/>
			<path fill="#666666" d="M153.932,31.789c0-0.234,0.031-0.445,0.094-0.635c0.063-0.188,0.152-0.346,0.27-0.473
				s0.242-0.236,0.375-0.328s0.287-0.168,0.465-0.227s0.336-0.1,0.477-0.121c0.139-0.021,0.295-0.045,0.467-0.072
				c0.084-0.014,0.199-0.031,0.346-0.055c0.148-0.023,0.266-0.041,0.352-0.055c0.088-0.014,0.195-0.031,0.324-0.051
				s0.238-0.045,0.326-0.072s0.18-0.063,0.271-0.105s0.16-0.092,0.209-0.145c0.047-0.053,0.088-0.117,0.123-0.195
				c0.033-0.078,0.051-0.166,0.051-0.266c0-0.168-0.043-0.313-0.127-0.436s-0.195-0.219-0.336-0.285s-0.289-0.115-0.447-0.146
				s-0.324-0.047-0.5-0.047c-0.711,0-1.359,0.221-1.947,0.662l-0.488-0.791c0.777-0.531,1.611-0.797,2.506-0.797
				c0.744,0,1.33,0.168,1.76,0.504c0.432,0.336,0.646,0.85,0.646,1.541v2.951c0,0.23,0.039,0.402,0.117,0.512
				s0.203,0.164,0.375,0.164c0.16,0,0.283-0.031,0.369-0.094l0.135,0.785c-0.195,0.078-0.436,0.117-0.721,0.117
				c-0.316,0-0.586-0.082-0.809-0.246c-0.225-0.162-0.357-0.41-0.4-0.744c-0.256,0.365-0.572,0.629-0.949,0.795
				c-0.377,0.164-0.775,0.248-1.195,0.248c-0.654,0-1.174-0.17-1.559-0.506C154.123,32.84,153.932,32.377,153.932,31.789z
				 M155.016,31.754c0,0.359,0.119,0.627,0.355,0.805c0.238,0.176,0.551,0.264,0.936,0.264c0.238,0,0.463-0.033,0.67-0.1
				c0.209-0.066,0.398-0.164,0.57-0.293c0.172-0.131,0.307-0.307,0.406-0.529s0.15-0.477,0.15-0.762v-1.08
				c-0.131,0.121-0.27,0.223-0.418,0.303c-0.146,0.082-0.328,0.148-0.541,0.199s-0.287,0.072-0.223,0.061
				c0.064-0.01-0.012,0.002-0.229,0.037c-0.219,0.037-0.352,0.059-0.398,0.066c-0.277,0.053-0.467,0.088-0.566,0.105
				s-0.213,0.064-0.338,0.141c-0.127,0.074-0.221,0.178-0.283,0.309C155.047,31.41,155.016,31.568,155.016,31.754z"/>
			<path fill="#666666" d="M160.816,30.438c0-0.623,0.113-1.182,0.342-1.676c0.229-0.496,0.563-0.889,1.002-1.178
				s0.949-0.434,1.527-0.434c0.93,0,1.67,0.393,2.221,1.178v-3.357h1.043v8.566h-1.043v-1.01c-0.543,0.771-1.283,1.156-2.221,1.156
				c-0.578,0-1.088-0.145-1.527-0.43c-0.439-0.287-0.773-0.676-1.002-1.164C160.93,31.6,160.816,31.049,160.816,30.438z
				 M162.135,29.262c-0.141,0.342-0.211,0.729-0.211,1.164c0,0.434,0.068,0.822,0.207,1.162c0.139,0.342,0.357,0.617,0.656,0.828
				c0.299,0.213,0.662,0.318,1.088,0.318c0.641,0,1.139-0.219,1.496-0.656c0.357-0.436,0.537-0.986,0.537-1.652
				c0-0.67-0.18-1.221-0.539-1.654c-0.359-0.432-0.857-0.648-1.494-0.648c-0.422,0-0.783,0.104-1.082,0.314
				C162.494,28.646,162.275,28.922,162.135,29.262z"/>
			<path fill="#666666" d="M168.34,31.789c0-0.234,0.031-0.445,0.094-0.635c0.063-0.188,0.152-0.346,0.27-0.473
				s0.242-0.236,0.375-0.328s0.287-0.168,0.465-0.227s0.336-0.1,0.477-0.121c0.139-0.021,0.295-0.045,0.467-0.072
				c0.084-0.014,0.199-0.031,0.346-0.055c0.148-0.023,0.266-0.041,0.352-0.055c0.088-0.014,0.195-0.031,0.324-0.051
				s0.238-0.045,0.326-0.072s0.18-0.063,0.271-0.105s0.16-0.092,0.209-0.145c0.047-0.053,0.088-0.117,0.123-0.195
				c0.033-0.078,0.051-0.166,0.051-0.266c0-0.168-0.043-0.313-0.127-0.436s-0.195-0.219-0.336-0.285s-0.289-0.115-0.447-0.146
				s-0.324-0.047-0.5-0.047c-0.711,0-1.359,0.221-1.947,0.662l-0.488-0.791c0.777-0.531,1.611-0.797,2.506-0.797
				c0.744,0,1.33,0.168,1.76,0.504c0.432,0.336,0.646,0.85,0.646,1.541v2.951c0,0.23,0.039,0.402,0.117,0.512
				s0.203,0.164,0.375,0.164c0.16,0,0.283-0.031,0.369-0.094l0.135,0.785c-0.195,0.078-0.436,0.117-0.721,0.117
				c-0.316,0-0.586-0.082-0.809-0.246c-0.225-0.162-0.357-0.41-0.4-0.744c-0.256,0.365-0.572,0.629-0.949,0.795
				c-0.377,0.164-0.775,0.248-1.195,0.248c-0.654,0-1.174-0.17-1.559-0.506C168.531,32.84,168.34,32.377,168.34,31.789z
				 M169.424,31.754c0,0.359,0.119,0.627,0.355,0.805c0.238,0.176,0.551,0.264,0.936,0.264c0.238,0,0.463-0.033,0.67-0.1
				c0.209-0.066,0.398-0.164,0.57-0.293c0.172-0.131,0.307-0.307,0.406-0.529s0.15-0.477,0.15-0.762v-1.08
				c-0.131,0.121-0.27,0.223-0.418,0.303c-0.146,0.082-0.328,0.148-0.541,0.199s-0.287,0.072-0.223,0.061
				c0.064-0.01-0.012,0.002-0.229,0.037c-0.219,0.037-0.352,0.059-0.398,0.066c-0.277,0.053-0.467,0.088-0.566,0.105
				s-0.213,0.064-0.338,0.141c-0.127,0.074-0.221,0.178-0.283,0.309C169.455,31.41,169.424,31.568,169.424,31.754z"/>
		</g>
		<g>
			<path d="M31.745,21.383v-26.64h20.332v5.723H38.112v4.512H50.28v5.078H38.112v5.605h14.355v5.723H31.745z"/>
			<path d="M54.803,15.13l5-2.663c1.601,2.754,4.146,4.13,7.636,4.13c1.403,0,2.527-0.244,3.371-0.734
				c0.846-0.49,1.268-1.154,1.268-1.992c0-1.031-0.617-1.792-1.854-2.281c-0.651-0.245-1.967-0.541-3.948-0.889
				c-1.188-0.286-2.236-0.533-3.146-0.742c-0.91-0.21-1.817-0.535-2.722-0.977c-0.905-0.442-1.647-0.949-2.227-1.523
				c-0.58-0.573-1.048-1.295-1.406-2.165c-0.358-0.87-0.537-1.859-0.537-2.967c0-2.484,0.942-4.452,2.825-5.9
				c1.884-1.448,4.383-2.173,7.499-2.173c2.286,0,4.416,0.426,6.389,1.275c1.975,0.851,3.593,2.196,4.853,4.038L73.07,2.523
				c-0.767-1.083-1.731-1.885-2.895-2.407c-1.162-0.522-2.406-0.783-3.731-0.783c-1.169,0-2.102,0.216-2.797,0.646
				C62.952,0.411,62.604,1.05,62.604,1.9c0,0.305,0.054,0.583,0.163,0.835c0.108,0.253,0.277,0.468,0.507,0.647
				c0.229,0.179,0.474,0.335,0.733,0.468s0.608,0.247,1.045,0.345c0.438,0.097,0.84,0.187,1.207,0.268s0.82,0.182,1.361,0.302
				c0.142,0.032,0.251,0.057,0.328,0.073c1.017,0.226,1.934,0.429,2.751,0.61s1.637,0.424,2.459,0.726
				c0.822,0.303,1.53,0.656,2.124,1.062c0.595,0.405,1.13,0.875,1.606,1.409s0.836,1.164,1.076,1.891
				c0.242,0.728,0.363,1.535,0.363,2.423c0,2.611-0.99,4.75-2.972,6.416c-1.98,1.666-4.711,2.498-8.191,2.498
				c-2.877,0-5.39-0.59-7.538-1.773S55.871,17.26,54.803,15.13z"/>
			<path d="M80.945,8.023c0-4.101,1.232-7.421,3.701-9.96c2.467-2.539,5.674-3.809,9.619-3.809c2.473,0,4.713,0.53,6.719,1.591
				c2.004,1.061,3.672,2.716,5,4.965l-5.039,2.965c-1.551-2.728-3.725-4.091-6.523-4.091c-2.123,0-3.813,0.777-5.068,2.332
				c-1.258,1.555-1.885,3.544-1.885,5.968c0,2.464,0.627,4.489,1.885,6.077c1.256,1.587,2.945,2.38,5.068,2.38
				c1.457,0,2.697-0.367,3.721-1.106c1.021-0.738,1.93-1.852,2.725-3.34l5.273,2.786c-1.238,2.267-2.85,4.015-4.834,5.246
				c-1.986,1.229-4.32,1.844-7.002,1.844c-3.973,0-7.191-1.275-9.658-3.828C82.178,15.492,80.945,12.151,80.945,8.023z"/>
		</g>
	</g>
</g>
</svg>
