<?xml version="1.0" encoding="utf-8"?>
<!-- Generator: Adobe Illustrator 19.0.0, SVG Export Plug-In . SVG Version: 6.00 Build 0)  -->
<svg version="1.1" id="Layer_1" xmlns="http://www.w3.org/2000/svg" xmlns:xlink="http://www.w3.org/1999/xlink" x="0px" y="0px"
	 width="100.8px" height="97.9px" viewBox="0 0 100.8 97.9" style="enable-background:new 0 0 100.8 97.9;" xml:space="preserve">
<style type="text/css">
	.st0{fill:#C42126;}
	.st1{fill:#040607;}
</style>
<g id="XMLID_45_">
	<path id="XMLID_4_" class="st0" d="M98.4,49c-1.7-2.1-3.4-4.2-5.1-6.4c-0.8,0.5-4.1-2.8-5.1-3.5c0.1,0-0.1,0.1-0.3,0.3
		c0.1-0.1,0.2-0.2,0.3-0.3c-0.5-0.9-1.4-1.5-1.7-2.5c-2.8-1.4-1.5-4.2-2.6-5.6c-2.3-3.9-5-7.5-8.3-10.6c-1-0.9-2.1-1.8-3.4-2.1
		c-2.3-0.6-3.8,0.7-5.1,2.3c-0.9,1.1-1.9,2.1-3,3c-1,0.8-1.9,1.1-2.6-0.4c-0.6-0.2-6.4-7.9-6.6-9.5c-0.4,0.2-1,0.3-1.6,0.3
		c0.5-0.2,1-0.3,1.6-0.3c-2.8-3.9-6-7.5-9.3-11c-0.5-0.5-1-0.6-1.7-0.6c-2.4,0.1-4.6-0.4-6.4-1.9c-0.5-0.4-0.8-0.3-1.2,0.1
		c-2.2,2.2-4.4,4.3-6.6,6.4c-0.1,2,0.9,6.6-1.5,5.8c-0.7,0.5-1.1,1.4-2.1,1.6c0.1,0.3,0.1,0.5,0.2,0.8c-2.1,1-5,3.6-5.8,0.9
		c-4.2,2.2-7.8,5-10.4,9c-1.7,2.6-2,5.3-0.3,8.1c0.8,1.3,1.7,2.3,2.9,3.3c2.8,2.4,5.5,4.8,6.7,8.4c0.3,1,0.2,1.3-0.8,1.5
		c-4.9,1.1-9.5,2.8-13.9,5.1c-0.8,0.4-1.2,0.9-1.4,1.7c-0.5,2.3-1.2,4.4-3,6c-0.4,0.3-0.4,0.6-0.1,1c2.4,2.8,4.2,6,6.9,8.6
		c2.1,1.7,2.2,2.8,4.9,3.4c0.3,2.4,1.3,4.5,2.4,6.6c1.6,2.1,2,3.1,3.6,5c0,0-0.1,0.1-0.1,0.1c0.6,0.8,1.3,1.6,1.9,2.3
		c0,0.2,4.7,4.7,4.9,5c0.4,0.6,0.9,1,1.5,1.3c0.5,0.4,1.1,0.4,1.6-0.1c0.9-1.1,2-1.1,3.3-0.7c1.8,0.5,3.5,0.4,4.7-1.3
		c1.1-1.7,2.7-2.8,4.4-3.6c1.7-0.8,3.4-1.8,4.6-3.3c0.9-1.2,1.9-1.4,3.3-1.1c1.5,0.3,2-0.1,2.3-1.6c0.3-1.4,0-2.8,0-4.2
		c0.5-1,0.1-1.6,0.6-3c1.5-1.6,1.4-1.6-0.1-3.1c-0.9-0.9-2.3-1.7-1.8-3.5c1.2,0.9,2.3,1.7,3.4,2.6c0.7,0.6,1.2,0.6,1.9-0.3
		c0.9-1.3,1.9-2.6,3.2-3.5c1.8-0.7,5.5-2.3,5.5-2.3c0.9-1.5,2.1-1.4,3.5-0.9c2.6,0.8,5.3,1.1,8,1c0.8-0.2,1.6-0.2,2.3-0.2
		c0,0.2,0,0.3-0.1,0.3c2,0.2,4,0.3,5.9,0.6c0.5,0.1,0.9-0.2,1.3-0.3c-1.3,0-1.9-0.7-2.1-1.9c-0.1-0.8-0.3-1.5-0.5-2.2
		c0.2-0.1,0.5-0.3,0.9-0.5c0,0.1-0.1,0.2-0.3,0.3c-0.1,1.8,0.7,3.2,2,4.4c0,0,0,0,0,0c0,0,0,0,0,0l0,0c1.6,0.5,3.3,1,5.3,1.3
		c-0.8-0.8-1.7-1-2.3-1.4c-0.3-0.2-0.8-0.3-0.4-0.7c0.6-0.7,0.3-1.6,0.3-2.4c0-0.8,0-1.5,0.3-2.3c0.5-1,1.3-1.2,2.3-1.2
		c0.9,0,1.6,0.5,1.8,1.2c0.4,0.9-0.7,1.1-1.2,1.5c-1.4,1.4-1.8,2.8-1.1,4.4c0.6-1.6,1.7-2.7,3-3.7c1.9-1.4,3.7-2.8,5.5-4.2
		c0.8-0.6,1.1-1.1,0.8-2.2c-0.4-1.3-0.7-2.7,0.2-3.9C99.1,49.6,98.7,49.3,98.4,49z M19.4,48.7c-0.1-0.3-0.4-0.8,0.2-1
		c0.4-0.2,1-0.3,1.3,0.2c0.5,0.7,1,1.5,1.7,2.5C21.1,50,19.7,50.5,19.4,48.7z M33.9,31c-2.2-0.6-4.5,0.2-5-2.6
		c-0.1-0.5-0.6-1.2,0.3-1.5c0.7-0.2,1.5-0.5,2,0.3C32,28.3,32.8,29.5,33.9,31z"/>
	<path id="XMLID_50_" class="st1" d="M14.4,78.7c2.9-0.5,5.6-1.4,8.6-1.3c4.1,0.1,5.7,2.3,4.4,6.2c-0.1,0.2-0.2,0.4,0.1,0.7
		c1.9-0.9,3.7-2.1,5.4-3.4c2.9-2.1,5.7-4.4,8.7-6.3c2-1.2,4.2-2.1,6.6-2.1c1,0,1.9,0.2,2.7,0.9c0.4,1.1,1,2.3-0.6,3
		c-0.3-1.9-0.6-2-2.4-1.5c-0.8,0.2-1.6,0.6-2.4,1.1c-2.5,1.4-4.5,3.6-6.5,5.5c-4.2,4-8.5,7.9-14.2,9.7c-0.4,0-0.9,0-1.3,0
		c-2.9,0.4-4.5-1.3-3.9-4.2c0.1-0.3,0.2-0.6,0.3-0.8c0.2-1,1.5-1.9,1-2.7c-0.5-0.7-1.8,0.2-2.7,0.2c0,0-0.1,0.1-0.1,0.1
		c-3.3,0.7-6.5,1.8-9.6,2.9c-4.4,1.7-8.2-1.1-7.6-5.5c0.1-0.5,0.2-1,0.4-1.6c0.9-3.1,2.6-5.7,4.3-8.4c0.6-0.8,1.1-1.7,1.7-2.5
		c2.1-2.8,4.5-5.4,6.2-8.4c0.6-1.1,0.7-1.9-0.3-3c-1.8-2.1-1.1-4.7,1.3-6c1.2-0.6,2.5-0.8,3.8-0.8c5.7,0,11.1,1.4,16.6,2.9
		c0.5,0.1,0.9,0.5,1.5,0.2c-0.2-0.6-0.7-0.7-1-0.9c-4.2-2.9-8.4-5.7-12.6-8.6c-2.7-1.9-5.3-3.8-7.2-6.5c-1.3-1.7-1.7-3.6-0.7-5.6
		c0.9-1.7,2.6-2.2,4.4-2.3c0.9,0,1.7-0.1,2.6-0.2c0.9,0,1.2-0.5,1.1-1.3c-0.4-4.2-1-8.4-2.1-12.5c-0.2-1.6-1.1-3.1-1.5-4.7
		c-0.9-3.9,1.1-6.4,5-6.1c1.7,0.1,3.2,0.8,4.7,1.4c0.3,0.1,0.6,0.2,0.9,0.3c4.2,2.1,8.4,4.3,12.7,6.4c2.3,1.2,4.6,2.4,7.2,3.1
		c0.6,0.1,1,0.3,1.4-0.3c0.9-1.5,2.3-2.1,4-2.3c2.9,1,4.1,3.3,5.1,5.9c0.5,1.2,1,2.4,1.4,3.6c1.5,5.8,3,11.7,3.8,17.7
		c0.8-1.5,1.6-3,2.2-4.6c0.7-1.7,1.2-3.4,2-5c1.1-2,3.3-2.6,5.2-1.3c0.8,0.6,1.3,1.4,1.6,2.4c0.2,0.5,0.3,0.8,0.9,0.5
		c2.1-0.9,4.4-1.2,6.6-1.9c3.6-0.5,7.2-1.3,10.8-1.1c0.4,0,0.9,0,1.3,0c1.9,0.3,3.6,0.9,4.4,2.9c0.8,2.1-0.3,3.6-1.6,4.9
		c-1.8,1.7-3.7,3.3-5.6,4.9c-0.8,0.5-1.7,1-2.3,2c0.4,0,0.6,0.1,0.8,0.1c1.8,0.3,3.6,0.7,4.4,2.6c0.9,2,0,3.7-1.3,5.2
		c-1.6,2-3.9,3-6.2,4c-2.3,1-4.5,1.9-6.8,2.8c-0.2,0.1-0.4,0.2-0.6,0.3c-1.5,0.7-3.3,1.2-3.9,3.1c-0.1,0.3-0.5,0.6-0.8,0.8
		c-0.3,0-0.7,0.1-1,0.1c0,0-0.1,0-0.1,0c-0.4-0.1-0.8-0.1-1.2-0.2c-2.4-1.9-1.6-4.4,0.1-6.2c2.1-2.3,5-3.2,7.8-4.3
		c2-0.8,4-1.4,6.1-2.6c-1-0.4-1.8-0.6-2.6-1c-2.3-1.1-3-3.1-1.9-5.4c0.9-2,2.7-3.3,4.2-4.7c1.5-1.1,2.9-2.2,4.4-3.3
		c-0.1-0.1-0.1-0.2-0.2-0.3c-1.9,0.5-4,0.2-5.9,1.1c-2.7,0.2-5.2,1.1-7.7,1.9c-0.9,0.3-1.8,0.8-2.8,0.8c-1.6,0-2.4-0.5-4-2.6
		c-1.4,2.6-3,5-4.9,7.2c-0.9,1-1.8,2-3.1,2.6c-1.1,0.5-2,0.3-2.8-0.6c-1.6-1.7-1.7-3.8-2-5.9c-0.8-5.9-2.1-11.8-4.1-17.4
		c-0.4-1-0.8-1.3-1.8-0.8c-1.7,0.9-3.4,0.5-5.1,0.1c-4.8-1.3-9-3.9-13.4-6c-2.2-1.1-4.3-2.5-6.7-3.2c-0.9-0.7-1.9-1.1-3.2-1.4
		c0.4,1.1,0.8,2.1,1.1,3c1,4.6,1.9,9.1,2.2,13.8c0.4,5.3-3.1,7.5-7,7.5c-0.2,0-0.4,0.1-0.8,0.1c1.4,1.6,2.8,2.9,4.2,4.2
		c5.5,4.8,11.5,9.1,16.6,14.4c1.3,1.4,2.4,2.9,3.2,4.7c0.7,1.5,0.1,2.4-1.5,2.9c-2.3,0.6-4.1-0.6-6-1.4c-5.2-2-10.5-3.2-15.9-4
		c-1.2-0.2-1.8,0-1.5,1.6c0.4,2.4-0.9,4.4-2.1,6.4c-1.3,2.2-3,4.2-4.6,6.2c-0.4,0.5-0.8,1-1,1.6c-2.4,2.6-4.1,5.6-5.5,9.2
		C9.3,80.4,11.9,79.5,14.4,78.7z"/>
	<path id="XMLID_49_" class="st1" d="M57.5,65.6c-1.4-5.6-3.6-10.9-6.2-16c-4.4-8.8-9.5-17.2-15-25.3c-0.9-1.4-2.1-2.7-2.8-4.2
		c-0.2-0.5-0.9-1.1-0.3-1.5c0.5-0.4,1.1,0.2,1.5,0.5c2.1,1.5,4,3.2,5.8,5.1c8,8.1,13.9,17.6,18.2,28c1.5,3.7,2.8,7.4,4.2,11.2
		c0.7,2.6,1.3,5.2,2,7.7c1.9,7.7,3,15.5,3.6,23.4c0.1,1.6-1.2,3.3-2.5,3.4c-1.3,0.1-3-1.5-3.1-2.9c-0.5-5.6-1.1-11.1-2.2-16.6
		C59.9,74.1,59,69.7,57.5,65.6z"/>
	<path id="XMLID_1_" class="st0" d="M29.8,6.8"/>
	<path id="XMLID_3_" class="st0" d="M63.2,62.5"/>
</g>
</svg>
