<?xml version="1.0" encoding="utf-8"?>
<!-- Generator: Adobe Illustrator 19.0.0, SVG Export Plug-In . SVG Version: 6.00 Build 0)  -->
<svg version="1.1" id="Layer_1" xmlns="http://www.w3.org/2000/svg" xmlns:xlink="http://www.w3.org/1999/xlink" x="0px" y="0px"
	 width="300px" height="142px" viewBox="0 0 300 142" style="enable-background:new 0 0 300 142;" xml:space="preserve">
<style type="text/css">
	.st0{fill:#C42126;}
	.st1{fill:#040607;}
</style>
<g id="XMLID_2_">
	<path id="XMLID_4_" class="st0" d="M114,58.3c-1.9-2.4-3.7-4.7-5.6-7.1c-0.9,0.6-4.5-3.1-5.6-3.9c0.1,0-0.1,0.1-0.3,0.4
		c0.1-0.1,0.2-0.2,0.3-0.4c-0.5-1-1.6-1.6-1.9-2.8c-3.1-1.5-1.7-4.6-2.9-6.2c-2.5-4.3-5.5-8.3-9.2-11.7c-1.1-1-2.3-2-3.8-2.4
		c-2.5-0.6-4.2,0.8-5.7,2.5c-1,1.2-2.1,2.3-3.3,3.3c-1.2,0.9-2.1,1.2-2.9-0.4c-0.7-0.2-7.1-8.7-7.3-10.5c-0.5,0.3-1.1,0.3-1.7,0.3
		c0.5-0.2,1.1-0.3,1.7-0.3c-3.1-4.3-6.7-8.3-10.3-12.2c-0.5-0.6-1.2-0.7-1.9-0.7c-2.6,0.1-5-0.4-7.1-2.1C46,3.8,45.7,4,45.2,4.4
		c-2.4,2.4-4.8,4.7-7.3,7.1c-0.2,2.2,1,7.3-1.7,6.4c-0.8,0.5-1.2,1.5-2.3,1.8c0.1,0.3,0.1,0.6,0.2,0.9c-2.3,1.1-5.6,4-6.4,1
		c-4.6,2.5-8.7,5.6-11.6,10c-1.9,2.9-2.2,5.9-0.4,8.9c0.8,1.4,1.9,2.6,3.2,3.6c3.1,2.6,6.1,5.3,7.4,9.3c0.4,1.1,0.3,1.4-0.9,1.7
		c-5.4,1.2-10.5,3.1-15.4,5.7c-0.8,0.4-1.3,1-1.5,1.9c-0.5,2.5-1.3,4.9-3.3,6.6c-0.4,0.3-0.4,0.7-0.1,1.1c2.7,3.1,4.7,6.7,7.6,9.6
		c2.3,1.9,2.4,3.1,5.4,3.8c0.4,2.6,1.4,5,2.7,7.3c1.8,2.3,2.2,3.4,4,5.6c0,0-0.1,0.1-0.1,0.1c0.7,0.9,1.4,1.7,2.1,2.6
		c0,0.2,5.2,5.2,5.4,5.5c0.4,0.7,1,1.1,1.7,1.5c0.6,0.4,1.2,0.5,1.7-0.2c1-1.2,2.2-1.3,3.6-0.8c2,0.6,3.9,0.4,5.2-1.5
		c1.2-1.9,3-3.1,4.9-4c1.9-0.9,3.7-2,5-3.6c1-1.3,2.1-1.6,3.6-1.3c1.6,0.4,2.2-0.1,2.5-1.8c0.3-1.6,0-3.1,0-4.7
		c0.5-1.1,0.1-1.8,0.7-3.3c1.7-1.8,1.6-1.8-0.1-3.5c-1-1-2.6-1.9-2-3.9c1.3,1,2.5,1.9,3.7,2.9c0.8,0.7,1.3,0.7,2.1-0.3
		c1-1.4,2.1-2.9,3.6-3.9c2-0.7,6.1-2.5,6.1-2.5c1-1.6,2.3-1.5,3.9-1c2.9,0.9,5.9,1.2,8.9,1.1c0.9-0.3,1.7-0.2,2.6-0.2
		c0,0.2,0,0.3-0.1,0.4c2.2,0.2,4.4,0.4,6.6,0.6c0.6,0.1,1-0.2,1.4-0.4c-1.4,0-2.2-0.8-2.3-2.1c-0.1-0.9-0.4-1.7-0.6-2.5
		c0.3-0.1,0.6-0.3,0.9-0.6c0,0.1-0.1,0.2-0.3,0.3c-0.1,2,0.7,3.6,2.2,4.8c0,0,0,0,0,0c0,0,0,0,0,0l0,0c1.8,0.6,3.6,1.1,5.9,1.4
		c-0.9-0.9-1.8-1.1-2.6-1.6c-0.3-0.2-0.9-0.3-0.5-0.8c0.7-0.8,0.3-1.7,0.4-2.6c0-0.9,0-1.7,0.4-2.5c0.5-1.1,1.5-1.3,2.5-1.4
		c1,0,1.7,0.6,2,1.3c0.4,1-0.8,1.2-1.3,1.7c-1.5,1.6-2,3.1-1.2,4.8c0.7-1.8,1.9-3,3.3-4.1c2.1-1.5,4.1-3.1,6.1-4.7
		c0.8-0.6,1.3-1.2,0.9-2.4c-0.4-1.4-0.8-2.9,0.2-4.3C114.7,58.9,114.2,58.6,114,58.3z M26.5,57.9c-0.1-0.4-0.4-0.8,0.2-1.1
		c0.5-0.2,1.1-0.3,1.5,0.2c0.6,0.8,1.1,1.6,1.9,2.7C28.4,59.4,26.8,59.9,26.5,57.9z M42.5,38.4c-2.5-0.6-5,0.2-5.5-2.9
		c-0.1-0.6-0.7-1.3,0.3-1.6c0.8-0.3,1.6-0.5,2.2,0.3C40.5,35.4,41.3,36.6,42.5,38.4z"/>
	<path id="XMLID_50_" class="st1" d="M20.9,91.1c3.2-0.6,6.3-1.5,9.5-1.4c4.6,0.1,6.3,2.5,4.8,6.9c-0.1,0.2-0.2,0.4,0.1,0.7
		c2.1-1,4.1-2.3,6-3.8c3.2-2.4,6.3-4.9,9.7-7c2.2-1.4,4.6-2.3,7.3-2.3c1.1,0,2.1,0.2,3,1c0.4,1.2,1.1,2.6-0.7,3.3
		C60.2,86.5,60,86.4,58,87c-0.9,0.3-1.8,0.7-2.6,1.2c-2.8,1.6-5,3.9-7.2,6.1c-4.7,4.4-9.4,8.7-15.8,10.8c-0.5,0-1,0-1.4,0.1
		c-3.2,0.4-5-1.5-4.3-4.7c0.1-0.3,0.2-0.6,0.3-0.9c0.2-1.1,1.7-2.1,1.1-3c-0.6-0.8-2,0.3-3,0.2c0,0-0.1,0.1-0.1,0.1
		c-3.6,0.8-7.1,1.9-10.6,3.2c-4.9,1.8-9.1-1.2-8.4-6.1c0.1-0.6,0.2-1.2,0.4-1.7c0.9-3.4,2.8-6.3,4.8-9.3c0.6-0.9,1.2-1.9,1.9-2.8
		c2.3-3.1,5-5.9,6.9-9.3c0.7-1.2,0.7-2.1-0.3-3.3c-2-2.3-1.3-5.2,1.4-6.6c1.3-0.7,2.8-0.9,4.2-0.9c6.3,0,12.3,1.5,18.4,3.2
		c0.5,0.1,1,0.5,1.6,0.3c-0.3-0.6-0.7-0.8-1.1-1c-4.7-3.2-9.3-6.3-14-9.5c-3-2.1-5.9-4.2-8-7.2c-1.4-1.9-1.9-4-0.7-6.2
		c1-1.9,2.8-2.5,4.9-2.5c1,0,1.9-0.1,2.9-0.2c1,0,1.3-0.6,1.2-1.5c-0.4-4.7-1.1-9.3-2.3-13.8c-0.3-1.8-1.2-3.4-1.6-5.2
		c-1-4.3,1.3-7.1,5.5-6.8c1.8,0.1,3.5,0.9,5.2,1.5c0.3,0.1,0.7,0.3,1.1,0.4c4.7,2.4,9.3,4.8,14,7.1c2.6,1.3,5.1,2.7,8,3.4
		c0.6,0.2,1.1,0.3,1.5-0.3c1-1.7,2.5-2.4,4.4-2.5c3.2,1.1,4.5,3.7,5.7,6.5c0.6,1.3,1.1,2.7,1.6,4c1.7,6.5,3.3,12.9,4.2,19.6
		c0.9-1.7,1.7-3.4,2.4-5.1c0.7-1.8,1.3-3.8,2.3-5.5c1.3-2.2,3.7-2.8,5.8-1.4c0.9,0.6,1.4,1.6,1.8,2.6c0.2,0.5,0.4,0.9,1,0.6
		c2.3-1,4.9-1.4,7.3-2.1c4-0.6,7.9-1.5,12-1.3c0.5,0,1,0,1.4,0.1c2.1,0.3,4,1,4.9,3.2c0.9,2.3-0.3,4-1.8,5.5c-2,1.9-4.1,3.6-6.2,5.4
		c-0.9,0.6-1.9,1.1-2.5,2.2c0.4,0.1,0.7,0.1,0.9,0.1c2,0.4,4,0.8,4.9,2.9c0.9,2.2,0,4.1-1.4,5.8c-1.8,2.2-4.3,3.3-6.8,4.4
		c-2.5,1.1-5,2.1-7.5,3.1c-0.2,0.1-0.4,0.2-0.7,0.3c-1.7,0.8-3.6,1.3-4.3,3.4c-0.1,0.4-0.6,0.6-0.9,0.9c-0.4,0-0.7,0.1-1.1,0.1
		c0,0-0.1,0-0.1,0c-0.4-0.1-0.9-0.1-1.3-0.2c-2.6-2.1-1.7-4.9,0.1-6.9c2.4-2.5,5.6-3.6,8.7-4.8c2.2-0.9,4.4-1.6,6.7-2.9
		c-1.1-0.4-2-0.7-2.9-1.1c-2.6-1.2-3.3-3.4-2.1-6c1-2.2,3-3.6,4.7-5.2c1.6-1.2,3.2-2.4,4.9-3.6c-0.1-0.1-0.2-0.3-0.2-0.4
		c-2.1,0.6-4.4,0.3-6.5,1.2c-3,0.2-5.8,1.2-8.6,2.1c-1,0.3-2,0.8-3.1,0.8c-1.8,0-2.7-0.6-4.5-2.9c-1.5,2.9-3.3,5.6-5.4,8
		c-1,1.1-2,2.2-3.4,2.9c-1.2,0.6-2.2,0.4-3.1-0.7c-1.8-1.9-1.9-4.3-2.2-6.6c-0.9-6.6-2.3-13-4.5-19.3c-0.4-1.1-0.9-1.4-1.9-0.9
		c-1.9,1-3.8,0.6-5.7,0.1c-5.3-1.4-10-4.3-14.8-6.7c-2.5-1.2-4.8-2.7-7.4-3.6c-0.9-0.8-2.1-1.2-3.5-1.5c0.5,1.3,0.9,2.3,1.2,3.3
		c1.1,5,2.1,10.1,2.4,15.3c0.4,5.8-3.4,8.3-7.8,8.3c-0.2,0-0.4,0.1-0.9,0.2c1.5,1.8,3.1,3.2,4.7,4.6c6.1,5.3,12.7,10.1,18.4,16
		c1.5,1.5,2.7,3.2,3.5,5.2c0.8,1.7,0.1,2.7-1.7,3.2c-2.5,0.7-4.5-0.7-6.6-1.5c-5.7-2.2-11.6-3.6-17.6-4.4c-1.4-0.2-1.9,0-1.7,1.7
		c0.4,2.6-1,4.9-2.3,7c-1.5,2.4-3.4,4.6-5.1,6.8c-0.4,0.5-0.9,1.1-1.1,1.8c-2.7,2.9-4.6,6.2-6.1,10.2C15.3,93,18.1,92.1,20.9,91.1z"
		/>
	<path id="XMLID_49_" class="st1" d="M68.6,76.6c-1.6-6.2-4-12-6.8-17.7c-4.9-9.7-10.5-19-16.6-28c-1.1-1.6-2.3-3-3.1-4.7
		c-0.3-0.5-1-1.2-0.3-1.7c0.6-0.5,1.2,0.2,1.7,0.6c2.4,1.6,4.4,3.6,6.4,5.6c8.8,9,15.3,19.5,20.2,31c1.7,4.1,3.1,8.2,4.7,12.4
		c0.7,2.9,1.5,5.7,2.2,8.6c2.1,8.5,3.3,17.2,4,25.9c0.1,1.7-1.3,3.7-2.8,3.8c-1.4,0.1-3.3-1.6-3.5-3.2c-0.5-6.2-1.3-12.3-2.4-18.4
		C71.3,86,70.3,81.2,68.6,76.6z"/>
	<path id="XMLID_1_" class="st0" d="M38,11.5"/>
	<path id="XMLID_3_" class="st0" d="M75,73.2"/>
</g>
<g id="XMLID_5_">
	<path id="XMLID_6_" d="M14.7,132.7v2H5v-14.1h9.5v2H7.2v4h6.3v1.9H7.2v4.3H14.7z"/>
	<path id="XMLID_8_" d="M19.2,124.7v10H17v-14.1h1.8l8.1,10.2v-10.2h2.3v14.1h-1.9L19.2,124.7z"/>
	<path id="XMLID_12_" d="M42.2,132.9c-1.2,1.2-2.6,1.9-4.1,1.9c-0.9,0-1.8-0.2-2.6-0.6c-0.8-0.4-1.5-0.9-2.1-1.6
		c-0.6-0.7-1.1-1.4-1.4-2.3c-0.3-0.9-0.5-1.8-0.5-2.8c0-1,0.2-1.9,0.5-2.7c0.3-0.9,0.8-1.6,1.4-2.3c0.6-0.7,1.3-1.2,2.1-1.5
		c0.8-0.4,1.7-0.6,2.7-0.6c1.4,0,2.5,0.3,3.4,0.8c0.9,0.6,1.6,1.3,2.1,2.2l-1.7,1.2c-0.4-0.8-0.9-1.3-1.6-1.7
		c-0.7-0.4-1.4-0.6-2.2-0.6c-0.7,0-1.3,0.1-1.8,0.4c-0.5,0.3-1,0.7-1.4,1.1c-0.4,0.5-0.7,1-0.9,1.6c-0.2,0.6-0.3,1.3-0.3,2
		c0,0.7,0.1,1.4,0.3,2c0.2,0.6,0.6,1.2,1,1.6s0.9,0.8,1.4,1.1c0.6,0.3,1.2,0.4,1.8,0.4c0.7,0,1.4-0.2,2.1-0.5
		c0.7-0.3,1.3-0.9,1.9-1.6v-1.5h-3v-1.7h4.8v7.2h-1.9V132.9z"/>
	<path id="XMLID_14_" d="M46.6,134.6v-14.1h2.2v12.2h7.6v2H46.6z"/>
	<path id="XMLID_16_" d="M58.3,134.6v-14.1h2.2v14.1H58.3z"/>
	<path id="XMLID_18_" d="M72.1,123.8c-0.1-0.1-0.3-0.3-0.6-0.5c-0.3-0.2-0.5-0.3-0.9-0.5c-0.3-0.1-0.7-0.3-1.1-0.4
		c-0.4-0.1-0.8-0.1-1.2-0.1c-0.9,0-1.6,0.2-2.1,0.5c-0.4,0.3-0.7,0.8-0.7,1.4c0,0.3,0.1,0.6,0.2,0.8c0.1,0.2,0.4,0.4,0.6,0.6
		c0.3,0.2,0.7,0.3,1.1,0.4s0.9,0.3,1.5,0.4c0.7,0.2,1.4,0.4,1.9,0.6c0.6,0.2,1.1,0.5,1.5,0.8c0.4,0.3,0.7,0.7,0.9,1.1
		c0.2,0.4,0.3,1,0.3,1.6c0,0.7-0.1,1.3-0.4,1.9c-0.3,0.5-0.6,0.9-1.1,1.3s-1,0.6-1.6,0.7c-0.6,0.2-1.3,0.2-2,0.2
		c-1.1,0-2.1-0.2-3.1-0.5c-1-0.3-1.9-0.8-2.7-1.4l1-1.9c0.2,0.2,0.4,0.4,0.7,0.6c0.3,0.2,0.7,0.4,1.1,0.6c0.4,0.2,0.9,0.3,1.4,0.5
		c0.5,0.1,1,0.2,1.6,0.2c0.9,0,1.6-0.2,2-0.5c0.5-0.3,0.7-0.8,0.7-1.4c0-0.4-0.1-0.7-0.3-0.9c-0.2-0.2-0.4-0.4-0.8-0.6
		c-0.3-0.2-0.7-0.3-1.2-0.5c-0.5-0.1-1-0.3-1.6-0.5c-0.7-0.2-1.3-0.4-1.8-0.6c-0.5-0.2-1-0.5-1.3-0.7c-0.3-0.3-0.6-0.6-0.8-1
		c-0.2-0.4-0.3-0.9-0.3-1.4c0-0.7,0.1-1.3,0.4-1.8c0.3-0.5,0.6-1,1.1-1.4c0.5-0.4,1-0.6,1.6-0.8c0.6-0.2,1.3-0.3,2-0.3
		c1,0,1.8,0.2,2.7,0.5c0.8,0.3,1.5,0.7,2.1,1.1L72.1,123.8z"/>
	<path id="XMLID_20_" d="M87.5,120.5v14.1h-2.3v-6.2h-7.1v6.2h-2.2v-14.1h2.2v5.9h7.1v-5.9H87.5z"/>
	<path id="XMLID_22_" d="M104,123.8c-0.1-0.1-0.3-0.3-0.6-0.5c-0.3-0.2-0.5-0.3-0.9-0.5c-0.3-0.1-0.7-0.3-1.1-0.4
		c-0.4-0.1-0.8-0.1-1.2-0.1c-0.9,0-1.6,0.2-2.1,0.5c-0.4,0.3-0.7,0.8-0.7,1.4c0,0.3,0.1,0.6,0.2,0.8c0.1,0.2,0.4,0.4,0.6,0.6
		c0.3,0.2,0.7,0.3,1.1,0.4s0.9,0.3,1.5,0.4c0.7,0.2,1.4,0.4,1.9,0.6c0.6,0.2,1.1,0.5,1.5,0.8c0.4,0.3,0.7,0.7,0.9,1.1
		c0.2,0.4,0.3,1,0.3,1.6c0,0.7-0.1,1.3-0.4,1.9c-0.3,0.5-0.6,0.9-1.1,1.3s-1,0.6-1.6,0.7c-0.6,0.2-1.3,0.2-2,0.2
		c-1.1,0-2.1-0.2-3.1-0.5c-1-0.3-1.9-0.8-2.7-1.4l1-1.9c0.2,0.2,0.4,0.4,0.7,0.6c0.3,0.2,0.7,0.4,1.1,0.6c0.4,0.2,0.9,0.3,1.4,0.5
		c0.5,0.1,1,0.2,1.6,0.2c0.9,0,1.6-0.2,2-0.5c0.5-0.3,0.7-0.8,0.7-1.4c0-0.4-0.1-0.7-0.3-0.9c-0.2-0.2-0.4-0.4-0.8-0.6
		c-0.3-0.2-0.7-0.3-1.2-0.5c-0.5-0.1-1-0.3-1.6-0.5c-0.7-0.2-1.3-0.4-1.8-0.6c-0.5-0.2-1-0.5-1.3-0.7c-0.3-0.3-0.6-0.6-0.8-1
		c-0.2-0.4-0.3-0.9-0.3-1.4c0-0.7,0.1-1.3,0.4-1.8c0.3-0.5,0.6-1,1.1-1.4c0.5-0.4,1-0.6,1.6-0.8c0.6-0.2,1.3-0.3,2-0.3
		c1,0,1.8,0.2,2.7,0.5c0.8,0.3,1.5,0.7,2.1,1.1L104,123.8z"/>
	<path id="XMLID_24_" d="M106.9,127.5c0-0.8,0.2-1.7,0.5-2.5c0.3-0.8,0.8-1.6,1.3-2.3c0.6-0.7,1.3-1.2,2.2-1.6
		c0.9-0.4,1.8-0.6,2.9-0.6c1.3,0,2.4,0.3,3.3,0.9c0.9,0.6,1.6,1.3,2.1,2.2l-1.8,1.2c-0.2-0.4-0.4-0.8-0.7-1.1
		c-0.3-0.3-0.6-0.5-0.9-0.7c-0.3-0.2-0.7-0.3-1-0.4c-0.4-0.1-0.7-0.1-1-0.1c-0.7,0-1.4,0.1-2,0.4c-0.6,0.3-1,0.7-1.4,1.2
		c-0.4,0.5-0.7,1-0.9,1.7c-0.2,0.6-0.3,1.2-0.3,1.8c0,0.7,0.1,1.3,0.3,2c0.2,0.6,0.5,1.2,0.9,1.7c0.4,0.5,0.9,0.9,1.4,1.1
		c0.6,0.3,1.2,0.4,1.8,0.4c0.3,0,0.7,0,1.1-0.1c0.4-0.1,0.7-0.2,1.1-0.4c0.3-0.2,0.7-0.4,0.9-0.7c0.3-0.3,0.5-0.6,0.7-1.1l1.9,1.1
		c-0.2,0.5-0.5,1-1,1.4c-0.4,0.4-0.9,0.7-1.4,1c-0.5,0.3-1.1,0.5-1.6,0.6c-0.6,0.1-1.1,0.2-1.7,0.2c-1,0-1.9-0.2-2.7-0.6
		c-0.8-0.4-1.5-1-2.1-1.7c-0.6-0.7-1.1-1.5-1.4-2.3C107,129.3,106.9,128.4,106.9,127.5z"/>
	<path id="XMLID_26_" d="M133,120.5v14.1h-2.3v-6.2h-7.1v6.2h-2.2v-14.1h2.2v5.9h7.1v-5.9H133z"/>
	<path id="XMLID_28_" d="M142.1,134.7c-1,0-1.9-0.2-2.8-0.6c-0.8-0.4-1.5-0.9-2.1-1.6c-0.6-0.7-1.1-1.4-1.4-2.3
		c-0.3-0.9-0.5-1.7-0.5-2.7c0-0.9,0.2-1.8,0.5-2.7c0.3-0.9,0.8-1.6,1.4-2.3c0.6-0.7,1.3-1.2,2.2-1.6c0.8-0.4,1.7-0.6,2.7-0.6
		c1,0,1.9,0.2,2.8,0.6s1.5,1,2.1,1.6c0.6,0.7,1,1.4,1.4,2.3c0.3,0.9,0.5,1.7,0.5,2.6c0,0.9-0.2,1.8-0.5,2.7
		c-0.3,0.9-0.8,1.6-1.4,2.3c-0.6,0.7-1.3,1.2-2.2,1.6C144,134.5,143.1,134.7,142.1,134.7z M137.6,127.6c0,0.7,0.1,1.3,0.3,1.9
		c0.2,0.6,0.5,1.2,0.9,1.7c0.4,0.5,0.9,0.9,1.4,1.1c0.6,0.3,1.2,0.4,1.9,0.4c0.7,0,1.4-0.2,1.9-0.4c0.6-0.3,1-0.7,1.4-1.2
		c0.4-0.5,0.7-1,0.9-1.7c0.2-0.6,0.3-1.2,0.3-1.9c0-0.7-0.1-1.3-0.3-1.9c-0.2-0.6-0.5-1.2-0.9-1.6s-0.9-0.8-1.4-1.1
		c-0.6-0.3-1.2-0.4-1.8-0.4c-0.7,0-1.4,0.1-1.9,0.4c-0.6,0.3-1,0.7-1.4,1.2c-0.4,0.5-0.7,1-0.9,1.6
		C137.7,126.3,137.6,126.9,137.6,127.6z"/>
	<path id="XMLID_31_" d="M157.1,134.7c-1,0-1.9-0.2-2.8-0.6c-0.8-0.4-1.5-0.9-2.1-1.6c-0.6-0.7-1.1-1.4-1.4-2.3
		c-0.3-0.9-0.5-1.7-0.5-2.7c0-0.9,0.2-1.8,0.5-2.7c0.3-0.9,0.8-1.6,1.4-2.3c0.6-0.7,1.3-1.2,2.2-1.6c0.8-0.4,1.7-0.6,2.7-0.6
		c1,0,1.9,0.2,2.8,0.6s1.5,1,2.1,1.6c0.6,0.7,1,1.4,1.4,2.3c0.3,0.9,0.5,1.7,0.5,2.6c0,0.9-0.2,1.8-0.5,2.7
		c-0.3,0.9-0.8,1.6-1.4,2.3c-0.6,0.7-1.3,1.2-2.2,1.6C158.9,134.5,158,134.7,157.1,134.7z M152.6,127.6c0,0.7,0.1,1.3,0.3,1.9
		c0.2,0.6,0.5,1.2,0.9,1.7c0.4,0.5,0.9,0.9,1.4,1.1c0.6,0.3,1.2,0.4,1.9,0.4c0.7,0,1.4-0.2,1.9-0.4c0.6-0.3,1-0.7,1.4-1.2
		c0.4-0.5,0.7-1,0.9-1.7c0.2-0.6,0.3-1.2,0.3-1.9c0-0.7-0.1-1.3-0.3-1.9c-0.2-0.6-0.5-1.2-0.9-1.6c-0.4-0.5-0.9-0.8-1.4-1.1
		c-0.6-0.3-1.2-0.4-1.8-0.4c-0.7,0-1.4,0.1-1.9,0.4c-0.6,0.3-1,0.7-1.4,1.2c-0.4,0.5-0.7,1-0.9,1.6
		C152.7,126.3,152.6,126.9,152.6,127.6z"/>
	<path id="XMLID_34_" d="M166.2,134.6v-14.1h2.2v12.2h7.6v2H166.2z"/>
	<path id="XMLID_36_" d="M188.1,134.7c-1,0-1.9-0.2-2.8-0.6c-0.8-0.4-1.5-0.9-2.1-1.6c-0.6-0.7-1.1-1.4-1.4-2.3
		c-0.3-0.9-0.5-1.7-0.5-2.7c0-0.9,0.2-1.8,0.5-2.7c0.3-0.9,0.8-1.6,1.4-2.3c0.6-0.7,1.3-1.2,2.2-1.6s1.7-0.6,2.7-0.6
		c1,0,1.9,0.2,2.8,0.6c0.8,0.4,1.5,1,2.1,1.6c0.6,0.7,1,1.4,1.4,2.3c0.3,0.9,0.5,1.7,0.5,2.6c0,0.9-0.2,1.8-0.5,2.7
		c-0.3,0.9-0.8,1.6-1.4,2.3c-0.6,0.7-1.3,1.2-2.2,1.6C190,134.5,189.1,134.7,188.1,134.7z M183.6,127.6c0,0.7,0.1,1.3,0.3,1.9
		c0.2,0.6,0.5,1.2,0.9,1.7c0.4,0.5,0.9,0.9,1.4,1.1c0.6,0.3,1.2,0.4,1.9,0.4c0.7,0,1.4-0.2,1.9-0.4c0.6-0.3,1-0.7,1.4-1.2
		c0.4-0.5,0.7-1,0.9-1.7c0.2-0.6,0.3-1.2,0.3-1.9c0-0.7-0.1-1.3-0.3-1.9c-0.2-0.6-0.5-1.2-0.9-1.6c-0.4-0.5-0.9-0.8-1.4-1.1
		c-0.6-0.3-1.2-0.4-1.8-0.4c-0.7,0-1.4,0.1-1.9,0.4c-0.6,0.3-1,0.7-1.4,1.2c-0.4,0.5-0.7,1-0.9,1.6
		C183.7,126.3,183.6,126.9,183.6,127.6z"/>
	<path id="XMLID_39_" d="M197.2,134.6v-14.1h9.4v2h-7.2v4.2h6v1.9h-6v6.1H197.2z"/>
	<path id="XMLID_41_" d="M212.3,127.5c0-0.8,0.2-1.7,0.5-2.5c0.3-0.8,0.8-1.6,1.3-2.3c0.6-0.7,1.3-1.2,2.2-1.6
		c0.8-0.4,1.8-0.6,2.9-0.6c1.3,0,2.4,0.3,3.3,0.9c0.9,0.6,1.6,1.3,2.1,2.2l-1.8,1.2c-0.2-0.4-0.4-0.8-0.7-1.1
		c-0.3-0.3-0.6-0.5-0.9-0.7c-0.3-0.2-0.7-0.3-1-0.4c-0.4-0.1-0.7-0.1-1-0.1c-0.7,0-1.4,0.1-2,0.4c-0.6,0.3-1,0.7-1.4,1.2
		c-0.4,0.5-0.7,1-0.9,1.7c-0.2,0.6-0.3,1.2-0.3,1.8c0,0.7,0.1,1.3,0.3,2c0.2,0.6,0.5,1.2,0.9,1.7c0.4,0.5,0.9,0.9,1.4,1.1
		c0.6,0.3,1.2,0.4,1.8,0.4c0.3,0,0.7,0,1.1-0.1c0.4-0.1,0.7-0.2,1.1-0.4c0.3-0.2,0.7-0.4,0.9-0.7c0.3-0.3,0.5-0.6,0.7-1.1l1.9,1.1
		c-0.2,0.5-0.5,1-1,1.4c-0.4,0.4-0.9,0.7-1.4,1c-0.5,0.3-1.1,0.5-1.6,0.6c-0.6,0.1-1.1,0.2-1.7,0.2c-1,0-1.9-0.2-2.7-0.6
		c-0.8-0.4-1.5-1-2.1-1.7c-0.6-0.7-1.1-1.5-1.4-2.3C212.5,129.3,212.3,128.4,212.3,127.5z"/>
	<path id="XMLID_43_" d="M230.8,120.5h2l5.6,14.1H236l-1.5-3.8H229l-1.5,3.8h-2.4L230.8,120.5z M234.1,129.1l-2.3-6.1l-2.4,6.1
		H234.1z"/>
	<path id="XMLID_46_" d="M242.3,124.7v10h-2.2v-14.1h1.8l8.1,10.2v-10.2h2.3v14.1h-1.9L242.3,124.7z"/>
	<path id="XMLID_48_" d="M259.5,120.5h2l5.6,14.1h-2.4l-1.5-3.8h-5.5l-1.5,3.8h-2.4L259.5,120.5z M262.8,129.1l-2.3-6.1l-2.4,6.1
		H262.8z"/>
	<path id="XMLID_53_" d="M268.8,134.6v-14.1h5c1.1,0,2.1,0.2,3,0.6c0.9,0.4,1.6,0.9,2.2,1.5c0.6,0.6,1,1.4,1.3,2.2
		c0.3,0.9,0.4,1.8,0.4,2.7c0,1.1-0.2,2-0.5,2.9c-0.3,0.9-0.8,1.6-1.4,2.2c-0.6,0.6-1.3,1.1-2.2,1.4c-0.8,0.3-1.8,0.5-2.9,0.5H268.8z
		 M278.5,127.5c0-0.7-0.1-1.4-0.3-2.1c-0.2-0.6-0.5-1.2-0.9-1.6c-0.4-0.4-0.9-0.8-1.5-1c-0.6-0.3-1.2-0.4-2-0.4h-2.8v10.2h2.8
		c0.7,0,1.4-0.1,2-0.4c0.6-0.3,1.1-0.6,1.5-1.1c0.4-0.5,0.7-1,0.9-1.6C278.4,129,278.5,128.3,278.5,127.5z"/>
	<path id="XMLID_56_" d="M286.8,120.5h2l5.6,14.1H292l-1.5-3.8H285l-1.5,3.8h-2.4L286.8,120.5z M290,129.1l-2.3-6.1l-2.4,6.1H290z"
		/>
</g>
</svg>
