<?xml version="1.0" encoding="utf-8"?>
<!-- Generator: Adobe Illustrator 19.0.0, SVG Export Plug-In . SVG Version: 6.00 Build 0)  -->
<svg version="1.1" id="Layer_1" xmlns="http://www.w3.org/2000/svg" xmlns:xlink="http://www.w3.org/1999/xlink" x="0px" y="0px"
	 width="300px" height="142px" viewBox="0 0 300 142" style="enable-background:new 0 0 300 142;" xml:space="preserve">
<style type="text/css">
	.st0{fill:#C42126;}
	.st1{fill:#040607;}
</style>
<path id="XMLID_4_" class="st0" d="M78,14.7c-2.8-3.9-6-7.5-9.3-11c-0.5-0.5-1-0.6-1.7-0.6c-2.4,0.1-4.6-0.4-6.4-1.9
	c-0.5-0.4-0.8-0.3-1.2,0.1c-2.2,2.2-4.4,4.3-6.6,6.4c-0.1,2-0.7,3.5-1.5,5.8c-0.7,0.5-1.1,1.4-2.1,1.6c0.1,0.3-0.4,0.3-1.6,0.7
	c-2.1,1-2.1,0.7-4,1c-4.2,2.2-7.8,5-10.4,9c-1.7,2.6-2,5.3-0.3,8.1c0.8,1.3,1.7,2.3,2.9,3.3c2.8,2.4,5.5,4.8,6.7,8.4
	c0.3,1,0.2,1.3-0.8,1.5c-4.9,1.1-9.5,2.8-13.9,5.1c-0.8,0.4-1.2,0.9-1.4,1.7c-0.5,2.3-1.2,4.4-3,6c-0.4,0.3-0.4,0.6-0.1,1
	c2.4,2.8,4.2,6,6.9,8.6c2.1,1.7,2.2,2.8,4.9,3.4c0.3,2.4,1.3,4.5,2.4,6.6c1.6,2.1,2,3.1,3.6,5c0,0-0.1,0.1-0.1,0.1
	c0.6,0.8,1.3,1.6,1.9,2.3c0,0.2,4.7,4.7,4.9,5c0.4,0.6,0.9,1,1.5,1.3c0.5,0.4,1.1,0.4,1.6-0.1c0.9-1.1,2-1.1,3.3-0.7
	c1.8,0.5,3.5,0.4,4.7-1.3c1.1-1.7,2.7-2.8,4.4-3.6c1.7-0.8,3.4-1.8,4.6-3.3c0.9-1.2,1.9-1.4,3.3-1.1c1.5,0.3,2-0.1,2.3-1.6
	c0.3-1.4,0-2.8,0-4.2c0.5-1,0.1-1.6,0.6-3c1.5-1.6,1.4-1.6-0.1-3.1c-0.9-0.9-2.3-1.7-1.8-3.5c1.2,0.9,2.3,1.7,3.4,2.6
	c0.7,0.6,1.2,0.6,1.9-0.3c0.9-1.3,1.9-2.6,3.2-3.5c1.8-0.7,5.5-2.3,5.5-2.3c0.9-1.5,2.1-1.4,3.5-0.9c2.6,0.8,5.3,1.1,8,1
	c0.8-0.2,1.6-0.2,2.3-0.2c0,0.2,0,0.3-0.1,0.3c2,0.2,4,0.3,5.9,0.6c0.5,0.1,0.9-0.2,1.3-0.3c-1.3,0-1.9-0.7-2.1-1.9
	c-0.1-0.8-0.3-1.5-0.5-2.2c0.2-0.1,0.5-0.3,0.9-0.5c0,0.1-0.1,0.2-0.3,0.3c-0.1,1.8,0.7,3.2,2,4.4c0,0,0,0,0,0c0,0,0,0,0,0l0,0
	c1.6,0.5,3.3,1,5.3,1.3c-0.8-0.8-1.7-1-2.3-1.4c-0.3-0.2-0.8-0.3-0.4-0.7c0.6-0.7,0.3-1.6,0.3-2.4c0-0.8,0-1.5,0.3-2.3
	c0.5-1,1.3-1.2,2.3-1.2c0.9,0,1.6,0.5,1.8,1.2c0.4,0.9-0.7,1.1-1.2,1.5c-1.4,1.4-1.8,2.8-1.1,4.4c0.6-1.6,1.7-2.7,3-3.7
	c1.9-1.4,3.7-2.8,5.5-4.2c0.8-0.6,1.1-1.1,0.8-2.2c-0.4-1.3-0.7-2.7,0.2-3.9c0.4-0.5-0.1-0.8-0.3-1.1c-1.7-2.1-3.4-4.2-5.1-6.4
	c-0.8,0.5-4.1-2.8-5.1-3.5c0.1,0-0.1,0.1-0.3,0.3c0.1-0.1,0.2-0.2,0.3-0.3c-0.5-0.9-1.4-1.5-1.7-2.5c-2.8-1.4-1.5-4.2-2.6-5.6
	c-2.3-3.9-5-7.5-8.3-10.6c-1-0.9-2.1-1.8-3.4-2.1c-2.3-0.6-3.8,0.7-5.1,2.3c-0.9,1.1-1.9,2.1-3,3c-1,0.8-1.9,1.1-2.6-0.4
	C83.9,24,78.2,16.3,78,14.7 M42.4,49.7c-0.1-0.3-0.4-0.8,0.2-1c0.4-0.2,1-0.3,1.3,0.2c0.5,0.7,1,1.5,1.7,2.5
	C44.2,51,42.7,51.5,42.4,49.7z M56.9,32c-2.2-0.6-4.5,0.2-5-2.6c-0.1-0.5-0.6-1.2,0.3-1.5c0.7-0.2,1.5-0.5,2,0.3
	C55.1,29.3,55.8,30.5,56.9,32z"/>
<g id="XMLID_2_">
	<path id="XMLID_55_" d="M12.6,126.3h5.6v3.4H8.9V99.6H18v3.4h-5.3v9.6h4.6v3.4h-4.6V126.3z"/>
	<path id="XMLID_57_" d="M21.1,111.6c0-1.6-0.7-2.8-2-3.8l3.2-1.8c0.4,0.3,1,1,1.6,2c1.2-1.3,2.3-2,3.6-2c1.3,0,2.4,0.5,3.2,1.4
		c0.7,0.8,1.1,1.8,1.1,3v19.4h-3.7v-17.6c0-1.8-0.4-2.7-1.1-2.7c-0.9,0-1.7,0.7-2.3,2v18.3h-3.7V111.6z"/>
	<path id="XMLID_59_" d="M38.1,122.7c-1-0.5-1.9-1.3-2.6-2.5c-0.9-1.5-1.4-3.4-1.4-5.6c0-2.5,0.6-4.5,1.7-6.1
		c1.1-1.6,2.6-2.4,4.4-2.4c0.6,0,1.2,0.2,1.8,0.6c0.6,0.4,1.1,0.8,1.3,1.3c0.4-0.7,0.9-1.4,1.7-2l3.2,1.8c-1.3,1-2,2.2-2,3.8v3
		c0,2.2-0.5,4.1-1.4,5.6c-0.9,1.5-2.1,2.5-3.6,2.8c2.8,1.1,4.2,3.4,4.2,6.8c0,2.7-0.8,5.2-2.5,7.3c-1.5,1.9-3.5,3.2-5.8,3.9
		l-1.5-3.3c1.6-0.2,3-1.1,4.2-2.6c1.2-1.5,1.8-3,1.8-4.6c0-1.4-0.4-2.6-1.2-3.4c-0.8-0.8-1.8-1.3-2.9-1.3H37L38.1,122.7z
		 M38.1,114.6c0,3.5,0.7,5.3,2.1,5.3c1.4,0,2-1.8,2-5.3c0-3.5-0.7-5.2-2-5.2C38.8,109.4,38.1,111.1,38.1,114.6z"/>
	<path id="XMLID_62_" d="M53.2,124.3c0,1.8,0.7,3.2,2,4.3l-3.2,1.8c-1.6-1.7-2.5-3.7-2.5-6V95.1h3.7V124.3z"/>
	<path id="XMLID_64_" d="M61.3,100.8c0,0.6-0.2,1.1-0.6,1.5c-0.4,0.4-0.9,0.6-1.5,0.6c-0.6,0-1.1-0.2-1.5-0.6
		c-0.4-0.4-0.7-0.9-0.7-1.4c0-0.6,0.2-1.1,0.6-1.5c0.4-0.4,0.9-0.6,1.5-0.6c0.6,0,1.1,0.2,1.5,0.6C61.1,99.8,61.3,100.2,61.3,100.8z
		 M61.1,129.7h-3.7v-23.1h3.7V129.7z"/>
	<path id="XMLID_67_" d="M63.9,111c0-1.2,0.4-2.2,1.3-3.2c0.9-1.1,2.1-1.7,3.5-1.7c1.6,0,3,1,4.3,2.9l-2.2,2.3
		c-0.6-1.1-1.3-1.6-1.9-1.6c-0.9,0-1.3,0.5-1.3,1.6c0,1,0.9,3.2,2.7,6.5c1.8,3.3,2.7,5.8,2.7,7.3c0,1.4-0.5,2.7-1.4,3.7
		c-0.9,1-2,1.5-3.4,1.5c-2.1,0-3.8-1.2-5-3.5l2.6-2c0.7,1.3,1.4,2,2.1,2c0.9,0,1.3-0.6,1.3-1.7c0-0.9-0.9-3-2.7-6.2
		C64.8,115.6,63.9,113,63.9,111z"/>
	<path id="XMLID_69_" d="M78.6,111.3v18.4H75V95.1h3.7v12.5c1.3-1,2.3-1.6,3.2-1.6c2.6,0,3.9,1.4,3.9,4.3v19.3h-3.7v-17.6
		c0-1.8-0.4-2.7-1.2-2.7C80.2,109.5,79.4,110.1,78.6,111.3z"/>
	<path id="XMLID_71_" d="M100.4,102.6c-1.2,0-1.8,0.8-1.8,2.5c0,1.7,1.1,4.9,3.4,9.5c2.3,4.6,3.4,7.9,3.4,9.9c0,1.7-0.6,3.1-1.7,4.2
		c-1.1,1.1-2.5,1.6-4.1,1.6c-1.8,0-3.6-1.1-5.3-3.4l2.1-2.9c1,1.8,2.1,2.8,3.2,2.8c1.4,0,2.1-0.8,2.1-2.3c0-1.2-1.1-4.1-3.4-8.7
		c-2.3-4.6-3.4-8.2-3.4-10.6c0-1.7,0.5-3.2,1.5-4.3c1-1.1,2.3-1.7,3.7-1.7c1.7,0,3.2,0.9,4.5,2.8l-1.9,2.8
		C101.9,103.3,101.1,102.6,100.4,102.6z"/>
	<path id="XMLID_73_" d="M113.2,106.1c1.9,0,3.4,1.1,4.7,3.2l-2.3,2.2c-0.5-1.3-1.2-1.9-2.3-1.9c-1.6,0-2.5,2.8-2.5,8.5
		c0,5.7,0.8,8.5,2.5,8.5c1,0,1.8-0.7,2.3-2l2.3,2.2c-1.2,2.2-2.8,3.3-4.7,3.3c-4.2,0-6.3-4-6.3-12S109,106.1,113.2,106.1z"/>
	<path id="XMLID_75_" d="M123.3,111.3v18.4h-3.7V95.1h3.7v12.5c1.3-1,2.3-1.6,3.2-1.6c2.6,0,3.9,1.4,3.9,4.3v19.3h-3.7v-17.6
		c0-1.8-0.4-2.7-1.2-2.7C124.8,109.5,124.1,110.1,123.3,111.3z"/>
	<path id="XMLID_77_" d="M139.2,106.1c1.8,0,3.2,1,4.3,3c1.2,2.1,1.7,5.2,1.7,9c0,3.9-0.6,6.9-1.7,9c-1,2-2.5,3-4.3,3
		c-1.8,0-3.3-1-4.3-3c-1.2-2.1-1.7-5.2-1.7-9c0-3.9,0.6-6.9,1.7-9C135.9,107.1,137.3,106.1,139.2,106.1z M137.1,118.2
		c0,5.5,0.7,8.3,2.1,8.3c1.4,0,2-2.8,2-8.3s-0.7-8.3-2-8.3C137.8,109.9,137.1,112.6,137.1,118.2z"/>
	<path id="XMLID_80_" d="M153.5,106.1c1.8,0,3.2,1,4.3,3c1.2,2.1,1.7,5.2,1.7,9c0,3.9-0.6,6.9-1.7,9c-1,2-2.5,3-4.3,3
		c-1.8,0-3.3-1-4.3-3c-1.2-2.1-1.7-5.2-1.7-9c0-3.9,0.6-6.9,1.7-9C150.2,107.1,151.6,106.1,153.5,106.1z M151.4,118.2
		c0,5.5,0.7,8.3,2.1,8.3c1.4,0,2-2.8,2-8.3s-0.7-8.3-2-8.3C152.1,109.9,151.4,112.6,151.4,118.2z"/>
	<path id="XMLID_83_" d="M166.1,124.3c0,1.8,0.7,3.2,2,4.3l-3.2,1.8c-1.6-1.7-2.5-3.7-2.5-6V95.1h3.7V124.3z"/>
	<path id="XMLID_85_" d="M183.1,99.2c4.5,0,6.7,5.1,6.7,15.4c0,10.3-2.2,15.4-6.7,15.4c-4.5,0-6.7-5.1-6.7-15.4
		C176.4,104.3,178.6,99.2,183.1,99.2z M180.5,114.7c0,7.9,0.9,11.8,2.6,11.8c1.7,0,2.6-3.9,2.6-11.8c0-7.9-0.9-11.9-2.6-11.9
		C181.4,102.8,180.5,106.7,180.5,114.7z"/>
	<path id="XMLID_88_" d="M193.6,109.9h-2.2v-3.3h2.2v-6.8c0-1.3,0.4-2.4,1.2-3.5c0.8-1.1,1.8-1.7,3-2l2.4,2.3
		c-1.9,0.3-2.8,1.4-2.8,3.2v6.8h2.5v3.3h-2.5v19.8h-3.7V109.9z"/>
	<path id="XMLID_90_" d="M215.7,99.2c1.8,0,3.3,0.8,4.5,2.5l-2,2.6c-0.5-1-1.3-1.5-2.4-1.5c-1,0-1.8,1.1-2.4,3.2
		c-0.6,2.1-0.9,5-0.9,8.7c0,3.7,0.3,6.6,0.9,8.7c0.6,2.1,1.4,3.2,2.4,3.2c1,0,1.8-0.6,2.4-1.8l2,2.8c-1.3,1.7-2.7,2.5-4.5,2.5
		c-4.9,0-7.4-5.1-7.4-15.4c0-5.3,0.7-9.3,2.2-11.9C211.8,100.4,213.6,99.2,215.7,99.2z"/>
	<path id="XMLID_92_" d="M231.5,124.7c0,1.4,0.7,2.7,2,3.8l-3.2,1.8c-0.3-0.3-0.6-0.6-0.8-0.9c-0.6-0.7-1-1.3-1.2-1.9
		c-1.5,1.7-2.8,2.6-3.9,2.6c-1.2,0-2.2-0.6-2.9-1.9c-0.7-1.3-1-3-1-5.1c0-2.1,0.5-3.9,1.4-5.4c0.9-1.5,2.1-2.3,3.6-2.3h2.4v-2.7
		c0-2.2-0.4-3.3-1.3-3.3c-1.3,0-2.3,0.8-3.2,2.4l-1.9-2.4c0.6-0.9,1.3-1.7,2.3-2.4c1-0.7,1.9-1.1,2.8-1.1c1.8,0,3.1,0.5,3.8,1.5
		c0.7,1,1.1,2.8,1.1,5.2V124.7z M227.8,118.6h-1.3c-1.5,0-2.3,1.5-2.3,4.6c0,2.2,0.5,3.4,1.4,3.4c0.4,0,0.8-0.3,1.4-0.9
		c0.5-0.6,0.8-1.2,0.9-1.8V118.6z"/>
	<path id="XMLID_95_" d="M235.8,111.6c0-1.6-0.7-2.8-2-3.8l3.2-1.8c0.4,0.3,1,1,1.6,2c1.2-1.3,2.3-2,3.6-2c1.3,0,2.4,0.5,3.2,1.4
		c0.7,0.8,1.1,1.8,1.1,3v19.4h-3.7v-17.6c0-1.8-0.4-2.7-1.1-2.7c-0.9,0-1.7,0.7-2.3,2v18.3h-3.7V111.6z"/>
	<path id="XMLID_97_" d="M259.9,124.7c0,1.4,0.7,2.7,2,3.8l-3.2,1.8c-0.3-0.3-0.6-0.6-0.8-0.9c-0.6-0.7-1-1.3-1.2-1.9
		c-1.5,1.7-2.8,2.6-3.9,2.6c-1.2,0-2.2-0.6-2.9-1.9c-0.7-1.3-1-3-1-5.1c0-2.1,0.5-3.9,1.4-5.4c0.9-1.5,2.1-2.3,3.6-2.3h2.4v-2.7
		c0-2.2-0.4-3.3-1.3-3.3c-1.3,0-2.3,0.8-3.2,2.4l-1.9-2.4c0.6-0.9,1.3-1.7,2.3-2.4c1-0.7,1.9-1.1,2.8-1.1c1.8,0,3.1,0.5,3.8,1.5
		c0.7,1,1.1,2.8,1.1,5.2V124.7z M256.2,118.6h-1.3c-1.5,0-2.3,1.5-2.3,4.6c0,2.2,0.5,3.4,1.4,3.4c0.4,0,0.8-0.3,1.4-0.9
		c0.5-0.6,0.8-1.2,0.9-1.8V118.6z"/>
	<path id="XMLID_100_" d="M268.4,130.2c-3.5,0-5.3-4-5.3-12s1.8-12,5.3-12c0.6,0,1.2,0.2,1.8,0.6c0.6,0.4,1.1,0.8,1.3,1.4v-13h3.7
		v29.7c0,1.5,0.7,2.8,2,3.8l-3.2,1.8c-0.9-0.8-1.6-1.7-2-2.7c-0.3,0.7-0.8,1.3-1.6,1.8C269.7,130,269,130.2,268.4,130.2z
		 M269.4,109.6c-1.6,0-2.4,2.8-2.4,8.5c0,5.7,0.8,8.5,2.4,8.5c0.8,0,1.3-0.6,1.6-1.9c0.3-1.3,0.5-3.5,0.5-6.6s-0.2-5.3-0.5-6.6
		C270.8,110.3,270.2,109.6,269.4,109.6z"/>
	<path id="XMLID_103_" d="M289.1,124.7c0,1.4,0.7,2.7,2,3.8l-3.2,1.8c-0.3-0.3-0.6-0.6-0.8-0.9c-0.6-0.7-1-1.3-1.2-1.9
		c-1.5,1.7-2.8,2.6-3.9,2.6c-1.2,0-2.2-0.6-2.9-1.9c-0.7-1.3-1-3-1-5.1c0-2.1,0.5-3.9,1.4-5.4c0.9-1.5,2.1-2.3,3.6-2.3h2.4v-2.7
		c0-2.2-0.4-3.3-1.3-3.3c-1.3,0-2.3,0.8-3.2,2.4l-1.9-2.4c0.6-0.9,1.3-1.7,2.3-2.4c1-0.7,1.9-1.1,2.8-1.1c1.8,0,3.1,0.5,3.8,1.5
		c0.7,1,1.1,2.8,1.1,5.2V124.7z M285.5,118.6h-1.3c-1.5,0-2.3,1.5-2.3,4.6c0,2.2,0.5,3.4,1.4,3.4c0.4,0,0.8-0.3,1.4-0.9
		c0.5-0.6,0.8-1.2,0.9-1.8V118.6z"/>
</g>
<path id="XMLID_50_" class="st1" d="M37.4,79.7c2.9-0.5,5.6-1.4,8.6-1.3c4.1,0.1,5.7,2.3,4.4,6.2c-0.1,0.2-0.2,0.4,0.1,0.7
	c1.9-0.9,3.7-2.1,5.4-3.4c2.9-2.1,5.7-4.4,8.7-6.3c2-1.2,4.2-2.1,6.6-2.1c1,0,1.9,0.2,2.7,0.9c0.4,1.1,1,2.3-0.6,3
	c-0.3-1.9-0.6-2-2.4-1.5c-0.8,0.2-1.6,0.6-2.4,1.1c-2.5,1.4-4.5,3.6-6.5,5.5c-4.2,4-8.5,7.9-14.2,9.7c-0.4,0-0.9,0-1.3,0
	c-2.9,0.4-4.5-1.3-3.9-4.2c0.1-0.3,0.2-0.6,0.3-0.8c0.2-1,1.5-1.9,1-2.7c-0.5-0.7-1.8,0.2-2.7,0.2c0,0-0.1,0.1-0.1,0.1
	c-3.3,0.7-6.5,1.8-9.6,2.9c-4.4,1.7-8.2-1.1-7.6-5.5c0.1-0.5,0.2-1,0.4-1.6c0.9-3.1,2.6-5.7,4.3-8.4c0.6-0.8,1.1-1.7,1.7-2.5
	c2.1-2.8,4.5-5.4,6.2-8.4c0.6-1.1,0.7-1.9-0.3-3c-1.8-2.1-1.1-4.7,1.3-6c1.2-0.6,2.5-0.8,3.8-0.8c5.7,0,11.1,1.4,16.6,2.9
	c0.5,0.1,0.9,0.5,1.5,0.2c-0.2-0.6-0.7-0.7-1-0.9c-4.2-2.9-8.4-5.7-12.6-8.6c-2.7-1.9-5.3-3.8-7.2-6.5c-1.3-1.7-1.7-3.6-0.7-5.6
	c0.9-1.7,2.6-2.2,4.4-2.3c0.9,0,1.7-0.1,2.6-0.2c0.9,0,1.2-0.5,1.1-1.3c-0.4-4.2-1-8.4-2.1-12.5c-0.2-1.6-1.1-3.1-1.5-4.7
	c-0.9-3.9,1.1-6.4,5-6.1c1.7,0.1,3.2,0.8,4.7,1.4c0.3,0.1,0.6,0.2,0.9,0.3c4.2,2.1,8.4,4.3,12.7,6.4c2.3,1.2,4.6,2.4,7.2,3.1
	c0.6,0.1,1,0.3,1.4-0.3c0.9-1.5,2.3-2.1,4-2.3c2.9,1,4.1,3.3,5.1,5.9c0.5,1.2,1,2.4,1.4,3.6c1.5,5.8,3,11.7,3.8,17.7
	c0.8-1.5,1.6-3,2.2-4.6c0.7-1.7,1.2-3.4,2-5c1.1-2,3.3-2.6,5.2-1.3c0.8,0.6,1.3,1.4,1.6,2.4c0.2,0.5,0.3,0.8,0.9,0.5
	c2.1-0.9,4.4-1.2,6.6-1.9c3.6-0.5,7.2-1.3,10.8-1.1c0.4,0,0.9,0,1.3,0c1.9,0.3,3.6,0.9,4.4,2.9c0.8,2.1-0.3,3.6-1.6,4.9
	c-1.8,1.7-3.7,3.3-5.6,4.9c-0.8,0.5-1.7,1-2.3,2c0.4,0,0.6,0.1,0.8,0.1c1.8,0.3,3.6,0.7,4.4,2.6c0.9,2,0,3.7-1.3,5.2
	c-1.6,2-3.9,3-6.2,4c-2.3,1-4.5,1.9-6.8,2.8c-0.2,0.1-0.4,0.2-0.6,0.3c-1.5,0.7-3.3,1.2-3.9,3.1c-0.1,0.3-0.5,0.6-0.8,0.8
	c-0.3,0-0.7,0.1-1,0.1c0,0-0.1,0-0.1,0c-0.4-0.1-0.8-0.1-1.2-0.2c-2.4-1.9-1.6-4.4,0.1-6.2c2.1-2.3,5-3.2,7.8-4.3
	c2-0.8,4-1.4,6.1-2.6c-1-0.4-1.8-0.6-2.6-1c-2.3-1.1-3-3.1-1.9-5.4c0.9-2,2.7-3.3,4.2-4.7c1.5-1.1,2.9-2.2,4.4-3.3
	c-0.1-0.1-0.1-0.2-0.2-0.3c-1.9,0.5-4,0.2-5.9,1.1c-2.7,0.2-5.2,1.1-7.7,1.9c-0.9,0.3-1.8,0.8-2.8,0.8c-1.6,0-2.4-0.5-4-2.6
	c-1.4,2.6-3,5-4.9,7.2c-0.9,1-1.8,2-3.1,2.6c-1.1,0.5-2,0.3-2.8-0.6c-1.6-1.7-1.7-3.8-2-5.9c-0.8-5.9-2.1-11.8-4.1-17.4
	c-0.4-1-0.8-1.3-1.8-0.8c-1.7,0.9-3.4,0.5-5.1,0.1c-4.8-1.3-9-3.9-13.4-6c-2.2-1.1-4.3-2.5-6.7-3.2c-0.9-0.7-1.9-1.1-3.2-1.4
	c0.4,1.1,0.8,2.1,1.1,3c1,4.6,1.9,9.1,2.2,13.8c0.4,5.3-3.1,7.5-7,7.5c-0.2,0-0.4,0.1-0.8,0.1c1.4,1.6,2.8,2.9,4.2,4.2
	c5.5,4.8,11.5,9.1,16.6,14.4c1.3,1.4,2.4,2.9,3.2,4.7c0.7,1.5,0.1,2.4-1.5,2.9c-2.3,0.6-4.1-0.6-6-1.4c-5.2-2-10.5-3.2-15.9-4
	c-1.2-0.2-1.8,0-1.5,1.6c0.4,2.4-0.9,4.4-2.1,6.4c-1.3,2.2-3,4.2-4.6,6.2c-0.4,0.5-0.8,1-1,1.6c-2.4,2.6-4.1,5.6-5.5,9.2
	C32.3,81.4,34.9,80.5,37.4,79.7z"/>
<path id="XMLID_49_" class="st1" d="M80.5,66.6c-1.4-5.6-3.6-10.9-6.2-16c-4.4-8.8-9.5-17.2-15-25.3c-0.9-1.4-2.1-2.7-2.8-4.2
	c-0.2-0.5-0.9-1.1-0.3-1.5c0.5-0.4,1.1,0.2,1.5,0.5c2.1,1.5,4,3.2,5.8,5.1c8,8.1,13.9,17.6,18.2,28c1.5,3.7,2.8,7.4,4.2,11.2
	c0.7,2.6,1.3,5.2,2,7.7c1.9,7.7,3,15.5,3.6,23.4c0.1,1.6-1.2,3.3-2.5,3.4c-1.3,0.1-3-1.5-3.1-2.9c-0.5-5.6-1.1-11.1-2.2-16.6
	C82.9,75.1,82,70.7,80.5,66.6z"/>
<path id="XMLID_1_" class="st0" d="M52.8,7.8"/>
<path id="XMLID_3_" class="st0" d="M86.3,63.5"/>
</svg>
