<?xml version="1.0" encoding="utf-8"?>
<!-- Generator: Adobe Illustrator 19.0.0, SVG Export Plug-In . SVG Version: 6.00 Build 0)  -->
<svg version="1.1" id="Layer_1" xmlns="http://www.w3.org/2000/svg" xmlns:xlink="http://www.w3.org/1999/xlink" x="0px" y="0px"
	 width="300px" height="121.4px" viewBox="0 0 300 121.4" style="enable-background:new 0 0 300 121.4;" xml:space="preserve">
<style type="text/css">
	.st0{fill:#C42126;}
	.st1{fill:#040607;}
</style>
<path id="XMLID_4_" class="st0" d="M121.4,50c-1.7-2.1-3.4-4.2-5.1-6.4c-0.8,0.5-4.1-2.8-5.1-3.5c0.1,0-0.1,0.1-0.3,0.3
	c0.1-0.1,0.2-0.2,0.3-0.3c-0.5-0.9-1.4-1.5-1.7-2.5c-2.8-1.4-1.5-4.2-2.6-5.6c-2.3-3.9-5-7.5-8.3-10.6c-1-0.9-2.1-1.8-3.4-2.1
	c-2.3-0.6-3.8,0.7-5.1,2.3c-0.9,1.1-1.9,2.1-3,3c-1,0.8-1.9,1.1-2.6-0.4c-0.6-0.2-6.4-7.9-6.6-9.5c-0.4,0.2-1,0.3-1.6,0.3
	c0.5-0.2,1-0.3,1.6-0.3c-2.8-3.9-6-7.5-9.3-11c-0.5-0.5-1-0.6-1.7-0.6c-2.4,0.1-4.6-0.4-6.4-1.9c-0.5-0.4-0.8-0.3-1.2,0.1
	c-2.2,2.2-4.4,4.3-6.6,6.4c-0.1,2,0.9,6.6-1.5,5.8c-0.7,0.5-1.1,1.4-2.1,1.6c0.1,0.3,0.1,0.5,0.2,0.8c-2.1,1-5,3.6-5.8,0.9
	c-4.2,2.2-7.8,5-10.4,9c-1.7,2.6-2,5.3-0.3,8.1c0.8,1.3,1.7,2.3,2.9,3.3c2.8,2.4,5.5,4.8,6.7,8.4c0.3,1,0.2,1.3-0.8,1.5
	c-4.9,1.1-9.5,2.8-13.9,5.1c-0.8,0.4-1.2,0.9-1.4,1.7c-0.5,2.3-1.2,4.4-3,6c-0.4,0.3-0.4,0.6-0.1,1c2.4,2.8,4.2,6,6.9,8.6
	c2.1,1.7,2.2,2.8,4.9,3.4c0.3,2.4,1.3,4.5,2.4,6.6c1.6,2.1,2,3.1,3.6,5c0,0-0.1,0.1-0.1,0.1c0.6,0.8,1.3,1.6,1.9,2.3
	c0,0.2,4.7,4.7,4.9,5c0.4,0.6,0.9,1,1.5,1.3c0.5,0.4,1.1,0.4,1.6-0.1c0.9-1.1,2-1.1,3.3-0.7c1.8,0.5,3.5,0.4,4.7-1.3
	c1.1-1.7,2.7-2.8,4.4-3.6c1.7-0.8,3.4-1.8,4.6-3.3c0.9-1.2,1.9-1.4,3.3-1.1c1.5,0.3,2-0.1,2.3-1.6c0.3-1.4,0-2.8,0-4.2
	c0.5-1,0.1-1.6,0.6-3c1.5-1.6,1.4-1.6-0.1-3.1c-0.9-0.9-2.3-1.7-1.8-3.5c1.2,0.9,2.3,1.7,3.4,2.6c0.7,0.6,1.2,0.6,1.9-0.3
	c0.9-1.3,1.9-2.6,3.2-3.5c1.8-0.7,5.5-2.3,5.5-2.3c0.9-1.5,2.1-1.4,3.5-0.9c2.6,0.8,5.3,1.1,8,1c0.8-0.2,1.6-0.2,2.3-0.2
	c0,0.2,0,0.3-0.1,0.3c2,0.2,4,0.3,5.9,0.6c0.5,0.1,0.9-0.2,1.3-0.3c-1.3,0-1.9-0.7-2.1-1.9c-0.1-0.8-0.3-1.5-0.5-2.2
	c0.2-0.1,0.5-0.3,0.9-0.5c0,0.1-0.1,0.2-0.3,0.3c-0.1,1.8,0.7,3.2,2,4.4c0,0,0,0,0,0c0,0,0,0,0,0l0,0c1.6,0.5,3.3,1,5.3,1.3
	c-0.8-0.8-1.7-1-2.3-1.4c-0.3-0.2-0.8-0.3-0.4-0.7c0.6-0.7,0.3-1.6,0.3-2.4c0-0.8,0-1.5,0.3-2.3c0.5-1,1.3-1.2,2.3-1.2
	c0.9,0,1.6,0.5,1.8,1.2c0.4,0.9-0.7,1.1-1.2,1.5c-1.4,1.4-1.8,2.8-1.1,4.4c0.6-1.6,1.7-2.7,3-3.7c1.9-1.4,3.7-2.8,5.5-4.2
	c0.8-0.6,1.1-1.1,0.8-2.2c-0.4-1.3-0.7-2.7,0.2-3.9C122.1,50.6,121.7,50.3,121.4,50z M42.4,49.7c-0.1-0.3-0.4-0.8,0.2-1
	c0.4-0.2,1-0.3,1.3,0.2c0.5,0.7,1,1.5,1.7,2.5C44.2,51,42.7,51.5,42.4,49.7z M56.9,32c-2.2-0.6-4.5,0.2-5-2.6
	c-0.1-0.5-0.6-1.2,0.3-1.5c0.7-0.2,1.5-0.5,2,0.3C55.1,29.3,55.8,30.5,56.9,32z"/>
<path id="XMLID_50_" class="st1" d="M37.4,79.7c2.9-0.5,5.6-1.4,8.6-1.3c4.1,0.1,5.7,2.3,4.4,6.2c-0.1,0.2-0.2,0.4,0.1,0.7
	c1.9-0.9,3.7-2.1,5.4-3.4c2.9-2.1,5.7-4.4,8.7-6.3c2-1.2,4.2-2.1,6.6-2.1c1,0,1.9,0.2,2.7,0.9c0.4,1.1,1,2.3-0.6,3
	c-0.3-1.9-0.6-2-2.4-1.5c-0.8,0.2-1.6,0.6-2.4,1.1c-2.5,1.4-4.5,3.6-6.5,5.5c-4.2,4-8.5,7.9-14.2,9.7c-0.4,0-0.9,0-1.3,0
	c-2.9,0.4-4.5-1.3-3.9-4.2c0.1-0.3,0.2-0.6,0.3-0.8c0.2-1,1.5-1.9,1-2.7c-0.5-0.7-1.8,0.2-2.7,0.2c0,0-0.1,0.1-0.1,0.1
	c-3.3,0.7-6.5,1.8-9.6,2.9c-4.4,1.7-8.2-1.1-7.6-5.5c0.1-0.5,0.2-1,0.4-1.6c0.9-3.1,2.6-5.7,4.3-8.4c0.6-0.8,1.1-1.7,1.7-2.5
	c2.1-2.8,4.5-5.4,6.2-8.4c0.6-1.1,0.7-1.9-0.3-3c-1.8-2.1-1.1-4.7,1.3-6c1.2-0.6,2.5-0.8,3.8-0.8c5.7,0,11.1,1.4,16.6,2.9
	c0.5,0.1,0.9,0.5,1.5,0.2c-0.2-0.6-0.7-0.7-1-0.9c-4.2-2.9-8.4-5.7-12.6-8.6c-2.7-1.9-5.3-3.8-7.2-6.5c-1.3-1.7-1.7-3.6-0.7-5.6
	c0.9-1.7,2.6-2.2,4.4-2.3c0.9,0,1.7-0.1,2.6-0.2c0.9,0,1.2-0.5,1.1-1.3c-0.4-4.2-1-8.4-2.1-12.5c-0.2-1.6-1.1-3.1-1.5-4.7
	c-0.9-3.9,1.1-6.4,5-6.1c1.7,0.1,3.2,0.8,4.7,1.4c0.3,0.1,0.6,0.2,0.9,0.3c4.2,2.1,8.4,4.3,12.7,6.4c2.3,1.2,4.6,2.4,7.2,3.1
	c0.6,0.1,1,0.3,1.4-0.3c0.9-1.5,2.3-2.1,4-2.3c2.9,1,4.1,3.3,5.1,5.9c0.5,1.2,1,2.4,1.4,3.6c1.5,5.8,3,11.7,3.8,17.7
	c0.8-1.5,1.6-3,2.2-4.6c0.7-1.7,1.2-3.4,2-5c1.1-2,3.3-2.6,5.2-1.3c0.8,0.6,1.3,1.4,1.6,2.4c0.2,0.5,0.3,0.8,0.9,0.5
	c2.1-0.9,4.4-1.2,6.6-1.9c3.6-0.5,7.2-1.3,10.8-1.1c0.4,0,0.9,0,1.3,0c1.9,0.3,3.6,0.9,4.4,2.9c0.8,2.1-0.3,3.6-1.6,4.9
	c-1.8,1.7-3.7,3.3-5.6,4.9c-0.8,0.5-1.7,1-2.3,2c0.4,0,0.6,0.1,0.8,0.1c1.8,0.3,3.6,0.7,4.4,2.6c0.9,2,0,3.7-1.3,5.2
	c-1.6,2-3.9,3-6.2,4c-2.3,1-4.5,1.9-6.8,2.8c-0.2,0.1-0.4,0.2-0.6,0.3c-1.5,0.7-3.3,1.2-3.9,3.1c-0.1,0.3-0.5,0.6-0.8,0.8
	c-0.3,0-0.7,0.1-1,0.1c0,0-0.1,0-0.1,0c-0.4-0.1-0.8-0.1-1.2-0.2c-2.4-1.9-1.6-4.4,0.1-6.2c2.1-2.3,5-3.2,7.8-4.3
	c2-0.8,4-1.4,6.1-2.6c-1-0.4-1.8-0.6-2.6-1c-2.3-1.1-3-3.1-1.9-5.4c0.9-2,2.7-3.3,4.2-4.7c1.5-1.1,2.9-2.2,4.4-3.3
	c-0.1-0.1-0.1-0.2-0.2-0.3c-1.9,0.5-4,0.2-5.9,1.1c-2.7,0.2-5.2,1.1-7.7,1.9c-0.9,0.3-1.8,0.8-2.8,0.8c-1.6,0-2.4-0.5-4-2.6
	c-1.4,2.6-3,5-4.9,7.2c-0.9,1-1.8,2-3.1,2.6c-1.1,0.5-2,0.3-2.8-0.6c-1.6-1.7-1.7-3.8-2-5.9c-0.8-5.9-2.1-11.8-4.1-17.4
	c-0.4-1-0.8-1.3-1.8-0.8c-1.7,0.9-3.4,0.5-5.1,0.1c-4.8-1.3-9-3.9-13.4-6c-2.2-1.1-4.3-2.5-6.7-3.2c-0.9-0.7-1.9-1.1-3.2-1.4
	c0.4,1.1,0.8,2.1,1.1,3c1,4.6,1.9,9.1,2.2,13.8c0.4,5.3-3.1,7.5-7,7.5c-0.2,0-0.4,0.1-0.8,0.1c1.4,1.6,2.8,2.9,4.2,4.2
	c5.5,4.8,11.5,9.1,16.6,14.4c1.3,1.4,2.4,2.9,3.2,4.7c0.7,1.5,0.1,2.4-1.5,2.9c-2.3,0.6-4.1-0.6-6-1.4c-5.2-2-10.5-3.2-15.9-4
	c-1.2-0.2-1.8,0-1.5,1.6c0.4,2.4-0.9,4.4-2.1,6.4c-1.3,2.2-3,4.2-4.6,6.2c-0.4,0.5-0.8,1-1,1.6c-2.4,2.6-4.1,5.6-5.5,9.2
	C32.3,81.4,34.9,80.5,37.4,79.7z"/>
<path id="XMLID_49_" class="st1" d="M80.5,66.6c-1.4-5.6-3.6-10.9-6.2-16c-4.4-8.8-9.5-17.2-15-25.3c-0.9-1.4-2.1-2.7-2.8-4.2
	c-0.2-0.5-0.9-1.1-0.3-1.5c0.5-0.4,1.1,0.2,1.5,0.5c2.1,1.5,4,3.2,5.8,5.1c8,8.1,13.9,17.6,18.2,28c1.5,3.7,2.8,7.4,4.2,11.2
	c0.7,2.6,1.3,5.2,2,7.7c1.9,7.7,3,15.5,3.6,23.4c0.1,1.6-1.2,3.3-2.5,3.4c-1.3,0.1-3-1.5-3.1-2.9c-0.5-5.6-1.1-11.1-2.2-16.6
	C82.9,75.1,82,70.7,80.5,66.6z"/>
<path id="XMLID_1_" class="st0" d="M52.8,7.8"/>
<path id="XMLID_3_" class="st0" d="M86.3,63.5"/>
<g id="XMLID_6_">
	<path id="XMLID_7_" d="M20.1,113.7v2.4H8.4v-17h11.5v2.4h-8.8v4.8h7.6v2.2h-7.6v5.2H20.1z"/>
	<path id="XMLID_11_" d="M33.7,116.1H31v-7c0-1.2-0.2-2-0.6-2.6c-0.4-0.5-0.9-0.8-1.7-0.8c-0.4,0-0.8,0.1-1.2,0.2
		c-0.4,0.1-0.7,0.3-1.1,0.6s-0.6,0.6-0.9,0.9c-0.3,0.4-0.5,0.8-0.6,1.2v7.5h-2.6v-12.6h2.4v2.5c0.5-0.8,1.2-1.5,2.1-2
		c0.9-0.5,1.9-0.7,3-0.7c0.8,0,1.4,0.1,1.8,0.4c0.5,0.3,0.9,0.6,1.1,1.1c0.3,0.5,0.5,1,0.6,1.6c0.1,0.6,0.2,1.3,0.2,2V116.1z"/>
	<path id="XMLID_13_" d="M41.7,116.2c-0.8,0-1.6-0.2-2.3-0.5c-0.7-0.3-1.3-0.8-1.8-1.4s-0.9-1.3-1.2-2c-0.3-0.8-0.4-1.6-0.4-2.4
		c0-0.9,0.1-1.7,0.4-2.5s0.7-1.5,1.2-2.1c0.5-0.6,1.1-1,1.8-1.4c0.7-0.3,1.5-0.5,2.4-0.5c1,0,1.9,0.2,2.7,0.7
		c0.8,0.5,1.4,1.1,1.9,1.9v-2.4h2.3v12.2c0,0.9-0.2,1.7-0.5,2.4c-0.3,0.7-0.8,1.3-1.4,1.8s-1.3,0.9-2.1,1.1s-1.7,0.4-2.6,0.4
		c-1.4,0-2.5-0.2-3.5-0.7c-0.9-0.5-1.7-1.1-2.3-2l1.5-1.4c0.5,0.7,1.1,1.2,1.9,1.5c0.8,0.4,1.6,0.5,2.4,0.5c0.5,0,1.1-0.1,1.5-0.2
		c0.5-0.1,0.9-0.4,1.3-0.7c0.4-0.3,0.7-0.7,0.9-1.2c0.2-0.5,0.3-1,0.3-1.7v-1.9c-0.4,0.8-1.1,1.4-1.8,1.8
		C43.4,116,42.6,116.2,41.7,116.2z M42.6,114.1c0.4,0,0.8-0.1,1.2-0.2s0.7-0.3,1-0.6c0.3-0.2,0.6-0.5,0.8-0.8
		c0.2-0.3,0.4-0.6,0.5-0.9v-3.3c-0.2-0.4-0.4-0.8-0.6-1.1c-0.3-0.3-0.5-0.6-0.9-0.9c-0.3-0.2-0.7-0.4-1-0.6
		c-0.4-0.1-0.7-0.2-1.1-0.2c-0.6,0-1.1,0.1-1.5,0.4c-0.5,0.2-0.8,0.6-1.2,1c-0.3,0.4-0.6,0.9-0.7,1.4c-0.2,0.5-0.3,1-0.3,1.6
		c0,0.6,0.1,1.1,0.3,1.6c0.2,0.5,0.5,0.9,0.8,1.3s0.8,0.7,1.2,0.9C41.5,114,42,114.1,42.6,114.1z"/>
	<path id="XMLID_16_" d="M51.9,98.6h2.6v13.9c0,0.5,0.1,0.8,0.4,1.1c0.2,0.3,0.6,0.4,1,0.4c0.2,0,0.4,0,0.6-0.1
		c0.2-0.1,0.5-0.1,0.7-0.2l0.4,2.1c-0.4,0.2-0.8,0.3-1.4,0.4c-0.5,0.1-1,0.2-1.4,0.2c-0.9,0-1.6-0.2-2.1-0.7
		c-0.5-0.5-0.8-1.2-0.8-2.1V98.6z"/>
	<path id="XMLID_18_" d="M59.1,101.5v-2.9h2.6v2.9H59.1z M59.1,116.1v-12.6h2.6v12.6H59.1z"/>
	<path id="XMLID_21_" d="M69.4,116.3c-1,0-2-0.2-3-0.5s-1.9-0.8-2.6-1.4l1.1-1.7c0.8,0.5,1.5,1,2.2,1.2c0.7,0.3,1.5,0.4,2.3,0.4
		c0.8,0,1.4-0.2,1.9-0.5s0.7-0.7,0.7-1.3c0-0.5-0.3-0.9-0.8-1.2c-0.5-0.2-1.3-0.5-2.4-0.8c-0.8-0.2-1.5-0.4-2-0.6
		c-0.6-0.2-1-0.4-1.4-0.7c-0.4-0.3-0.6-0.6-0.8-0.9s-0.2-0.7-0.2-1.2c0-0.6,0.1-1.2,0.4-1.7c0.2-0.5,0.6-0.9,1-1.3
		c0.4-0.3,1-0.6,1.5-0.8c0.6-0.2,1.2-0.3,1.9-0.3c0.9,0,1.8,0.1,2.6,0.4c0.8,0.3,1.5,0.7,2.2,1.2l-1.1,1.6c-1.2-0.9-2.4-1.4-3.7-1.4
		c-0.7,0-1.2,0.1-1.7,0.4c-0.5,0.3-0.7,0.7-0.7,1.3c0,0.3,0,0.5,0.1,0.6c0.1,0.2,0.3,0.3,0.5,0.5s0.5,0.2,0.8,0.3
		c0.3,0.1,0.8,0.2,1.3,0.3c0.8,0.2,1.6,0.4,2.2,0.6c0.6,0.2,1.1,0.5,1.5,0.7c0.4,0.3,0.7,0.6,0.9,1s0.3,0.8,0.3,1.4
		c0,1.2-0.5,2.1-1.4,2.8C72.2,116,71,116.3,69.4,116.3z"/>
	<path id="XMLID_23_" d="M88,116.1h-2.6v-7c0-1.2-0.2-2-0.6-2.6c-0.4-0.6-1-0.8-1.8-0.8c-0.4,0-0.7,0.1-1.1,0.2
		c-0.4,0.1-0.7,0.3-1,0.6s-0.6,0.6-0.9,0.9c-0.3,0.4-0.4,0.8-0.6,1.2v7.5h-2.6V98.6h2.6v7.5c0.5-0.9,1.1-1.5,2-2
		c0.8-0.5,1.7-0.7,2.7-0.7c0.8,0,1.4,0.1,1.9,0.4c0.5,0.3,0.9,0.7,1.2,1.1c0.3,0.5,0.5,1,0.6,1.6c0.1,0.6,0.2,1.3,0.2,2V116.1z"/>
	<path id="XMLID_25_" d="M107.4,103.1c-0.2-0.2-0.4-0.4-0.7-0.6c-0.3-0.2-0.7-0.4-1.1-0.6c-0.4-0.2-0.9-0.3-1.3-0.4
		c-0.5-0.1-1-0.2-1.5-0.2c-1.1,0-2,0.2-2.5,0.6s-0.8,1-0.8,1.7c0,0.4,0.1,0.8,0.3,1c0.2,0.3,0.4,0.5,0.8,0.7
		c0.4,0.2,0.8,0.4,1.3,0.5c0.5,0.2,1.1,0.3,1.8,0.5c0.9,0.2,1.6,0.4,2.3,0.7c0.7,0.3,1.3,0.6,1.8,0.9s0.9,0.8,1.1,1.4s0.4,1.2,0.4,2
		c0,0.9-0.2,1.6-0.5,2.2s-0.8,1.1-1.3,1.5c-0.6,0.4-1.2,0.7-2,0.9c-0.8,0.2-1.6,0.3-2.4,0.3c-1.3,0-2.5-0.2-3.8-0.6
		c-1.2-0.4-2.3-1-3.3-1.7l1.2-2.3c0.2,0.2,0.5,0.4,0.9,0.7c0.4,0.3,0.8,0.5,1.4,0.7c0.5,0.2,1.1,0.4,1.7,0.6
		c0.6,0.2,1.2,0.2,1.9,0.2c1.1,0,1.9-0.2,2.4-0.6c0.6-0.4,0.9-0.9,0.9-1.6c0-0.4-0.1-0.8-0.3-1.1c-0.2-0.3-0.5-0.5-0.9-0.8
		c-0.4-0.2-0.9-0.4-1.5-0.6c-0.6-0.2-1.2-0.4-2-0.6c-0.8-0.2-1.6-0.5-2.2-0.7c-0.6-0.2-1.2-0.5-1.6-0.9c-0.4-0.4-0.7-0.8-0.9-1.2
		c-0.2-0.5-0.3-1-0.3-1.7c0-0.8,0.2-1.6,0.5-2.2c0.3-0.6,0.8-1.2,1.3-1.6c0.6-0.4,1.2-0.8,2-1c0.8-0.2,1.6-0.3,2.4-0.3
		c1.2,0,2.2,0.2,3.2,0.6c1,0.4,1.8,0.8,2.6,1.4L107.4,103.1z"/>
	<path id="XMLID_27_" d="M110.9,109.8c0-0.9,0.2-1.7,0.5-2.5c0.3-0.8,0.7-1.5,1.3-2.1c0.6-0.6,1.3-1.1,2.1-1.4
		c0.8-0.3,1.7-0.5,2.7-0.5c1.3,0,2.4,0.3,3.3,0.9c0.9,0.6,1.6,1.3,2.1,2.3l-2.6,0.8c-0.3-0.5-0.7-0.9-1.2-1.2
		c-0.5-0.3-1.1-0.4-1.7-0.4c-0.5,0-1,0.1-1.5,0.3s-0.9,0.5-1.2,0.9s-0.6,0.8-0.8,1.3c-0.2,0.5-0.3,1.1-0.3,1.7
		c0,0.6,0.1,1.2,0.3,1.7c0.2,0.5,0.5,1,0.8,1.4c0.3,0.4,0.7,0.7,1.2,0.9s0.9,0.3,1.5,0.3c0.3,0,0.6,0,1-0.1c0.3-0.1,0.6-0.2,0.9-0.4
		c0.3-0.2,0.5-0.3,0.7-0.6c0.2-0.2,0.3-0.4,0.4-0.7l2.6,0.8c-0.4,0.9-1.1,1.7-2.1,2.3c-1,0.6-2.1,0.9-3.5,0.9c-1,0-1.9-0.2-2.7-0.5
		c-0.8-0.4-1.5-0.8-2.1-1.4c-0.6-0.6-1-1.3-1.3-2.1S110.9,110.7,110.9,109.8z"/>
	<path id="XMLID_29_" d="M136.4,116.1h-2.6v-7c0-1.2-0.2-2-0.6-2.6c-0.4-0.6-1-0.8-1.8-0.8c-0.4,0-0.7,0.1-1.1,0.2
		c-0.4,0.1-0.7,0.3-1,0.6s-0.6,0.6-0.9,0.9c-0.3,0.4-0.4,0.8-0.6,1.2v7.5h-2.6V98.6h2.6v7.5c0.5-0.9,1.1-1.5,2-2
		c0.8-0.5,1.7-0.7,2.7-0.7c0.8,0,1.4,0.1,1.9,0.4c0.5,0.3,0.9,0.7,1.2,1.1c0.3,0.5,0.5,1,0.6,1.6c0.1,0.6,0.2,1.3,0.2,2V116.1z"/>
	<path id="XMLID_31_" d="M145.1,116.3c-1,0-1.9-0.2-2.7-0.5s-1.5-0.8-2-1.4s-1-1.3-1.3-2.1c-0.3-0.8-0.5-1.6-0.5-2.5
		c0-0.9,0.2-1.7,0.5-2.5c0.3-0.8,0.7-1.5,1.3-2.1c0.6-0.6,1.2-1.1,2-1.4c0.8-0.4,1.7-0.5,2.7-0.5c1,0,1.9,0.2,2.7,0.5
		c0.8,0.4,1.5,0.8,2,1.4c0.6,0.6,1,1.3,1.3,2.1s0.5,1.6,0.5,2.5c0,0.9-0.2,1.7-0.5,2.5s-0.7,1.5-1.3,2.1c-0.6,0.6-1.2,1.1-2,1.4
		S146,116.3,145.1,116.3z M141.3,109.9c0,0.6,0.1,1.2,0.3,1.7c0.2,0.5,0.5,1,0.8,1.3s0.7,0.7,1.2,0.9s0.9,0.3,1.5,0.3
		c0.5,0,1-0.1,1.5-0.3s0.9-0.5,1.2-0.9s0.6-0.8,0.8-1.3c0.2-0.5,0.3-1.1,0.3-1.7c0-0.6-0.1-1.1-0.3-1.7c-0.2-0.5-0.5-1-0.8-1.4
		s-0.7-0.7-1.2-0.9c-0.5-0.2-0.9-0.3-1.5-0.3c-0.5,0-1,0.1-1.5,0.3s-0.9,0.5-1.2,0.9c-0.3,0.4-0.6,0.8-0.8,1.4
		C141.4,108.7,141.3,109.3,141.3,109.9z"/>
	<path id="XMLID_34_" d="M159.5,116.3c-1,0-1.9-0.2-2.7-0.5s-1.5-0.8-2-1.4c-0.6-0.6-1-1.3-1.3-2.1s-0.5-1.6-0.5-2.5
		c0-0.9,0.2-1.7,0.5-2.5s0.7-1.5,1.3-2.1c0.6-0.6,1.2-1.1,2-1.4c0.8-0.4,1.7-0.5,2.7-0.5c1,0,1.9,0.2,2.7,0.5c0.8,0.4,1.5,0.8,2,1.4
		c0.6,0.6,1,1.3,1.3,2.1s0.5,1.6,0.5,2.5c0,0.9-0.2,1.7-0.5,2.5s-0.7,1.5-1.3,2.1c-0.6,0.6-1.2,1.1-2,1.4S160.5,116.3,159.5,116.3z
		 M155.8,109.9c0,0.6,0.1,1.2,0.3,1.7c0.2,0.5,0.5,1,0.8,1.3c0.3,0.4,0.7,0.7,1.2,0.9s0.9,0.3,1.5,0.3c0.5,0,1-0.1,1.5-0.3
		s0.9-0.5,1.2-0.9s0.6-0.8,0.8-1.3c0.2-0.5,0.3-1.1,0.3-1.7c0-0.6-0.1-1.1-0.3-1.7c-0.2-0.5-0.5-1-0.8-1.4s-0.7-0.7-1.2-0.9
		c-0.5-0.2-0.9-0.3-1.5-0.3c-0.5,0-1,0.1-1.5,0.3c-0.5,0.2-0.9,0.5-1.2,0.9c-0.3,0.4-0.6,0.8-0.8,1.4
		C155.9,108.7,155.8,109.3,155.8,109.9z"/>
	<path id="XMLID_37_" d="M168.4,98.6h2.6v13.9c0,0.5,0.1,0.8,0.4,1.1c0.2,0.3,0.6,0.4,1,0.4c0.2,0,0.4,0,0.6-0.1
		c0.2-0.1,0.5-0.1,0.7-0.2l0.4,2.1c-0.4,0.2-0.8,0.3-1.4,0.4c-0.5,0.1-1,0.2-1.4,0.2c-0.9,0-1.6-0.2-2.1-0.7s-0.8-1.2-0.8-2.1V98.6z
		"/>
	<path id="XMLID_39_" d="M186.4,116.3c-1,0-1.9-0.2-2.7-0.5s-1.5-0.8-2-1.4c-0.6-0.6-1-1.3-1.3-2.1s-0.5-1.6-0.5-2.5
		c0-0.9,0.2-1.7,0.5-2.5s0.7-1.5,1.3-2.1c0.6-0.6,1.2-1.1,2-1.4c0.8-0.4,1.7-0.5,2.7-0.5c1,0,1.9,0.2,2.7,0.5c0.8,0.4,1.5,0.8,2,1.4
		c0.6,0.6,1,1.3,1.3,2.1s0.5,1.6,0.5,2.5c0,0.9-0.2,1.7-0.5,2.5s-0.7,1.5-1.3,2.1c-0.6,0.6-1.2,1.1-2,1.4S187.4,116.3,186.4,116.3z
		 M182.6,109.9c0,0.6,0.1,1.2,0.3,1.7c0.2,0.5,0.5,1,0.8,1.3c0.3,0.4,0.7,0.7,1.2,0.9s0.9,0.3,1.5,0.3c0.5,0,1-0.1,1.5-0.3
		s0.9-0.5,1.2-0.9s0.6-0.8,0.8-1.3c0.2-0.5,0.3-1.1,0.3-1.7c0-0.6-0.1-1.1-0.3-1.7c-0.2-0.5-0.5-1-0.8-1.4s-0.7-0.7-1.2-0.9
		c-0.5-0.2-0.9-0.3-1.5-0.3c-0.5,0-1,0.1-1.5,0.3c-0.5,0.2-0.9,0.5-1.2,0.9c-0.3,0.4-0.6,0.8-0.8,1.4
		C182.7,108.7,182.6,109.3,182.6,109.9z"/>
	<path id="XMLID_42_" d="M195.7,116.1v-10.2H194v-2h1.7v-0.5c0-1.6,0.4-2.8,1.1-3.7c0.7-0.9,1.7-1.3,2.9-1.3c0.5,0,1,0.1,1.5,0.2
		c0.5,0.1,1,0.3,1.4,0.6l-0.6,2c-0.2-0.1-0.5-0.3-0.9-0.4c-0.3-0.1-0.6-0.1-0.9-0.1c-0.6,0-1.1,0.2-1.4,0.7s-0.5,1.1-0.5,2v0.6h3.2
		v2h-3.2v10.2H195.7z"/>
	<path id="XMLID_44_" d="M208.2,107.5c0-1,0.2-2,0.6-3.1c0.4-1,0.9-1.9,1.6-2.7c0.7-0.8,1.6-1.5,2.6-2c1-0.5,2.2-0.7,3.5-0.7
		c1.6,0,2.9,0.3,4,1c1.1,0.7,1.9,1.6,2.5,2.7l-2.1,1.4c-0.2-0.5-0.5-0.9-0.9-1.3s-0.7-0.6-1.1-0.8c-0.4-0.2-0.8-0.4-1.2-0.4
		s-0.8-0.1-1.2-0.1c-0.9,0-1.7,0.2-2.4,0.5c-0.7,0.4-1.2,0.8-1.7,1.4s-0.8,1.3-1,2c-0.2,0.7-0.3,1.5-0.3,2.2c0,0.8,0.1,1.6,0.4,2.4
		c0.3,0.8,0.7,1.4,1.1,2s1.1,1,1.7,1.4s1.4,0.5,2.2,0.5c0.4,0,0.8-0.1,1.3-0.2c0.4-0.1,0.9-0.3,1.3-0.5c0.4-0.2,0.8-0.5,1.1-0.9
		c0.3-0.4,0.6-0.8,0.9-1.3l2.2,1.3c-0.3,0.6-0.7,1.2-1.2,1.7c-0.5,0.5-1.1,0.9-1.7,1.2s-1.3,0.6-2,0.8c-0.7,0.2-1.4,0.3-2.1,0.3
		c-1.2,0-2.3-0.3-3.3-0.8c-1-0.5-1.8-1.2-2.6-2s-1.3-1.8-1.7-2.8C208.4,109.6,208.2,108.5,208.2,107.5z"/>
	<path id="XMLID_46_" d="M228.7,116.3c-0.6,0-1.2-0.1-1.7-0.3c-0.5-0.2-1-0.5-1.3-0.8c-0.4-0.4-0.7-0.8-0.9-1.2
		c-0.2-0.5-0.3-1-0.3-1.6c0-0.6,0.1-1.1,0.4-1.6c0.3-0.5,0.6-0.9,1.1-1.2c0.5-0.4,1-0.6,1.7-0.8c0.6-0.2,1.4-0.3,2.1-0.3
		c0.6,0,1.2,0.1,1.8,0.2c0.6,0.1,1.1,0.2,1.6,0.4v-0.9c0-0.9-0.3-1.7-0.8-2.2c-0.5-0.5-1.3-0.8-2.3-0.8c-0.7,0-1.3,0.1-2,0.4
		c-0.6,0.2-1.3,0.6-2,1.1l-0.8-1.7c1.6-1.1,3.3-1.6,5-1.6c1.7,0,3.1,0.4,4,1.3s1.4,2.1,1.4,3.8v4.5c0,0.6,0.2,0.8,0.7,0.9v2.3
		c-0.3,0-0.5,0.1-0.7,0.1s-0.4,0-0.5,0c-0.5,0-0.9-0.1-1.2-0.4c-0.3-0.3-0.5-0.6-0.5-1l-0.1-0.8c-0.6,0.7-1.3,1.3-2.1,1.7
		C230.5,116.1,229.7,116.3,228.7,116.3z M229.4,114.4c0.6,0,1.2-0.1,1.8-0.3c0.6-0.2,1-0.6,1.3-1c0.3-0.3,0.5-0.6,0.5-0.9v-1.7
		c-0.4-0.2-0.9-0.3-1.4-0.4s-1-0.1-1.5-0.1c-0.9,0-1.7,0.2-2.3,0.6c-0.6,0.4-0.9,0.9-0.9,1.6c0,0.6,0.2,1.1,0.7,1.6
		C228.1,114.2,228.7,114.4,229.4,114.4z"/>
	<path id="XMLID_51_" d="M250.2,116.1h-2.6v-7c0-1.2-0.2-2-0.6-2.6c-0.4-0.5-0.9-0.8-1.7-0.8c-0.4,0-0.8,0.1-1.2,0.2
		c-0.4,0.1-0.7,0.3-1.1,0.6s-0.6,0.6-0.9,0.9c-0.3,0.4-0.5,0.8-0.6,1.2v7.5h-2.6v-12.6h2.4v2.5c0.5-0.8,1.2-1.5,2.1-2
		c0.9-0.5,1.9-0.7,3-0.7c0.8,0,1.4,0.1,1.8,0.4c0.5,0.3,0.9,0.6,1.1,1.1c0.3,0.5,0.5,1,0.6,1.6c0.1,0.6,0.2,1.3,0.2,2V116.1z"/>
	<path id="XMLID_53_" d="M256.6,116.3c-0.6,0-1.2-0.1-1.7-0.3c-0.5-0.2-1-0.5-1.3-0.8c-0.4-0.4-0.7-0.8-0.9-1.2
		c-0.2-0.5-0.3-1-0.3-1.6c0-0.6,0.1-1.1,0.4-1.6c0.3-0.5,0.6-0.9,1.1-1.2c0.5-0.4,1-0.6,1.7-0.8c0.6-0.2,1.4-0.3,2.1-0.3
		c0.6,0,1.2,0.1,1.8,0.2c0.6,0.1,1.1,0.2,1.6,0.4v-0.9c0-0.9-0.3-1.7-0.8-2.2c-0.5-0.5-1.3-0.8-2.3-0.8c-0.7,0-1.3,0.1-2,0.4
		c-0.6,0.2-1.3,0.6-2,1.1l-0.8-1.7c1.6-1.1,3.3-1.6,5-1.6c1.7,0,3.1,0.4,4,1.3s1.4,2.1,1.4,3.8v4.5c0,0.6,0.2,0.8,0.7,0.9v2.3
		c-0.3,0-0.5,0.1-0.7,0.1s-0.4,0-0.5,0c-0.5,0-0.9-0.1-1.2-0.4c-0.3-0.3-0.5-0.6-0.5-1l-0.1-0.8c-0.6,0.7-1.3,1.3-2.1,1.7
		C258.4,116.1,257.5,116.3,256.6,116.3z M257.3,114.4c0.6,0,1.2-0.1,1.8-0.3c0.6-0.2,1-0.6,1.3-1c0.3-0.3,0.5-0.6,0.5-0.9v-1.7
		c-0.4-0.2-0.9-0.3-1.4-0.4s-1-0.1-1.5-0.1c-0.9,0-1.7,0.2-2.3,0.6c-0.6,0.4-0.9,0.9-0.9,1.6c0,0.6,0.2,1.1,0.7,1.6
		C256,114.2,256.6,114.4,257.3,114.4z"/>
	<path id="XMLID_107_" d="M271.9,116.3c-0.8,0-1.6-0.2-2.4-0.5c-0.7-0.3-1.3-0.8-1.9-1.4c-0.5-0.6-0.9-1.3-1.2-2.1
		c-0.3-0.8-0.4-1.6-0.4-2.6c0-0.9,0.1-1.7,0.4-2.5s0.7-1.5,1.2-2.1s1.1-1.1,1.8-1.4c0.7-0.3,1.4-0.5,2.2-0.5c1,0,1.9,0.2,2.7,0.7
		c0.8,0.5,1.4,1.1,1.8,1.9v-7.3h2.6V113c0,0.3,0.1,0.5,0.2,0.6c0.1,0.1,0.3,0.2,0.6,0.2v2.3c-0.3,0-0.5,0.1-0.7,0.1s-0.3,0-0.4,0
		c-0.5,0-1-0.1-1.3-0.4c-0.3-0.3-0.5-0.6-0.6-1.1l0-0.9c-0.5,0.8-1.1,1.4-1.9,1.8C273.8,116.1,272.9,116.3,271.9,116.3z
		 M272.5,114.1c0.4,0,0.8-0.1,1.2-0.2s0.7-0.3,1.1-0.5c0.3-0.2,0.6-0.5,0.8-0.8c0.2-0.3,0.4-0.6,0.5-1v-3.3
		c-0.1-0.4-0.3-0.8-0.6-1.1c-0.3-0.3-0.6-0.6-0.9-0.9c-0.3-0.2-0.7-0.4-1.1-0.6c-0.4-0.1-0.8-0.2-1.1-0.2c-0.5,0-1,0.1-1.5,0.4
		c-0.4,0.2-0.8,0.6-1.1,1c-0.3,0.4-0.6,0.9-0.8,1.4c-0.2,0.5-0.3,1-0.3,1.6c0,0.6,0.1,1.1,0.3,1.6c0.2,0.5,0.5,1,0.8,1.3
		c0.4,0.4,0.8,0.7,1.2,0.9C271.5,114,272,114.1,272.5,114.1z"/>
	<path id="XMLID_110_" d="M285.4,116.3c-0.6,0-1.2-0.1-1.7-0.3c-0.5-0.2-1-0.5-1.3-0.8c-0.4-0.4-0.7-0.8-0.9-1.2
		c-0.2-0.5-0.3-1-0.3-1.6c0-0.6,0.1-1.1,0.4-1.6c0.3-0.5,0.6-0.9,1.1-1.2c0.5-0.4,1-0.6,1.7-0.8c0.6-0.2,1.4-0.3,2.1-0.3
		c0.6,0,1.2,0.1,1.8,0.2c0.6,0.1,1.1,0.2,1.6,0.4v-0.9c0-0.9-0.3-1.7-0.8-2.2c-0.5-0.5-1.3-0.8-2.3-0.8c-0.7,0-1.3,0.1-2,0.4
		c-0.6,0.2-1.3,0.6-2,1.1l-0.8-1.7c1.6-1.1,3.3-1.6,5-1.6c1.7,0,3.1,0.4,4,1.3s1.4,2.1,1.4,3.8v4.5c0,0.6,0.2,0.8,0.7,0.9v2.3
		c-0.3,0-0.5,0.1-0.7,0.1s-0.4,0-0.5,0c-0.5,0-0.9-0.1-1.2-0.4c-0.3-0.3-0.5-0.6-0.5-1l-0.1-0.8c-0.6,0.7-1.3,1.3-2.1,1.7
		C287.2,116.1,286.3,116.3,285.4,116.3z M286.1,114.4c0.6,0,1.2-0.1,1.8-0.3c0.6-0.2,1-0.6,1.3-1c0.3-0.3,0.5-0.6,0.5-0.9v-1.7
		c-0.4-0.2-0.9-0.3-1.4-0.4s-1-0.1-1.5-0.1c-0.9,0-1.7,0.2-2.3,0.6c-0.6,0.4-0.9,0.9-0.9,1.6c0,0.6,0.2,1.1,0.7,1.6
		C284.8,114.2,285.4,114.4,286.1,114.4z"/>
</g>
</svg>
