<svg id="Layer_1" data-name="Layer 1" xmlns="http://www.w3.org/2000/svg" xmlns:xlink="http://www.w3.org/1999/xlink" viewBox="0 0 726.14 343.92"><defs><style>.cls-1{fill:url(#linear-gradient);}.cls-2{fill:url(#linear-gradient-2);}.cls-3,.cls-4{fill-rule:evenodd;}.cls-3{fill:url(#radial-gradient);}.cls-4{fill:url(#radial-gradient-2);}.cls-5{fill:#ed1c24;}</style><linearGradient id="linear-gradient" x1="631.82" y1="410.25" x2="633.85" y2="410.25" gradientUnits="userSpaceOnUse"><stop offset="0" stop-color="#fff"/><stop offset="0.02" stop-color="#fefaf5"/><stop offset="0.07" stop-color="#fdeddb"/><stop offset="0.12" stop-color="#fad8b1"/><stop offset="0.18" stop-color="#f7bb76"/><stop offset="0.25" stop-color="#f2962c"/><stop offset="0.25" stop-color="#f29427"/><stop offset="0.27" stop-color="#f28e27"/><stop offset="0.36" stop-color="#f06b26"/><stop offset="0.46" stop-color="#ef4e25"/><stop offset="0.57" stop-color="#ee3825"/><stop offset="0.69" stop-color="#ee2824"/><stop offset="0.82" stop-color="#ed1f24"/><stop offset="1" stop-color="#ed1c24"/></linearGradient><linearGradient id="linear-gradient-2" x1="476.01" y1="240.63" x2="756.72" y2="290.12" gradientUnits="userSpaceOnUse"><stop offset="0" stop-color="#fff"/><stop offset="0.02" stop-color="#fefaf5"/><stop offset="0.05" stop-color="#fdeddb"/><stop offset="0.08" stop-color="#fad8b1"/><stop offset="0.13" stop-color="#f7bb76"/><stop offset="0.18" stop-color="#f2962c"/><stop offset="0.18" stop-color="#f29427"/><stop offset="0.18" stop-color="#f29127"/><stop offset="0.23" stop-color="#f17226"/><stop offset="0.29" stop-color="#ef5725"/><stop offset="0.35" stop-color="#ef4125"/><stop offset="0.43" stop-color="#ee3025"/><stop offset="0.52" stop-color="#ed2524"/><stop offset="0.64" stop-color="#ed1e24"/><stop offset="1" stop-color="#ed1c24"/></linearGradient><radialGradient id="radial-gradient" cx="-1260.56" cy="131.48" r="111.61" gradientTransform="matrix(-0.99, -0.17, -0.17, 0.99, -620.13, -49.24)" gradientUnits="userSpaceOnUse"><stop offset="0" stop-color="#faa61a"/><stop offset="0.6" stop-color="#f25120"/><stop offset="1" stop-color="#ed1c24"/></radialGradient><radialGradient id="radial-gradient-2" cx="705.44" cy="-6858.48" r="3.63" gradientTransform="translate(0 55195) scale(1 8)" gradientUnits="userSpaceOnUse"><stop offset="0" stop-color="#fbcd1d"/><stop offset="0.01" stop-color="#fbc91d"/><stop offset="0.08" stop-color="#f8a11f"/><stop offset="0.15" stop-color="#f57d20"/><stop offset="0.24" stop-color="#f25f21"/><stop offset="0.33" stop-color="#f04622"/><stop offset="0.43" stop-color="#ef3323"/><stop offset="0.55" stop-color="#ee2624"/><stop offset="0.7" stop-color="#ed1e24"/><stop offset="1" stop-color="#ed1c24"/></radialGradient></defs><title>school_logo</title><path class="cls-1" d="M633.85,408.58c-2.48.41-2.86,3.12-.14,3.34" transform="translate(-32.93 -124.35)"/><path class="cls-2" d="M635.09,411.88c85-14.28,141.33-102.62,119.11-184C732.77,149.5,646.94,105.66,570,132c-42.65,14.63-78.1,56.45-92.28,98.94-0.67,2,5.35,1.23,6-.76,25.31-75.85,106.37-114,180.34-80C731.83,181.37,763,263.6,732.94,331.36c-18.23,41.1-52.46,68.73-96.62,76.79-0.82.15-1.65,0.32-2.47,0.46Z" transform="translate(-32.93 -124.35)"/><path class="cls-3" d="M619.89,328.13c12.52,2.67,26.72,5.67,39.21,8.35,3,0.63,5.18-.3,7.87-2.4,16.08-12.57,28.41-27.8,44.52-40.35,2.67-2.08,3.5-3.1-1.58-3.25-17-.44-34.87,1.22-51.83.65-3.79-.13-3.39-1.1-1-3.78,10.73-11.79,25.64-25.67,36.35-37.46,2.72-3,3-3.77-1.05-3.93-6.47-.25-14.88.23-21.14-0.11-2.7-.13-3.31-0.66-3-4.18,1.08-14.53,3.42-29.77,4.54-44.33,0.29-3.63-.08-4.24-3.6-1.69-10.52,7.64-21.06,15.52-31.58,23.18-4.74,3.45-5.73,4.55-7,8.36-2.89,8.38-4.59,17.67-7.42,26.1-1.61,4.77-1.9,3.53-1.89-.36,0-8.31-.1-16.75-0.09-25.08a29.12,29.12,0,0,0-.87-8.64c-1.68-7.28-2.87-14.64-4.49-21.93-0.92-4.19-1.49-4.83-4-1.91-3.34,3.86-7.46,7.75-10.81,11.61-2.46,2.83-3.08,3.17-5.19.55-8-9.88-14.29-20.11-22.11-30-3-3.75-3.71-3.8-4.22.86C568,191.4,564,206,562.76,219c-0.33,3.38-1.09,3.71-4.75,2.73-5.65-1.5-11-3.21-16.63-4.75-5.17-1.42-5.59-.74-3.61,2.83,9.92,17.83,17.52,32.93,27.62,51,1.06,1.92.68,2.21-1.75,1.21-9-3.7-15.9-7.19-24.83-10.88-2.7-1.13-3.26-1.5-6.18-1.59-12-.34-25.51,1.76-37.55,1.55-2.88-.05-3.21.31-1.67,2.16,10.43,12.47,21.28,23.85,31.7,36.33,1.9,2.25,1.4,2.64-.11,4.39-3.8,4.4-6.57,9.21-10.53,13.42-2.11,2.23-1.9,2.75,1.23,3.29,14.43,2.42,29.08.82,43.49,3.58,2,0.38,1.69,1,.79,1.93C549.84,336.64,541,351.68,531.24,363c-3,3.43-1.9,4.49,2.6,4.17,20.33-1.47,42.39-5.31,62.54-5.25,1.86,0,2.53-.23,3.26-1.46,5.93-10.11,7-17.9,12.47-27.77,1.35-2.46,2.44-1.64,3.65,1.28,10.27,24.83,15.73,51.5,16.08,75.19,0,3.15.27,3,2.24,2.84,2.76-.27,2.46-0.24,2.25-3.76-1.11-18.6-7.48-47.54-18.44-76.24-1.33-3.48-1.06-4.55,2-3.88h0Z" transform="translate(-32.93 -124.35)"/><path class="cls-4" d="M620.67,328.64a4.78,4.78,0,0,0-1.94-.13s0,0,0,0l95.64-36.66c0.18,0.52-.71,1.33-2.1,2.41-16.11,12.54-28.44,27.78-44.52,40.35-2.69,2.1-4.92,3-7.87,2.4-12.49-2.68-26.69-5.68-39.21-8.35h0Zm-6.58,1.7L530.51,367c-0.42-.66.07-1.78,1.51-3.47,9.81-11.33,18.6-26.38,28.74-36.91a2.93,2.93,0,0,0,.66-0.88Zm1-2.39L493.3,262c0.13-.42.94-0.53,2.57-0.49,12,0.2,25.6-1.89,37.55-1.55,2.92,0.09,3.48.46,6.18,1.59,8.93,3.69,15.82,7.18,24.83,10.88,2.43,1,2.81.71,1.75-1.21-10.09-18-17.69-33.12-27.62-51-2-3.58-1.57-4.25,3.61-2.83,5.61,1.54,11,3.25,16.63,4.75,3.66,1,4.42.65,4.75-2.73,1.25-12.92,5.24-27.55,6.73-40.61,0.21-2,.48-3.09.92-3.45Zm2.33-1.57,56-131.53c0.32,0.42.32,1.43,0.2,3-1.12,14.56-3.46,29.8-4.54,44.33-0.28,3.52.34,4,3,4.18,6.26,0.34,14.67-.14,21.14.11,4.08,0.16,3.77,1,1.05,3.93-10.71,11.79-25.62,25.67-36.35,37.46-1.48,1.63-2.2,2.62-1.71,3.19Z" transform="translate(-32.93 -124.35)"/><path class="cls-5" d="M65.61,318.6c0.61,36.92,26.33,58.4,60.52,58.4,18.16,0,35.71-5.14,49.63-16h0.91l-15.13,28.44c-13,5.45-27.54,7.57-41.76,7.57-51.44,0-86.85-32.38-86.85-74.44s30.56-72.62,75.65-72.62c41.15,0,69.3,29.66,68.09,68.69H65.61ZM144.9,301c-3.33-21.18-17.25-31.17-39-31.17-20.27,0-35.4,12.1-39,31.17H144.9Z" transform="translate(-32.93 -124.35)"/><path class="cls-5" d="M294.69,279.56a78.33,78.33,0,0,0-37.22-9.68c-10,0-28.14,2.42-28.14,14.52,0,26.93,82,17.25,82,65.36,0,28.14-28.75,47.21-67.78,47.21a103.11,103.11,0,0,1-39.34-7.26l-10.59-29.66c17.55,11.2,36,16.95,56.89,16.95,12.41,0,33.29-4.24,33.29-19.67,0-30.56-82-20.88-82-66.88,0-32.08,33.29-40.55,59.31-40.55,11.2,0,22.7.91,33.59,3.93v25.72Z" transform="translate(-32.93 -124.35)"/><path class="cls-5" d="M447.51,284.71H446.6c-8.78-10-23.3-14.83-36.92-14.83-29.35,0-50.54,20.58-50.54,49.32,0,34.8,29.35,57.8,62.94,57.8,15.43,0,32.38-6.05,44.18-14.83h0.91l-15.74,28.75c-12.71,4.84-26.63,6.05-39.94,6.05-46.6,0-82.91-30.56-82.91-69.9,0-52,40.55-77.16,86.24-77.16a148.22,148.22,0,0,1,32.68,3.63v31.17Z" transform="translate(-32.93 -124.35)"/><path class="cls-5" d="M36.17,439.11h17.7V443h-12v7.85H52.39v3.88H41.9v8.85H55.55v3.84H36.17V439.11Z" transform="translate(-32.93 -124.35)"/><path class="cls-5" d="M59.9,439.15H65l14.26,16a13.14,13.14,0,0,0,1.08,1.28v-17.3h4.48v28.59h-1.4L64.47,446.6v20.83H59.9V439.15Z" transform="translate(-32.93 -124.35)"/><path class="cls-5" d="M116,465.42a25.13,25.13,0,0,1-11.49,2.84c-5.81,0-8.85-2.36-10.41-3.92a14.75,14.75,0,0,1-4.25-10.89c0-10.57,8.29-15.18,14.78-15.18a11.25,11.25,0,0,1,8.25,3A8.08,8.08,0,0,1,115,445.4l-1.56.6a7,7,0,0,0-2.64-2.68,8.06,8.06,0,0,0-4.61-1.28c-5.89,0-10.29,4.33-10.29,10.93,0,5.21,3,11.61,9.57,11.61a12.31,12.31,0,0,0,4.93-1.08V457h-5.29V453H116v12.38Z" transform="translate(-32.93 -124.35)"/><path class="cls-5" d="M120.6,439.15h5.73v24.31H139.1v4H120.6V439.15Z" transform="translate(-32.93 -124.35)"/><path class="cls-5" d="M141.9,439.15h5.73v28.27H141.9V439.15Z" transform="translate(-32.93 -124.35)"/><path class="cls-5" d="M154.19,459.26a11,11,0,0,0,2.08,3.16,9.14,9.14,0,0,0,6.49,2.4c4,0,6-2.44,6-4.85,0-3-2.44-3.92-5.89-4.61-3.2-.64-9.17-1.84-9.17-8.33,0-3.12,1.72-8.81,10.89-8.81,1.16,0,5,0,7.49,2.56a7.52,7.52,0,0,1,2,4.69l-1.64.44a6.19,6.19,0,0,0-1.4-2.28,8,8,0,0,0-5.65-2c-3.2,0-6,1.44-6,4.37a3.88,3.88,0,0,0,.24,1.36c0.84,2.08,3,2.52,6,3.12,2,0.44,4.89,1.12,6.73,3a7.48,7.48,0,0,1,2.24,5.45,9.16,9.16,0,0,1-2.48,6.21c-3,3.16-7.73,3.16-8.93,3.16-1.44,0-5.37-.08-8-2.76a9.43,9.43,0,0,1-2.56-5.69Z" transform="translate(-32.93 -124.35)"/><path class="cls-5" d="M179.8,439.15h5.69v11.61h11.89V439.15h5.69v28.27h-5.69V454.61H185.49v12.82H179.8V439.15Z" transform="translate(-32.93 -124.35)"/><path class="cls-5" d="M219.63,459.26a11,11,0,0,0,2.08,3.16,9.14,9.14,0,0,0,6.49,2.4c4,0,6-2.44,6-4.85,0-3-2.44-3.92-5.89-4.61-3.2-.64-9.17-1.84-9.17-8.33,0-3.12,1.72-8.81,10.89-8.81,1.16,0,5,0,7.49,2.56a7.52,7.52,0,0,1,2,4.69l-1.64.44a6.19,6.19,0,0,0-1.4-2.28,8,8,0,0,0-5.65-2c-3.2,0-6,1.44-6,4.37a3.88,3.88,0,0,0,.24,1.36c0.84,2.08,3,2.52,6,3.12,2,0.44,4.89,1.12,6.73,3a7.48,7.48,0,0,1,2.24,5.45,9.16,9.16,0,0,1-2.48,6.21c-3,3.16-7.73,3.16-8.93,3.16-1.44,0-5.37-.08-8-2.76a9.43,9.43,0,0,1-2.56-5.69Z" transform="translate(-32.93 -124.35)"/><path class="cls-5" d="M269.13,461.06a10.45,10.45,0,0,1-2.56,4.41c-2.76,2.68-6.69,2.8-8.33,2.8-6.13,0-8.89-2.48-10.09-3.68a15.21,15.21,0,0,1-4.25-11.13c0-9.33,6.25-15.26,14.54-15.26,3.12,0,6.29.72,8.45,2.92a7.65,7.65,0,0,1,2.2,4.4l-1.6.48a9.6,9.6,0,0,0-1.44-2.08,8.25,8.25,0,0,0-5.93-2.2c-5.37,0-10.13,4-10.13,11.49,0,6.29,3.52,11.53,9.77,11.53a8.62,8.62,0,0,0,7.77-4.28Z" transform="translate(-32.93 -124.35)"/><path class="cls-5" d="M273.24,439.15h5.69v11.61h11.89V439.15h5.69v28.27h-5.69V454.61H278.93v12.82h-5.69V439.15Z" transform="translate(-32.93 -124.35)"/><path class="cls-5" d="M329.26,453.21c0,6.45-3.08,15.06-14.06,15.06-10.49,0-13.78-8.13-13.78-14.7,0-7.09,3.28-15.3,13.82-15.3C326.42,438.31,329.26,447,329.26,453.21Zm-21.63-.44c0,2.2,0,11.73,7.65,11.73,7.85,0,7.85-9.21,7.85-11.13,0-8.37-3.68-11.37-7.85-11.33C310.28,442.07,307.63,446.48,307.63,452.77Z" transform="translate(-32.93 -124.35)"/><path class="cls-5" d="M361,453.21c0,6.45-3.08,15.06-14.06,15.06-10.49,0-13.78-8.13-13.78-14.7,0-7.09,3.28-15.3,13.82-15.3C358.13,438.31,361,447,361,453.21Zm-21.63-.44c0,2.2,0,11.73,7.65,11.73,7.85,0,7.85-9.21,7.85-11.13,0-8.37-3.68-11.37-7.85-11.33C342,442.07,339.34,446.48,339.34,452.77Z" transform="translate(-32.93 -124.35)"/><path class="cls-5" d="M365.89,439.15h5.73v24.31h12.78v4h-18.5V439.15Z" transform="translate(-32.93 -124.35)"/><path class="cls-5" d="M426.07,453.21c0,6.45-3.08,15.06-14.06,15.06-10.49,0-13.78-8.13-13.78-14.7,0-7.09,3.28-15.3,13.82-15.3C423.22,438.31,426.07,447,426.07,453.21Zm-21.63-.44c0,2.2,0,11.73,7.65,11.73,7.85,0,7.85-9.21,7.85-11.13,0-8.37-3.68-11.37-7.85-11.33C407.09,442.07,404.44,446.48,404.44,452.77Z" transform="translate(-32.93 -124.35)"/><path class="cls-5" d="M431,439.11h17.62V443H436.71v7.73H447v4H436.71v12.73H431V439.11Z" transform="translate(-32.93 -124.35)"/><path class="cls-5" d="M486.92,461.06a10.45,10.45,0,0,1-2.56,4.41c-2.76,2.68-6.69,2.8-8.33,2.8-6.13,0-8.89-2.48-10.09-3.68a15.21,15.21,0,0,1-4.25-11.13c0-9.33,6.25-15.26,14.54-15.26,3.12,0,6.29.72,8.45,2.92a7.65,7.65,0,0,1,2.2,4.4l-1.6.48a9.6,9.6,0,0,0-1.44-2.08,8.25,8.25,0,0,0-5.93-2.2c-5.37,0-10.13,4-10.13,11.49,0,6.29,3.52,11.53,9.77,11.53a8.62,8.62,0,0,0,7.77-4.28Z" transform="translate(-32.93 -124.35)"/><path class="cls-5" d="M499.09,439.15h2l13,28.27h-6.09l-2.8-6.25H493.44l-2.8,6.25h-5Zm0.12,9.13-4.08,9.17h8.29Z" transform="translate(-32.93 -124.35)"/><path class="cls-5" d="M516.58,439.15h5.09l14.26,16a13.14,13.14,0,0,0,1.08,1.28v-17.3h4.48v28.59h-1.4L521.15,446.6v20.83h-4.57V439.15Z" transform="translate(-32.93 -124.35)"/><path class="cls-5" d="M557.46,439.15h2l13,28.27h-6.09l-2.8-6.25H551.81l-2.8,6.25h-5Zm0.12,9.13-4.08,9.17h8.29Z" transform="translate(-32.93 -124.35)"/><path class="cls-5" d="M574.91,439.15h10.17c2.68,0,7.29.08,10.81,3.52a15.11,15.11,0,0,1,4,10.57,14.77,14.77,0,0,1-4,10.45c-3.28,3.28-6.93,3.72-11.81,3.72h-9.17V439.15Zm9.65,24.39a8.88,8.88,0,0,0,6.53-2.24,11.32,11.32,0,0,0,2.8-8.09c0-4.53-1.84-7.41-3.77-8.73-2.4-1.64-5.57-1.6-9.49-1.52v20.58h3.92Z" transform="translate(-32.93 -124.35)"/><path class="cls-5" d="M613.8,439.15h2l13,28.27h-6.09l-2.8-6.25H608.15l-2.8,6.25h-5Zm0.12,9.13-4.08,9.17h8.29Z" transform="translate(-32.93 -124.35)"/></svg>