<svg id="Layer_1" data-name="Layer 1" xmlns="http://www.w3.org/2000/svg" xmlns:xlink="http://www.w3.org/1999/xlink" viewBox="0 0 761.93 360.87"><defs><style>.cls-1{fill:url(#linear-gradient);}.cls-2{fill:url(#linear-gradient-2);}.cls-3,.cls-4{fill-rule:evenodd;}.cls-3{fill:url(#radial-gradient);}.cls-4{fill:url(#radial-gradient-2);}.cls-5{fill:#ed1c24;}</style><linearGradient id="linear-gradient" x1="643.45" y1="409.12" x2="645.57" y2="409.12" gradientUnits="userSpaceOnUse"><stop offset="0" stop-color="#fff"/><stop offset="0.02" stop-color="#fefaf5"/><stop offset="0.07" stop-color="#fdeddb"/><stop offset="0.12" stop-color="#fad8b1"/><stop offset="0.18" stop-color="#f7bb76"/><stop offset="0.25" stop-color="#f2962c"/><stop offset="0.25" stop-color="#f29427"/><stop offset="0.27" stop-color="#f28e27"/><stop offset="0.36" stop-color="#f06b26"/><stop offset="0.46" stop-color="#ef4e25"/><stop offset="0.57" stop-color="#ee3825"/><stop offset="0.69" stop-color="#ee2824"/><stop offset="0.82" stop-color="#ed1f24"/><stop offset="1" stop-color="#ed1c24"/></linearGradient><linearGradient id="linear-gradient-2" x1="479.95" y1="231.13" x2="774.5" y2="283.07" gradientUnits="userSpaceOnUse"><stop offset="0" stop-color="#fff"/><stop offset="0.02" stop-color="#fefaf5"/><stop offset="0.05" stop-color="#fdeddb"/><stop offset="0.08" stop-color="#fad8b1"/><stop offset="0.13" stop-color="#f7bb76"/><stop offset="0.18" stop-color="#f2962c"/><stop offset="0.18" stop-color="#f29427"/><stop offset="0.18" stop-color="#f29127"/><stop offset="0.23" stop-color="#f17226"/><stop offset="0.29" stop-color="#ef5725"/><stop offset="0.35" stop-color="#ef4125"/><stop offset="0.43" stop-color="#ee3025"/><stop offset="0.52" stop-color="#ed2524"/><stop offset="0.64" stop-color="#ed1e24"/><stop offset="1" stop-color="#ed1c24"/></linearGradient><radialGradient id="radial-gradient" cx="-1269.32" cy="122.98" r="117.11" gradientTransform="matrix(-0.99, -0.17, -0.17, 0.99, -620.13, -49.24)" gradientUnits="userSpaceOnUse"><stop offset="0" stop-color="#faa61a"/><stop offset="0.6" stop-color="#f25120"/><stop offset="1" stop-color="#ed1c24"/></radialGradient><radialGradient id="radial-gradient-2" cx="720.69" cy="-6859.13" r="3.81" gradientTransform="translate(0 55195) scale(1 8)" gradientUnits="userSpaceOnUse"><stop offset="0" stop-color="#fbcd1d"/><stop offset="0.01" stop-color="#fbc91d"/><stop offset="0.08" stop-color="#f8a11f"/><stop offset="0.15" stop-color="#f57d20"/><stop offset="0.24" stop-color="#f25f21"/><stop offset="0.33" stop-color="#f04622"/><stop offset="0.43" stop-color="#ef3323"/><stop offset="0.55" stop-color="#ee2624"/><stop offset="0.7" stop-color="#ed1e24"/><stop offset="1" stop-color="#ed1c24"/></radialGradient></defs><title>ESC_Final Logo</title><path class="cls-1" d="M645.57,407.37c-2.61.43-3,3.27-.15,3.51" transform="translate(-15.04 -109.12)"/><path class="cls-2" d="M646.88,410.83c89.21-15,148.3-107.67,125-193-22.48-82.27-112.55-128.28-193.27-100.6-44.76,15.35-82,59.23-96.83,103.81-0.7,2.1,5.62,1.3,6.31-.8,26.56-79.59,111.61-119.64,189.23-83.94,71.09,32.69,103.79,119,72.25,190.08-19.13,43.13-55,72.12-101.38,80.58-0.86.16-1.73,0.34-2.6,0.48Z" transform="translate(-15.04 -109.12)"/><path class="cls-3" d="M630.93,322.94c13.14,2.8,28,5.95,41.14,8.76,3.1,0.66,5.43-.32,8.26-2.52C697.2,316,710.13,300,727,286.85c2.8-2.18,3.67-3.26-1.66-3.41-17.86-.46-36.59,1.28-54.39.68-4-.14-3.56-1.15-1-4,11.26-12.37,26.9-26.94,38.15-39.3,2.85-3.12,3.18-4-1.11-4.13-6.79-.26-15.62.24-22.18-0.11-2.83-.14-3.47-0.69-3.18-4.38,1.13-15.25,3.59-31.24,4.76-46.52,0.3-3.8-.08-4.45-3.78-1.78-11,8-22.1,16.28-33.14,24.32-5,3.62-6,4.78-7.39,8.77-3,8.79-4.82,18.55-7.78,27.39-1.69,5-2,3.71-2-.37,0-8.72-.11-17.57-0.09-26.31a30.55,30.55,0,0,0-.91-9.07c-1.77-7.63-3-15.36-4.71-23-1-4.39-1.56-5.07-4.2-2-3.5,4.05-7.82,8.13-11.34,12.19-2.58,3-3.23,3.33-5.45.58-8.4-10.37-15-21.1-23.2-31.51-3.1-3.94-3.89-4-4.43.91-1.56,13.7-5.74,29-7.06,42.61-0.34,3.55-1.14,3.9-5,2.86-5.92-1.57-11.56-3.37-17.45-5-5.43-1.49-5.87-.78-3.79,3,10.41,18.71,18.39,34.55,29,53.46,1.11,2,.71,2.32-1.83,1.27-9.45-3.88-16.68-7.55-26.05-11.42-2.83-1.18-3.42-1.58-6.48-1.67-12.54-.35-26.77,1.84-39.41,1.63-3-.06-3.37.32-1.76,2.27,10.95,13.09,22.33,25,33.26,38.12,2,2.36,1.47,2.78-.11,4.61-4,4.62-6.89,9.67-11,14.09-2.22,2.34-2,2.89,1.29,3.45,15.14,2.54,30.51.87,45.63,3.76,2.08,0.39,1.77,1,.83,2-10.63,11.06-19.86,26.84-30.15,38.73-3.1,3.6-2,4.72,2.73,4.38,21.33-1.54,44.48-5.57,65.62-5.51,2,0,2.65-.24,3.42-1.53,6.22-10.61,7.36-18.78,13.09-29.14,1.42-2.58,2.56-1.72,3.82,1.34,10.78,26.06,16.51,54,16.87,78.89,0,3.3.28,3.19,2.36,3,2.9-.29,2.58-0.25,2.36-3.95-1.17-19.52-7.85-49.88-19.35-80-1.39-3.65-1.11-4.77,2.11-4.07h0Z" transform="translate(-15.04 -109.12)"/><path class="cls-4" d="M631.75,323.48a5,5,0,0,0-2-.14s0,0,0,0l100.36-38.47c0.19,0.55-.75,1.39-2.21,2.53C711,300.55,698,316.53,681.15,329.72c-2.82,2.21-5.16,3.18-8.26,2.52-13.1-2.81-28-6-41.14-8.76h0Zm-6.91,1.78-87.7,38.47c-0.44-.7.07-1.87,1.59-3.64,10.29-11.89,19.52-27.68,30.15-38.73a3.07,3.07,0,0,0,.69-0.93Zm1-2.51L498.09,253.57c0.14-.44,1-0.56,2.69-0.52,12.63,0.21,26.87-2,39.41-1.63,3.07,0.09,3.65.49,6.48,1.67,9.37,3.87,16.6,7.54,26.05,11.42,2.55,1,2.95.74,1.83-1.27-10.59-18.91-18.56-34.75-29-53.46-2.08-3.75-1.64-4.46,3.79-3,5.88,1.62,11.52,3.41,17.45,5,3.84,1,4.64.68,5-2.86,1.32-13.56,5.5-28.91,7.06-42.61,0.22-2.06.5-3.24,1-3.62Zm2.44-1.64L687,183.1c0.34,0.44.34,1.5,0.21,3.14-1.17,15.28-3.63,31.27-4.76,46.52-0.29,3.69.35,4.24,3.18,4.38,6.57,0.35,15.4-.15,22.18.11,4.28,0.17,4,1,1.11,4.13-11.24,12.37-26.89,26.93-38.15,39.3-1.56,1.71-2.31,2.75-1.8,3.35Z" transform="translate(-15.04 -109.12)"/><path class="cls-5" d="M49.33,312.95C50,351.68,77,374.23,112.83,374.23c19.05,0,37.47-5.4,52.07-16.83h1L150,387.25c-13.65,5.72-28.89,7.94-43.82,7.94-54,0-91.13-34-91.13-78.11s32.07-76.2,79.38-76.2c43.18,0,72.71,31.12,71.44,72.08H49.33Zm83.19-18.42c-3.49-22.23-18.1-32.7-41-32.7-21.27,0-37.15,12.7-41,32.7h81.92Z" transform="translate(-15.04 -109.12)"/><path class="cls-5" d="M289.69,272a82.19,82.19,0,0,0-39.05-10.16c-10.48,0-29.53,2.54-29.53,15.24,0,28.26,86,18.1,86,68.58,0,29.53-30.16,49.53-71.12,49.53a108.19,108.19,0,0,1-41.28-7.62l-11.11-31.12c18.42,11.75,37.78,17.78,59.69,17.78,13,0,34.93-4.45,34.93-20.64,0-32.07-86-21.91-86-70.17,0-33.66,34.93-42.55,62.23-42.55,11.75,0,23.81,1,35.24,4.13v27Z" transform="translate(-15.04 -109.12)"/><path class="cls-5" d="M450,277.39h-1c-9.21-10.48-24.45-15.56-38.74-15.56-30.8,0-53,21.59-53,51.76,0,36.51,30.8,60.65,66,60.65,16.19,0,34-6.35,46.36-15.56h1l-16.51,30.16c-13.34,5.08-27.94,6.35-41.91,6.35-48.9,0-87-32.07-87-73.35,0-54.61,42.55-81,90.49-81A155.53,155.53,0,0,1,450,244.68v32.71Z" transform="translate(-15.04 -109.12)"/><path class="cls-5" d="M18.43,439.4H37v4.08H24.44v8.24h11v4.08h-11v9.29H38.77v4H18.43V439.4Z" transform="translate(-15.04 -109.12)"/><path class="cls-5" d="M43.34,439.44h5.34l15,16.81a13.78,13.78,0,0,0,1.13,1.34V439.44h4.71v30H68L48.13,447.26v21.85H43.34V439.44Z" transform="translate(-15.04 -109.12)"/><path class="cls-5" d="M102.2,467a26.37,26.37,0,0,1-12.06,3c-6.09,0-9.29-2.48-10.92-4.12a15.48,15.48,0,0,1-4.45-11.43c0-11.09,8.7-15.93,15.51-15.93a11.81,11.81,0,0,1,8.66,3.19,8.48,8.48,0,0,1,2.27,4.29l-1.64.63a7.33,7.33,0,0,0-2.77-2.82,8.46,8.46,0,0,0-4.83-1.34c-6.18,0-10.8,4.54-10.8,11.47,0,5.46,3.11,12.19,10,12.19A12.92,12.92,0,0,0,96.36,465v-6.85H90.81V454H102.2v13Z" transform="translate(-15.04 -109.12)"/><path class="cls-5" d="M107,439.44h6v25.51h13.4v4.16H107V439.44Z" transform="translate(-15.04 -109.12)"/><path class="cls-5" d="M129.37,439.44h6v29.67h-6V439.44Z" transform="translate(-15.04 -109.12)"/><path class="cls-5" d="M142.27,460.54a11.59,11.59,0,0,0,2.19,3.32,9.59,9.59,0,0,0,6.81,2.52c4.2,0,6.26-2.56,6.26-5.08,0-3.19-2.56-4.12-6.18-4.83-3.36-.67-9.62-1.93-9.62-8.74,0-3.28,1.81-9.25,11.43-9.25,1.22,0,5.29,0,7.86,2.69a7.89,7.89,0,0,1,2.14,4.92l-1.72.46a6.5,6.5,0,0,0-1.47-2.4A8.43,8.43,0,0,0,154,442c-3.36,0-6.35,1.51-6.35,4.58a4.07,4.07,0,0,0,.25,1.43c0.88,2.19,3.15,2.65,6.34,3.28,2.06,0.46,5.13,1.18,7.06,3.11a7.84,7.84,0,0,1,2.35,5.71,9.61,9.61,0,0,1-2.61,6.51C157.9,470,153,470,151.72,470c-1.51,0-5.63-.08-8.45-2.9a9.89,9.89,0,0,1-2.69-6Z" transform="translate(-15.04 -109.12)"/><path class="cls-5" d="M169.14,439.44h6v12.19h12.48V439.44h6v29.67h-6V455.66H175.11v13.45h-6V439.44Z" transform="translate(-15.04 -109.12)"/><path class="cls-5" d="M210.94,460.54a11.59,11.59,0,0,0,2.19,3.32,9.59,9.59,0,0,0,6.81,2.52c4.2,0,6.26-2.56,6.26-5.08,0-3.19-2.56-4.12-6.18-4.83-3.36-.67-9.62-1.93-9.62-8.74,0-3.28,1.81-9.25,11.43-9.25,1.22,0,5.29,0,7.86,2.69a7.89,7.89,0,0,1,2.14,4.92l-1.72.46a6.5,6.5,0,0,0-1.47-2.4,8.43,8.43,0,0,0-5.93-2.1c-3.36,0-6.35,1.51-6.35,4.58a4.07,4.07,0,0,0,.25,1.43c0.88,2.19,3.15,2.65,6.34,3.28,2.06,0.46,5.13,1.18,7.06,3.11a7.84,7.84,0,0,1,2.35,5.71,9.61,9.61,0,0,1-2.61,6.51c-3.19,3.32-8.11,3.32-9.37,3.32-1.51,0-5.63-.08-8.45-2.9a9.89,9.89,0,0,1-2.69-6Z" transform="translate(-15.04 -109.12)"/><path class="cls-5" d="M262.87,462.43a11,11,0,0,1-2.69,4.62c-2.9,2.81-7,2.94-8.74,2.94-6.43,0-9.33-2.61-10.59-3.87a16,16,0,0,1-4.45-11.68c0-9.79,6.56-16,15.25-16,3.28,0,6.6.76,8.87,3.07a8,8,0,0,1,2.31,4.62l-1.68.51a10.07,10.07,0,0,0-1.51-2.19,8.66,8.66,0,0,0-6.22-2.31c-5.63,0-10.63,4.16-10.63,12.06,0,6.6,3.7,12.1,10.25,12.1a9,9,0,0,0,8.15-4.5Z" transform="translate(-15.04 -109.12)"/><path class="cls-5" d="M267.19,439.44h6v12.19h12.48V439.44h6v29.67h-6V455.66H273.16v13.45h-6V439.44Z" transform="translate(-15.04 -109.12)"/><path class="cls-5" d="M326,454.19c0,6.77-3.24,15.8-14.75,15.8-11,0-14.46-8.53-14.46-15.42,0-7.44,3.45-16.05,14.5-16.05C323,438.56,326,447.72,326,454.19Zm-22.69-.46c0,2.31,0,12.31,8,12.31,8.24,0,8.24-9.66,8.24-11.68,0-8.78-3.87-11.93-8.24-11.89C306.05,442.51,303.28,447.13,303.28,453.73Z" transform="translate(-15.04 -109.12)"/><path class="cls-5" d="M359.24,454.19c0,6.77-3.24,15.8-14.75,15.8-11,0-14.46-8.53-14.46-15.42,0-7.44,3.45-16.05,14.5-16.05C356.26,438.56,359.24,447.72,359.24,454.19Zm-22.69-.46c0,2.31,0,12.31,8,12.31,8.24,0,8.24-9.66,8.24-11.68,0-8.78-3.87-11.93-8.24-11.89C339.33,442.51,336.55,447.13,336.55,453.73Z" transform="translate(-15.04 -109.12)"/><path class="cls-5" d="M364.4,439.44h6v25.51h13.4v4.16H364.4V439.44Z" transform="translate(-15.04 -109.12)"/><path class="cls-5" d="M427.55,454.19c0,6.77-3.24,15.8-14.75,15.8-11,0-14.46-8.53-14.46-15.42,0-7.44,3.45-16.05,14.5-16.05C424.57,438.56,427.55,447.72,427.55,454.19Zm-22.69-.46c0,2.31,0,12.31,8,12.31,8.24,0,8.24-9.66,8.24-11.68,0-8.78-3.87-11.93-8.24-11.89C407.63,442.51,404.86,447.13,404.86,453.73Z" transform="translate(-15.04 -109.12)"/><path class="cls-5" d="M432.75,439.4h18.49v4.08H438.72v8.11h10.84v4.16H438.72v13.36h-6V439.4Z" transform="translate(-15.04 -109.12)"/><path class="cls-5" d="M491.4,462.43a11,11,0,0,1-2.69,4.62c-2.9,2.81-7,2.94-8.74,2.94-6.43,0-9.33-2.61-10.59-3.87a16,16,0,0,1-4.45-11.68c0-9.79,6.56-16,15.25-16,3.28,0,6.6.76,8.87,3.07a8,8,0,0,1,2.31,4.62l-1.68.51a10.07,10.07,0,0,0-1.51-2.19,8.66,8.66,0,0,0-6.22-2.31c-5.63,0-10.63,4.16-10.63,12.06,0,6.6,3.7,12.1,10.25,12.1a9,9,0,0,0,8.15-4.5Z" transform="translate(-15.04 -109.12)"/><path class="cls-5" d="M504.17,439.44h2.06l13.62,29.67h-6.39l-2.94-6.56H498.25l-2.94,6.56h-5.21ZM504.3,449L500,458.65h8.7Z" transform="translate(-15.04 -109.12)"/><path class="cls-5" d="M522.52,439.44h5.34l15,16.81A13.78,13.78,0,0,0,544,457.6V439.44h4.71v30h-1.47l-19.88-22.19v21.85h-4.79V439.44Z" transform="translate(-15.04 -109.12)"/><path class="cls-5" d="M565.42,439.44h2.06l13.62,29.67h-6.39l-2.94-6.56H559.49l-2.94,6.56h-5.21Zm0.13,9.58-4.29,9.62H570Z" transform="translate(-15.04 -109.12)"/><path class="cls-5" d="M583.73,439.44h10.67c2.82,0,7.65.08,11.35,3.7,2.73,2.65,4.24,7,4.24,11.09a15.5,15.5,0,0,1-4.24,11c-3.44,3.45-7.27,3.91-12.4,3.91h-9.62V439.44ZM593.86,465c2.52,0,5.09-.55,6.85-2.35,2.18-2.23,2.94-5.38,2.94-8.49,0-4.75-1.93-7.77-4-9.16-2.52-1.72-5.84-1.68-10-1.6V465h4.12Z" transform="translate(-15.04 -109.12)"/><path class="cls-5" d="M624.54,439.44h2.06l13.62,29.67h-6.39l-2.94-6.56H618.61l-2.94,6.56h-5.21Zm0.13,9.58-4.29,9.62h8.7Z" transform="translate(-15.04 -109.12)"/></svg>